<mxfile host="Electron" modified="2024-06-12T17:58:55.546Z" agent="Mozilla/5.0 (Macintosh; Intel Mac OS X 10_15_7) AppleWebKit/537.36 (KHTML, like Gecko) draw.io/24.4.8 Chrome/124.0.6367.207 Electron/30.0.6 Safari/537.36" etag="lY_NhViyFYAsJwLkJTld" version="24.4.8" type="device">
  <diagram name="Architecture" id="zqNlDWknkGKGoMpiop9w">
    <mxGraphModel dx="2588" dy="1664" grid="1" gridSize="10" guides="1" tooltips="1" connect="1" arrows="1" fold="1" page="0" pageScale="1" pageWidth="1169" pageHeight="827" math="0" shadow="0">
      <root>
        <mxCell id="IrsivO46pxZ-6Kv6au7V-0" />
        <mxCell id="IrsivO46pxZ-6Kv6au7V-1" parent="IrsivO46pxZ-6Kv6au7V-0" />
        <mxCell id="Jg9ay4V2BTXNYw3k0cHm-0" value="" style="rounded=1;whiteSpace=wrap;html=1;strokeColor=#0070F2;fillColor=#EBF8FF;arcSize=32;absoluteArcSize=1;imageWidth=64;imageHeight=64;strokeWidth=1.5;dashed=1;" parent="IrsivO46pxZ-6Kv6au7V-1" vertex="1">
          <mxGeometry x="-80" y="-680.88" width="240" height="370.88" as="geometry" />
        </mxCell>
        <mxCell id="IrsivO46pxZ-6Kv6au7V-17" value="" style="rounded=1;whiteSpace=wrap;html=1;strokeColor=#0070F2;fillColor=#EBF8FF;arcSize=32;absoluteArcSize=1;imageWidth=64;imageHeight=64;strokeWidth=1.5;" parent="IrsivO46pxZ-6Kv6au7V-1" vertex="1">
          <mxGeometry x="-822" y="-680.88" width="712" height="480.88" as="geometry" />
        </mxCell>
        <mxCell id="IrsivO46pxZ-6Kv6au7V-18" value="" style="rounded=1;whiteSpace=wrap;html=1;strokeColor=#0070F2;strokeWidth=1.5;arcSize=16;fillColor=#FFFFFF;perimeterSpacing=0;absoluteArcSize=1;" parent="IrsivO46pxZ-6Kv6au7V-1" vertex="1">
          <mxGeometry x="-803.45" y="-626.74" width="673.45" height="406.74" as="geometry" />
        </mxCell>
        <mxCell id="IrsivO46pxZ-6Kv6au7V-19" value="" style="shape=image;verticalLabelPosition=bottom;labelBackgroundColor=default;verticalAlign=top;aspect=fixed;imageAspect=0;image=data:image/svg+xml,PHN2ZyB4bWxuczp4bGluaz0iaHR0cDovL3d3dy53My5vcmcvMTk5OS94bGluayIgeG1sbnM9Imh0dHA6Ly93d3cudzMub3JnLzIwMDAvc3ZnIiB2aWV3Qm94PSIwIDAgMTQ0Ljc0NyAzOS44MzIiIGlkPSJhIj48ZGVmcz48bGluZWFyR3JhZGllbnQgZ3JhZGllbnRVbml0cz0idXNlclNwYWNlT25Vc2UiIHkyPSIzOS44MzIiIHgyPSI0MC4yNTgiIHkxPSIwIiB4MT0iNDAuMjU4IiBpZD0iYiI+PHN0b3Agc3RvcC1jb2xvcj0iIzAwYjhmMSIgb2Zmc2V0PSIwIi8+PHN0b3Agc3RvcC1jb2xvcj0iIzAwYjVlZiIgb2Zmc2V0PSIuMDE2Ii8+PHN0b3Agc3RvcC1jb2xvcj0iIzBkOTBkOCIgb2Zmc2V0PSIuMzA4Ii8+PHN0b3Agc3RvcC1jb2xvcj0iIzE2NzVjOCIgb2Zmc2V0PSIuNTc4Ii8+PHN0b3Agc3RvcC1jb2xvcj0iIzFjNjRiZSIgb2Zmc2V0PSIuODE3Ii8+PHN0b3Agc3RvcC1jb2xvcj0iIzFlNWZiYiIgb2Zmc2V0PSIxIi8+PC9saW5lYXJHcmFkaWVudD48L2RlZnM+PHBvbHlsaW5lIGZpbGwtcnVsZT0iZXZlbm9kZCIgZmlsbD0idXJsKCNiKSIgcG9pbnRzPSIwIDM5LjgzMiA0MC42OTIgMzkuODMyIDgwLjUxNyAwIDAgMCAwIDM5LjgzMiIvPjxwYXRoIGZpbGwtcnVsZT0iZXZlbm9kZCIgZmlsbD0iI2ZmZiIgZD0ibTQ3Ljc4Miw3LjQ4OWwtNy45MjUtLjAwNXYxOC44NDVsLTYuOTI0LTE4Ljg0NWgtNi44NjVsLTUuOTEyLDE1Ljc1OWMtLjYzLTMuOTczLTQuNzQtNS4zNDUtNy45NzQtNi4zNzQtMi4xMzUtLjY4Ni00LjQwMS0xLjY5NC00LjM4LTIuODA5LjAxNy0uOTE1LDEuMjE1LTEuNzY1LDMuNTg5LTEuNjM3LDEuNTk1LjA4NCwzLjAwMS4yMTMsNS44LDEuNTYzbDIuNzUzLTQuNzk1Yy0yLjU1NS0xLjMtNi4wODYtMi4xMjEtOC45NzgtMi4xMjRoLS4wMTdjLTMuMzc0LDAtNi4xODUsMS4wOTMtNy45MjgsMi44OTQtMS4yMTQsMS4yNTgtMS44NjksMi44NTYtMS44OTYsNC42MjMtLjA0NCwyLjQzMi44NDgsNC4xNTcsMi43MjEsNS41MzMsMS41ODMsMS4xNiwzLjYwNiwxLjkxMiw1LjM5LDIuNDY1LDIuMjAxLjY4MSwzLjk5NiwxLjI3NCwzLjk3NSwyLjUzOS0uMDE2LjQ1OS0uMTkxLjg4OC0uNTIxLDEuMjM2LS41NDguNTY2LTEuMzkxLjc3OS0yLjU1NS43OTktMi4yNDQuMDQ4LTMuOTEtLjMwMy02LjU2Mi0xLjg3bC0yLjQ0OCw0Ljg2MWMyLjY0NCwxLjUwNiw1Ljc3NiwyLjM4OCw4Ljk3MiwyLjM4OGwuNDExLS4wMDZjMi43ODItLjA1LDUuMDI2LS44NDIsNi44Mi0yLjI4Ni4xMDMtLjA4MS4xOTYtLjE2Ni4yOTEtLjI1bC0uNzk1LDIuMTIzaDcuMmwxLjIwOC0zLjY3NGMxLjI2NS40MzMsMi43MDQuNjcxLDQuMjMyLjY3MSwxLjQ4NywwLDIuODg5LS4yMjksNC4xMzEtLjYzNWwxLjE2NCwzLjYzN2gxMS43NDJ2LTcuNjA3aDIuNTYxYzYuMTg4LDAsOS44NTEtMy4xNTQsOS44NTEtOC40MzYsMC01Ljg4NS0zLjU1Ny04LjU4NS0xMS4xMzItOC41ODVabS0xOC4zMTcsMTYuMTI0Yy0uOTI1LDAtMS43OTItLjE2LTIuNTM5LS40NDNsMi41MTItNy45MjZoLjA0OGwyLjQ2OCw3Ljk0OGMtLjc0Mi4yNjMtMS41ODkuNDIxLTIuNDg4LjQyMVptMTguNzgzLTQuNTUzaC0xLjc0NnYtNi4zODZoMS43NDZjMi4zMjgsMCw0LjE4NS43NzMsNC4xODUsMy4xNTEsMCwyLjQ2MS0xLjg1NywzLjIzNi00LjE4NSwzLjIzNiIvPjxwYXRoIGZpbGw9IiMwMDJhODYiIGQ9Im04MC4yMTcsNy40MDFoMTAuMDYzYzUuNTk1LDAsOC42NzQsMS45MTcsOC42NzQsNi4xNTgsMCwyLjkwMy0xLjUxMyw1LjAxNC00LjMxMSw1LjcsMy4yOS40NTgsNS4yNzgsMi41ODYsNS4yNzgsNS44OTQsMCw1LjAxNC00LjA2NCw3LjAzNy05LjE4NCw3LjAzN2gtMTAuNTIxVjcuNDAxWm0xMy45NjksNi44MjZjMC0yLjE2NC0xLjQ5Ni0yLjk3My00LjI0LTIuOTczaC01LjA0OXY2LjI5OGg0Ljg5MWMzLjIwMiwwLDQuMzk4LTEuMTYxLDQuMzk4LTMuMzI1Wm0xLjAyMSwxMC41MjFjMC0yLjM1Ny0xLjc3Ny0zLjQ2Ni00LjgzOS0zLjQ2NmgtNS40NzF2Ny4wNTVoNS41MDZjMi44MTUsMCw0LjgwNC0uNzc0LDQuODA0LTMuNTg5WiIvPjxwYXRoIGZpbGw9IiMwMDJhODYiIGQ9Im0xMDkuMDUxLDExLjVoLTcuNTgzdi00LjA5OWgxOS44NDZ2NC4wOTloLTcuNTY1djIwLjY5aC00LjY5N1YxMS41WiIvPjxwYXRoIGZpbGw9IiMwMDJhODYiIGQ9Im0xMjUuMTQ4LDcuNDAxaDEwLjUwNGM2LjE5MiwwLDkuMDk2LDMuMTg1LDkuMDk2LDcuODk5LDAsNC4zOTgtMi44MzMsOC4xNDYtOC44NSw4LjE0NmgtNi4wN3Y4Ljc0NGgtNC42OFY3LjQwMVptMTQuOTAyLDcuOTUyYzAtMi41NTEtMS42ODktMy45MjMtNC45NDQtMy45MjNoLTUuMjc4djguMDRoNS40MTljMy4yNzIsMCw0LjgwNC0xLjU4Myw0LjgwNC00LjExN1oiLz48L3N2Zz4=;strokeWidth=1.5;" parent="IrsivO46pxZ-6Kv6au7V-1" vertex="1">
          <mxGeometry x="-803.45" y="-662.3299999999999" width="67.25" height="18.55" as="geometry" />
        </mxCell>
        <mxCell id="IrsivO46pxZ-6Kv6au7V-20" value="" style="endArrow=blockThin;html=1;strokeColor=#475E75;bendable=1;rounded=0;endFill=1;endSize=4;strokeWidth=1.5;entryX=0;entryY=0.5;entryDx=0;entryDy=0;entryPerimeter=0;exitX=1;exitY=0.5;exitDx=0;exitDy=0;startSize=4;" parent="IrsivO46pxZ-6Kv6au7V-1" source="iYj1pvSdTLcZ1Zkn5zu0-2" target="IrsivO46pxZ-6Kv6au7V-26" edge="1">
          <mxGeometry width="50" height="50" relative="1" as="geometry">
            <mxPoint x="-891" y="-486" as="sourcePoint" />
            <mxPoint x="-755.3299999999999" y="-482.25" as="targetPoint" />
          </mxGeometry>
        </mxCell>
        <mxCell id="IrsivO46pxZ-6Kv6au7V-25" value="" style="group;strokeWidth=1.5;" parent="IrsivO46pxZ-6Kv6au7V-1" vertex="1" connectable="0">
          <mxGeometry x="-734.73" y="-470" width="110" height="95" as="geometry" />
        </mxCell>
        <mxCell id="IrsivO46pxZ-6Kv6au7V-26" value="" style="shape=image;verticalLabelPosition=bottom;labelBackgroundColor=default;verticalAlign=top;aspect=fixed;imageAspect=0;image=data:image/svg+xml,PHN2ZyB4bWxucz0iaHR0cDovL3d3dy53My5vcmcvMjAwMC9zdmciIGZpbGw9Im5vbmUiIHZpZXdCb3g9IjAgMCAxNiAxNiIgaGVpZ2h0PSIxNiIgd2lkdGg9IjE2Ij4mI3hhOzxnIGNsaXAtcGF0aD0idXJsKCNjbGlwMF8zMTA2XzI3MTAxKSI+JiN4YTs8Y2lyY2xlIHN0cm9rZS13aWR0aD0iMC4yNzM4MDkiIHN0cm9rZT0iI0Q1REFERCIgZmlsbD0idXJsKCNwYWludDBfbGluZWFyXzMxMDZfMjcxMDEpIiByPSI3LjUyOTc0IiBjeT0iNy45OTk4OSIgY3g9IjcuOTk4OTIiLz4mI3hhOzxnIGNsaXAtcGF0aD0idXJsKCNjbGlwMV8zMTA2XzI3MTAxKSI+JiN4YTs8bWFzayBoZWlnaHQ9IjEzIiB3aWR0aD0iMTIiIHk9IjIiIHg9IjIiIG1hc2tVbml0cz0idXNlclNwYWNlT25Vc2UiIHN0eWxlPSJtYXNrLXR5cGU6YWxwaGEiIGlkPSJtYXNrMF8zMTA2XzI3MTAxIj4mI3hhOzxwYXRoIGZpbGw9ImJsYWNrIiBkPSJNOC40MjExOCAxMC43MzMzQzguNjQxMDYgMTEuMzUyNCA5LjI4Njc1IDExLjcwNDcgMTAuMDEwNSAxMS43MDQ3QzEwLjczNDIgMTEuNzA0NyAxMS4zNDY4IDExLjE3OTEgMTEuNTE5NyAxMC43MDdMMTIuODg3NyA2LjkzODQ5QzEzLjE2MDEgNi4xODgwNCAxMi43NzQyIDUuMzU4MjQgMTIuMDI1OCA1LjA4NTFDMTEuMzM3NCA0LjgzMzg5IDEwLjU4MjIgNS4xNDEgMTAuMjUzNCA1Ljc3NTcyQzEwLjIwMTEgNS44OTQwOSAxMC4xNDc1IDYuMDcyMTYgMTAuMjExNiA2LjI2MTc3TDEwLjg5OTYgOC4xNjUzMUMxMC45MzQxIDguMjYwNzUgMTAuODg5NSA4LjM2NjczIDEwLjc5NzIgOC40MDg0NUMxMC42ODMzIDguNDU5OTMgMTAuNTQ2OCA4LjM5MjYzIDEwLjUxNjggOC4yNzEwNkMxMC4yOTc0IDcuMzgyODcgOS41NjI3OCA2LjgxNjE3IDguNjU0NiA3LjE1MDYzQzcuNzQ2NDIgNy40ODUxIDcuNTU1MjEgOC4zNDc3MiA3LjgyNzYzIDkuMDk4MThMOC40MjExOCAxMC43MzMzWiIvPiYjeGE7PHBhdGggZmlsbD0iYmxhY2siIGQ9Ik0zLjQ3MjEzIDYuOTMyNDVDMy4xOTk3MiA2LjE4MTk5IDMuNTg1NjIgNS4zNTIyIDQuMzM0MDYgNS4wNzkwNkM1LjA4MjUxIDQuODA1OTEgNS45MTAwOCA1LjE5Mjg1IDYuMTgyNSA1Ljk0MzMxTDcuNTQ5NzQgOS43MDk4MkM3LjgyMjE1IDEwLjQ2MDMgNy40MzYyNiAxMS4yOTAxIDYuNjg3ODEgMTEuNTYzMkM1LjkzOTM2IDExLjgzNjQgNS4xMTE3OSAxMS40NDk0IDQuODM5MzcgMTAuNjk5TDMuNDcyMTMgNi45MzI0NVoiLz4mI3hhOzwvbWFzaz4mI3hhOzxnIG1hc2s9InVybCgjbWFzazBfMzEwNl8yNzEwMSkiPiYjeGE7PGcgZmlsdGVyPSJ1cmwoI2ZpbHRlcjBfZF8zMTA2XzI3MTAxKSI+JiN4YTs8cGF0aCBmaWxsPSJ1cmwoI3BhaW50MV9yYWRpYWxfMzEwNl8yNzEwMSkiIGQ9Ik02LjYzNDM0IDAuODcxOTU0QzguNjcyNDkgMC4yOTI4MzUgMTEuMDgyMyAxLjI5MTgzIDEyLjU1MTQgMy45Mzg4NEMxNi4zMzM1IDkuMDE5NDkgMTkuNzUzNyAxNC45MTk2IDExLjk2MDkgMTcuNjc2OEM0LjE2ODEzIDIwLjQzNCA0LjM1MDY3IDE0Ljc3ODIgMS43NTIyNSAxMC4wOTY0Qy0wLjg0NjE2NyA1LjQxNDU1IDQuNTk2MTkgMS40NTEwNyA2LjYzNDM0IDAuODcxOTU0WiIvPiYjeGE7PC9nPiYjeGE7PGcgZmlsdGVyPSJ1cmwoI2ZpbHRlcjFfZF8zMTA2XzI3MTAxKSI+JiN4YTs8cGF0aCBmaWxsPSJ1cmwoI3BhaW50Ml9yYWRpYWxfMzEwNl8yNzEwMSkiIGQ9Ik0xMi42NTQyIDEwLjI3OThDMTEuODQ2MiAxMi4wMTA3IDkuNTMyOTggMTQuMDk2MSA3Ljk2MzgxIDE0LjIzNTdDNC43NDYwMyAxNC45MzE0IC0wLjI2MjI1NSAxMS43NDczIDAuMTY2MTEgOS41ODQ4MUMwLjU5NDQ3NSA3LjQyMjM3IDQuNjY1NjUgNi4zNjU5OSA3LjQ1MjY5IDYuMzg5OTNDMTAuMjM5NyA2LjQxMzg4IDEzLjQ2MjEgOC41NDg5NSAxMi42NTQyIDEwLjI3OThaIi8+JiN4YTs8L2c+JiN4YTs8ZyBmaWx0ZXI9InVybCgjZmlsdGVyMl9kXzMxMDZfMjcxMDEpIj4mI3hhOzxwYXRoIGZpbGw9InVybCgjcGFpbnQzX3JhZGlhbF8zMTA2XzI3MTAxKSIgZD0iTTMuMzUzNjEgOC4zOTkzNkM2Ljk2MjAxIDcuNDQ1NTcgMTAuMTEwOSA3LjMwNjg2IDEwLjQ4NjcgMTAuNjg5NkMxMC43OTE3IDEzLjQzNDkgNi45NTY4IDE1LjY1NzggNC4yMTE0NyAxNS45NjI4QzEuNDY2MTQgMTYuMjY3OCAtMC4xMDIyOTYgOS4zMTI4NCAzLjM1MzYxIDguMzk5MzZaIi8+JiN4YTs8L2c+JiN4YTs8L2c+JiN4YTs8L2c+JiN4YTs8L2c+JiN4YTs8ZGVmcz4mI3hhOzxmaWx0ZXIgY29sb3ItaW50ZXJwb2xhdGlvbi1maWx0ZXJzPSJzUkdCIiBmaWx0ZXJVbml0cz0idXNlclNwYWNlT25Vc2UiIGhlaWdodD0iMTkuMDM1MiIgd2lkdGg9IjE2Ljk0MTQiIHk9IjAuMDg1MTI1NCIgeD0iMC42MTQ4MjkiIGlkPSJmaWx0ZXIwX2RfMzEwNl8yNzEwMSI+JiN4YTs8ZmVGbG9vZCByZXN1bHQ9IkJhY2tncm91bmRJbWFnZUZpeCIgZmxvb2Qtb3BhY2l0eT0iMCIvPiYjeGE7PGZlQ29sb3JNYXRyaXggcmVzdWx0PSJoYXJkQWxwaGEiIHZhbHVlcz0iMCAwIDAgMCAwIDAgMCAwIDAgMCAwIDAgMCAwIDAgMCAwIDAgMTI3IDAiIHR5cGU9Im1hdHJpeCIgaW49IlNvdXJjZUFscGhhIi8+JiN4YTs8ZmVPZmZzZXQgZHk9IjAuMDQ0ODQwNCIgZHg9IjAuMjI0MjAyIi8+JiN4YTs8ZmVHYXVzc2lhbkJsdXIgc3RkRGV2aWF0aW9uPSIwLjMzNjMwMyIvPiYjeGE7PGZlQ29tcG9zaXRlIG9wZXJhdG9yPSJvdXQiIGluMj0iaGFyZEFscGhhIi8+JiN4YTs8ZmVDb2xvck1hdHJpeCB2YWx1ZXM9IjAgMCAwIDAgMCAwIDAgMCAwIDAgMCAwIDAgMCAwIDAgMCAwIDAuNCAwIiB0eXBlPSJtYXRyaXgiLz4mI3hhOzxmZUJsZW5kIHJlc3VsdD0iZWZmZWN0MV9kcm9wU2hhZG93XzMxMDZfMjcxMDEiIGluMj0iQmFja2dyb3VuZEltYWdlRml4IiBtb2RlPSJub3JtYWwiLz4mI3hhOzxmZUJsZW5kIHJlc3VsdD0ic2hhcGUiIGluMj0iZWZmZWN0MV9kcm9wU2hhZG93XzMxMDZfMjcxMDEiIGluPSJTb3VyY2VHcmFwaGljIiBtb2RlPSJub3JtYWwiLz4mI3hhOzwvZmlsdGVyPiYjeGE7PGZpbHRlciBjb2xvci1pbnRlcnBvbGF0aW9uLWZpbHRlcnM9InNSR0IiIGZpbHRlclVuaXRzPSJ1c2VyU3BhY2VPblVzZSIgaGVpZ2h0PSI5LjI4ODU3IiB3aWR0aD0iMTMuOTg1MyIgeT0iNS43NjE4OCIgeD0iLTAuMzA4MDIzIiBpZD0iZmlsdGVyMV9kXzMxMDZfMjcxMDEiPiYjeGE7PGZlRmxvb2QgcmVzdWx0PSJCYWNrZ3JvdW5kSW1hZ2VGaXgiIGZsb29kLW9wYWNpdHk9IjAiLz4mI3hhOzxmZUNvbG9yTWF0cml4IHJlc3VsdD0iaGFyZEFscGhhIiB2YWx1ZXM9IjAgMCAwIDAgMCAwIDAgMCAwIDAgMCAwIDAgMCAwIDAgMCAwIDEyNyAwIiB0eXBlPSJtYXRyaXgiIGluPSJTb3VyY2VBbHBoYSIvPiYjeGE7PGZlT2Zmc2V0IGR5PSIwLjA0NDg0MDQiIGR4PSIwLjIyNDIwMiIvPiYjeGE7PGZlR2F1c3NpYW5CbHVyIHN0ZERldmlhdGlvbj0iMC4zMzYzMDMiLz4mI3hhOzxmZUNvbXBvc2l0ZSBvcGVyYXRvcj0ib3V0IiBpbjI9ImhhcmRBbHBoYSIvPiYjeGE7PGZlQ29sb3JNYXRyaXggdmFsdWVzPSIwIDAgMCAwIDAgMCAwIDAgMCAwIDAgMCAwIDAgMCAwIDAgMCAwLjQgMCIgdHlwZT0ibWF0cml4Ii8+JiN4YTs8ZmVCbGVuZCByZXN1bHQ9ImVmZmVjdDFfZHJvcFNoYWRvd18zMTA2XzI3MTAxIiBpbjI9IkJhY2tncm91bmRJbWFnZUZpeCIgbW9kZT0ibm9ybWFsIi8+JiN4YTs8ZmVCbGVuZCByZXN1bHQ9InNoYXBlIiBpbjI9ImVmZmVjdDFfZHJvcFNoYWRvd18zMTA2XzI3MTAxIiBpbj0iU291cmNlR3JhcGhpYyIgbW9kZT0ibm9ybWFsIi8+JiN4YTs8L2ZpbHRlcj4mI3hhOzxmaWx0ZXIgY29sb3ItaW50ZXJwb2xhdGlvbi1maWx0ZXJzPSJzUkdCIiBmaWx0ZXJVbml0cz0idXNlclNwYWNlT25Vc2UiIGhlaWdodD0iOS41MDUzNyIgd2lkdGg9IjEwLjQ3NzgiIHk9IjcuMTg0NDkiIHg9IjAuOTIyOTM0IiBpZD0iZmlsdGVyMl9kXzMxMDZfMjcxMDEiPiYjeGE7PGZlRmxvb2QgcmVzdWx0PSJCYWNrZ3JvdW5kSW1hZ2VGaXgiIGZsb29kLW9wYWNpdHk9IjAiLz4mI3hhOzxmZUNvbG9yTWF0cml4IHJlc3VsdD0iaGFyZEFscGhhIiB2YWx1ZXM9IjAgMCAwIDAgMCAwIDAgMCAwIDAgMCAwIDAgMCAwIDAgMCAwIDEyNyAwIiB0eXBlPSJtYXRyaXgiIGluPSJTb3VyY2VBbHBoYSIvPiYjeGE7PGZlT2Zmc2V0IGR5PSIwLjA0NDg0MDQiIGR4PSIwLjIyNDIwMiIvPiYjeGE7PGZlR2F1c3NpYW5CbHVyIHN0ZERldmlhdGlvbj0iMC4zMzYzMDMiLz4mI3hhOzxmZUNvbXBvc2l0ZSBvcGVyYXRvcj0ib3V0IiBpbjI9ImhhcmRBbHBoYSIvPiYjeGE7PGZlQ29sb3JNYXRyaXggdmFsdWVzPSIwIDAgMCAwIDAgMCAwIDAgMCAwIDAgMCAwIDAgMCAwIDAgMCAwLjQgMCIgdHlwZT0ibWF0cml4Ii8+JiN4YTs8ZmVCbGVuZCByZXN1bHQ9ImVmZmVjdDFfZHJvcFNoYWRvd18zMTA2XzI3MTAxIiBpbjI9IkJhY2tncm91bmRJbWFnZUZpeCIgbW9kZT0ibm9ybWFsIi8+JiN4YTs8ZmVCbGVuZCByZXN1bHQ9InNoYXBlIiBpbjI9ImVmZmVjdDFfZHJvcFNoYWRvd18zMTA2XzI3MTAxIiBpbj0iU291cmNlR3JhcGhpYyIgbW9kZT0ibm9ybWFsIi8+JiN4YTs8L2ZpbHRlcj4mI3hhOzxsaW5lYXJHcmFkaWVudCBncmFkaWVudFVuaXRzPSJ1c2VyU3BhY2VPblVzZSIgeTI9IjE0LjQ2NjgiIHgyPSIxMy40NTAxIiB5MT0iMi41MDk1NyIgeDE9IjEuNzIyNzciIGlkPSJwYWludDBfbGluZWFyXzMxMDZfMjcxMDEiPiYjeGE7PHN0b3Agc3RvcC1jb2xvcj0id2hpdGUiLz4mI3hhOzxzdG9wIHN0b3AtY29sb3I9IiNFQUVDRUUiIG9mZnNldD0iMSIvPiYjeGE7PC9saW5lYXJHcmFkaWVudD4mI3hhOzxyYWRpYWxHcmFkaWVudCBncmFkaWVudFRyYW5zZm9ybT0idHJhbnNsYXRlKDcuMTQyMiAxMC41MTEzKSByb3RhdGUoLTc1LjY1MTMpIHNjYWxlKDE1Ljk3MDUgMTUuNzQ5OCkiIGdyYWRpZW50VW5pdHM9InVzZXJTcGFjZU9uVXNlIiByPSIxIiBjeT0iMCIgY3g9IjAiIGlkPSJwYWludDFfcmFkaWFsXzMxMDZfMjcxMDEiPiYjeGE7PHN0b3Agc3RvcC1jb2xvcj0iIzEzNDhGRiIvPiYjeGE7PHN0b3Agc3RvcC1jb2xvcj0iIzA2MjM4RCIgb2Zmc2V0PSIxIi8+JiN4YTs8L3JhZGlhbEdyYWRpZW50PiYjeGE7PHJhZGlhbEdyYWRpZW50IGdyYWRpZW50VHJhbnNmb3JtPSJ0cmFuc2xhdGUoMy4xOTI5OSA3LjMwMjE1KSByb3RhdGUoMzEuOTgpIHNjYWxlKDE1LjI2ODUgMjcuNTc2KSIgZ3JhZGllbnRVbml0cz0idXNlclNwYWNlT25Vc2UiIHI9IjEiIGN5PSIwIiBjeD0iMCIgaWQ9InBhaW50Ml9yYWRpYWxfMzEwNl8yNzEwMSI+JiN4YTs8c3RvcCBzdG9wLWNvbG9yPSIjMDE5NUZGIi8+JiN4YTs8c3RvcCBzdG9wLWNvbG9yPSIjMTE0N0U5IiBvZmZzZXQ9IjEiLz4mI3hhOzwvcmFkaWFsR3JhZGllbnQ+JiN4YTs8cmFkaWFsR3JhZGllbnQgZ3JhZGllbnRUcmFuc2Zvcm09InRyYW5zbGF0ZSgzLjg2NDM3IDE1LjI1NDIpIHJvdGF0ZSgtNDYuOTU3OSkgc2NhbGUoMTEuNzY0NCAxNi4xODIpIiBncmFkaWVudFVuaXRzPSJ1c2VyU3BhY2VPblVzZSIgcj0iMSIgY3k9IjAiIGN4PSIwIiBpZD0icGFpbnQzX3JhZGlhbF8zMTA2XzI3MTAxIj4mI3hhOzxzdG9wIHN0b3AtY29sb3I9IiMwMEJCRkYiLz4mI3hhOzxzdG9wIHN0b3AtY29sb3I9IiMwMDhCRkYiIG9mZnNldD0iMSIvPiYjeGE7PC9yYWRpYWxHcmFkaWVudD4mI3hhOzxjbGlwUGF0aCBpZD0iY2xpcDBfMzEwNl8yNzEwMSI+JiN4YTs8cmVjdCB0cmFuc2Zvcm09InRyYW5zbGF0ZSgtMC4wMDA5NzY1NjIpIiBmaWxsPSJ3aGl0ZSIgaGVpZ2h0PSIxNS45OTk5IiB3aWR0aD0iMTUuOTk5OSIvPiYjeGE7PC9jbGlwUGF0aD4mI3hhOzxjbGlwUGF0aCBpZD0iY2xpcDFfMzEwNl8yNzEwMSI+JiN4YTs8cmVjdCB0cmFuc2Zvcm09InRyYW5zbGF0ZSgzLjMzMjI4IDMuNSkiIGZpbGw9IndoaXRlIiBoZWlnaHQ9IjkuNjY2NjQiIHdpZHRoPSI5LjY2NjY0Ii8+JiN4YTs8L2NsaXBQYXRoPiYjeGE7PC9kZWZzPiYjeGE7PC9zdmc+;points=[[0,0,0,0,0],[0,0.25,0,0,0],[0,0.5,0,0,0],[0,0.75,0,0,0],[0.25,0,0,0,0],[0.5,0,0,0,0],[0.75,0,0,0,0],[1,0,0,0,0],[1,0.25,0,0,0],[1,0.5,0,0,0],[1,0.75,0,0,0]];strokeWidth=1.5;" parent="IrsivO46pxZ-6Kv6au7V-25" vertex="1">
          <mxGeometry x="30.5" width="49" height="49" as="geometry" />
        </mxCell>
        <mxCell id="IrsivO46pxZ-6Kv6au7V-27" value="&lt;font size=&quot;1&quot; face=&quot;arial&quot; style=&quot;&quot;&gt;&lt;b style=&quot;font-size: 14px;&quot;&gt;SAP Build Work Zone&lt;br&gt;&lt;/b&gt;&lt;/font&gt;" style="text;html=1;align=center;verticalAlign=top;resizable=1;points=[[0,0.5,0,0,0],[0.21,1,0,0,0],[0.5,1,0,0,0],[0.85,1,0,0,0],[1,0.5,0,0,0]];autosize=0;strokeColor=none;fillColor=none;fontSize=12;fontColor=#1D2D3E;fontFamily=Helvetica;fixedWidth=1;imageWidth=24;whiteSpace=wrap;labelBackgroundColor=none;strokeWidth=1.5;" parent="IrsivO46pxZ-6Kv6au7V-25" vertex="1">
          <mxGeometry y="49" width="110" height="46" as="geometry" />
        </mxCell>
        <mxCell id="IrsivO46pxZ-6Kv6au7V-28" value="&lt;font face=&quot;arial&quot;&gt;&lt;span style=&quot;font-size: 12px;&quot;&gt;Multi-Cloud&lt;/span&gt;&lt;/font&gt;" style="text;html=1;align=left;verticalAlign=middle;resizable=0;points=[];autosize=1;strokeColor=none;fillColor=none;fontSize=14;fontColor=#1D2D3E;fontFamily=Helvetica;fontStyle=0" parent="IrsivO46pxZ-6Kv6au7V-1" vertex="1">
          <mxGeometry x="-791" y="-594" width="80" height="30" as="geometry" />
        </mxCell>
        <mxCell id="IrsivO46pxZ-6Kv6au7V-30" value="&lt;font face=&quot;arial&quot; style=&quot;font-size: 16px;&quot;&gt;&lt;b style=&quot;font-size: 16px;&quot;&gt;Subaccount&lt;/b&gt;&lt;/font&gt;" style="text;html=1;align=left;verticalAlign=middle;resizable=0;points=[];autosize=1;strokeColor=none;fillColor=none;fontSize=12;fontColor=#1d2d3e;fontFamily=Helvetica;" parent="IrsivO46pxZ-6Kv6au7V-1" vertex="1">
          <mxGeometry x="-792" y="-616.74" width="120" height="30" as="geometry" />
        </mxCell>
        <mxCell id="6sJW5nIuGnZSfE3EFcpS-1" value="" style="group" parent="IrsivO46pxZ-6Kv6au7V-1" vertex="1" connectable="0">
          <mxGeometry x="-350" y="-330" width="110" height="95" as="geometry" />
        </mxCell>
        <mxCell id="6sJW5nIuGnZSfE3EFcpS-2" value="" style="shape=image;verticalLabelPosition=bottom;verticalAlign=top;imageAspect=0;aspect=fixed;image=data:image/svg+xml,PHN2ZyB4bWxucz0iaHR0cDovL3d3dy53My5vcmcvMjAwMC9zdmciIGZpbGw9Im5vbmUiIHZpZXdCb3g9IjAgMCA0OSA0OSIgaGVpZ2h0PSI0OSIgd2lkdGg9IjQ5Ij4mI3hhOzxjaXJjbGUgc3Ryb2tlLXdpZHRoPSIwLjg1NzE0MyIgc3Ryb2tlPSIjRDVEQUREIiBmaWxsPSJ1cmwoI3BhaW50MF9saW5lYXJfMjYyMl8zMDA5KSIgcj0iMjMuNTcxNCIgY3k9IjI0LjAzNDkiIGN4PSIyNC41Ii8+JiN4YTs8cGF0aCBmaWxsPSJ1cmwoI3BhaW50MV9yYWRpYWxfMjYyMl8zMDA5KSIgZD0iTTE1LjE5NTggMTMuODA0N0MxNC41MzI1IDE0LjQxNDEgMTQuMDE0NCAxNS4yNjE0IDE0IDE2LjMyMzFDMTQgMTYuMzIzMSAxNC4wMzMgMjkuOTk4NiAxNC4wMzMgMjkuOTk1MUwxNC4wMzMgMjkuOTk3QzE0LjAzNDEgMzIuMzgxMyAxNS45ODQyIDMzLjY2OTQgMTcuNzE2NyAzNC4zMDc4QzE4LjI1MTYgMzQuNTA0OSAxOC44Mjg4IDM0LjY2NzEgMTkuNDMzMiAzNC43OTc5QzIwLjM2NzYgMzUuMDAwMiAyMS4yMDQ1IDM0LjI0ODMgMjEuMjA0NSAzMy4yOTIzVjMzLjI5MjNDMjEuMjA0NSAzMi40OTM3IDIwLjYxMTEgMzEuODMxNiAxOS44MzQzIDMxLjY0NjRDMTkuNDU0NSAzMS41NTU4IDE5LjEwMDggMzEuNDUxMiAxOC43NzkgMzEuMzMyN0MxNy4zMjIxIDMwLjc5NTkgMTcuMTQ4NCAzMC4yNDk3IDE3LjE0ODQgMjkuOTk1MUwxNy4xNDY2IDI4LjA1M0MxNy43MDYzIDI4LjIyNDkgMTguMjkzNyAyOC4zNjYxIDE4Ljg4NzEgMjguNDgxN0MxOS4zNTc2IDI4LjU3MzQgMTkuODI5NSAyOC42NDY4IDIwLjMwMzMgMjguNzA1OUMyMC44OTA2IDI4Ljc3OTEgMjEuMzk2MyAyOC4zMDY2IDIxLjM5NjMgMjcuNzE0OVYyNy43MTQ5QzIxLjM5NjMgMjcuMTk1IDIxLjAwMjEgMjYuNzU5NiAyMC40ODY4IDI2LjY5MDdDMjAuMTQ4MiAyNi42NDU1IDE5LjgxMDYgMjYuNTkyMiAxOS40NzM5IDI2LjUyNjZDMTguNDk4NSAyNi4zMzY2IDE3LjcxNDIgMjYuMDk3NyAxNy4xMzkyIDI1Ljg0MjZMMTcuMTM1NiAyMy40NzI1QzE3LjY5ODYgMjMuNjQ2MSAxOC4yODk4IDIzLjc4ODMgMTguODg3MSAyMy45MDQ3QzIwLjUwOTEgMjQuMjIwNyAyMi4zNDc2IDI0LjM3NzMgMjQuMTYzMyAyNC4zODExQzI1Ljk3ODYgMjQuMzg1IDI3LjgxNDIgMjQuMjM2MyAyOS40MjkzIDIzLjkyMTNDMzAuMDA3IDIzLjgwODYgMzAuNTgwMyAyMy42NzAzIDMxLjEyNzggMjMuNTAwNEMzMS4xMjc3IDIzLjU2NjcgMzEuMTI3NiAyMy42MzMxIDMxLjEyNzUgMjMuNjk5NUMzMS4xMjYyIDI0LjU2MjIgMzEuODI2MiAyNS4yNjIyIDMyLjY4ODkgMjUuMjYyMlYyNS4yNjIyQzMzLjU1MSAyNS4yNjIyIDM0LjI0OTggMjQuNTYzMyAzNC4yNDk4IDIzLjcwMTNMMzQuMjQ5NSAxNi4zNDVDMzQuMjQ5NSAxNS4yNjcgMzMuNzIyMSAxNC40MTA2IDMzLjA1MzggMTMuODAwOUMzMi40MDYyIDEzLjIxMDIgMzEuNTYzNSAxMi43ODM2IDMwLjY3ODMgMTIuNDcwM0MyOC44OTg5IDExLjg0MDUgMjYuNTYyMyAxMS41MzQ5IDI0LjEwMSAxMS41MzQ5QzIxLjYzOTggMTEuNTM0OSAxOS4zMTk4IDExLjg0MDQgMTcuNTUzMyAxMi40NzE5QzE2LjY3MzcgMTIuNzg2MyAxNS44Mzg4IDEzLjIxMzkgMTUuMTk1OCAxMy44MDQ3Wk0xNy4xMjM4IDE4Ljg1NDhMMTcuMTI4MSAyMS4zNTU2QzE3LjcwNDEgMjEuNjEyNiAxOC40OTIzIDIxLjg1MzMgMTkuNDczOSAyMi4wNDQ1QzIwLjg3MTYgMjIuMzE2OCAyMi41MTIyIDIyLjQ2MDggMjQuMTY5OSAyMi40NjQzQzI1LjgyOCAyMi40Njc4IDI3LjQ2MDEgMjIuMzMwOCAyOC44NDE5IDIyLjA2MTJDMjkuODEzMiAyMS44NzE4IDMwLjU4MTMgMjEuNjMxOCAzMS4xMzQ2IDIxLjM3NjlWMTguODM4NUMzMC45ODQ1IDE4Ljg5OTkgMzAuODMyMyAxOC45NTc2IDMwLjY3ODggMTkuMDExOUMyOC44OTk0IDE5LjY0MTcgMjYuNTYyOCAxOS45NDczIDI0LjEwMTUgMTkuOTQ3M0MyMS42NjA2IDE5Ljk0NzMgMTkuMzQ2NyAxOS42NDY3IDE3LjU4MDUgMTkuMDI3MUMxNy40MjY3IDE4Ljk3MzIgMTcuMjc0MiAxOC45MTU4IDE3LjEyMzggMTguODU0OFoiIGNsaXAtcnVsZT0iZXZlbm9kZCIgZmlsbC1ydWxlPSJldmVub2RkIi8+JiN4YTs8cGF0aCBmaWxsPSJ1cmwoI3BhaW50Ml9yYWRpYWxfMjYyMl8zMDA5KSIgZD0iTTI2LjEzNjEgMjcuMzE5MkMyNC41Mzg1IDI3LjMxOTIgMjMuMjQzMyAyOC42MTQ0IDIzLjI0MzMgMzAuMjEyMVYzNC42NjI1QzIzLjI0MzMgMzYuMjYwMiAyNC41Mzg1IDM3LjU1NTQgMjYuMTM2MSAzNy41NTU0SDM2LjQxOTZDMzguMDE3MyAzNy41NTU0IDM5LjMxMjUgMzYuMjYwMiAzOS4zMTI1IDM0LjY2MjVWMzAuMjEyMUMzOS4zMTI1IDI4LjYxNDQgMzguMDE3MyAyNy4zMTkyIDM2LjQxOTYgMjcuMzE5MkgyNi4xMzYxWk0zNC40MDc2IDM1LjMzMDNDMzQuMjI0OCAzNS4zMzAzIDM0LjA0MjEgMzUuMjU5NCAzMy45MDAzIDM1LjEyMTRDMzMuNjIwNiAzNC44NDE3IDMzLjYyMDYgMzQuMzg2NiAzMy45MDAzIDM0LjEwNjlMMzUuNTY3NSAzMi40Mzk3TDMzLjkwMDMgMzAuNzY4OEMzMy42MjA2IDMwLjQ4OTEgMzMuNjIwNiAzMC4wMzQxIDMzLjkwMDMgMjkuNzU0M0MzNC4xODAxIDI5LjQ3NDYgMzQuNjM1MSAyOS40NzQ2IDM0LjkxNDggMjkuNzU0M0wzNy4wODkyIDMxLjkyODhDMzcuMjIzNSAzMi4wNjMgMzcuMjk4MSAzMi4yNDU4IDM3LjI5ODEgMzIuNDM2QzM3LjI5ODEgMzIuNjI2MiAzNy4yMjM1IDMyLjgwOSAzNy4wODkyIDMyLjk0MzJMMzQuOTE0OCAzNS4xMTc3QzM0Ljc3MzEgMzUuMjU5NCAzNC41OTAzIDM1LjMzMDMgMzQuNDA3NiAzNS4zMzAzWk0yOC4xNDkxIDM1LjMzMDNDMjcuOTY2NCAzNS4zMzAzIDI3Ljc4MzYgMzUuMjU5NCAyNy42NDE5IDM1LjEyMTRMMjUuNDY3NSAzMi45NDdDMjUuMTg3OCAzMi42NjcyIDI1LjE4NzggMzIuMjEyMiAyNS40Njc1IDMxLjkzMjVMMjcuNjQxOSAyOS43NTgxQzI3LjkyMTYgMjkuNDc4MyAyOC4zNzY3IDI5LjQ3ODMgMjguNjU2NCAyOS43NTgxQzI4LjkzNjEgMzAuMDM3OCAyOC45MzYxIDMwLjQ5MjggMjguNjU2NCAzMC43NzI2TDI2Ljk4NTUgMzIuNDM5N0wyOC42NTI3IDM0LjEwNjlDMjguOTMyNCAzNC4zODY2IDI4LjkzMjQgMzQuODQxNyAyOC42NTI3IDM1LjEyMTRDMjguNTE0NyAzNS4yNTk0IDI4LjMzMTkgMzUuMzMwMyAyOC4xNDkxIDM1LjMzMDNaTTMwLjA1NSAzNS4yMDM1QzMwLjE1MiAzNS4yNDQ1IDMwLjI0OSAzNS4yNjMxIDMwLjM0NTkgMzUuMjYzMUMzMC42MjE5IDM1LjI2MzEgMzAuODgzIDM1LjEwMjcgMzAuOTk4NiAzNC44Mzc5TDMyLjg2MzUgMzAuNjIzNEMzMy4wMjM5IDMwLjI2MTYgMzIuODU5OCAyOS44NDAxIDMyLjQ5OCAyOS42Nzk3QzMyLjEzNjIgMjkuNTE5NCAzMS43MTQ3IDI5LjY4MzUgMzEuNTU0NCAzMC4wNDUzTDI5LjY4OTUgMzQuMjU5OEMyOS41MjkxIDM0LjYyMTYgMjkuNjkzMiAzNS4wNDMxIDMwLjA1NSAzNS4yMDM1WiIgY2xpcC1ydWxlPSJldmVub2RkIiBmaWxsLXJ1bGU9ImV2ZW5vZGQiLz4mI3hhOzxkZWZzPiYjeGE7PGxpbmVhckdyYWRpZW50IGdyYWRpZW50VW5pdHM9InVzZXJTcGFjZU9uVXNlIiB5Mj0iNDQuMjc5MiIgeDI9IjQxLjU2NDUiIHkxPSI2Ljg0Nzc1IiB4MT0iNC44NTI4NyIgaWQ9InBhaW50MF9saW5lYXJfMjYyMl8zMDA5Ij4mI3hhOzxzdG9wIHN0b3AtY29sb3I9IndoaXRlIi8+JiN4YTs8c3RvcCBzdG9wLWNvbG9yPSIjRUFFQ0VFIiBvZmZzZXQ9IjEiLz4mI3hhOzwvbGluZWFyR3JhZGllbnQ+JiN4YTs8cmFkaWFsR3JhZGllbnQgZ3JhZGllbnRUcmFuc2Zvcm09InRyYW5zbGF0ZSgxNy4xNDAyIDE0Ljk5MzIpIHJvdGF0ZSg0OS42MjYzKSBzY2FsZSgyMS42NDM1IDQwLjM2NDEpIiBncmFkaWVudFVuaXRzPSJ1c2VyU3BhY2VPblVzZSIgcj0iMSIgY3k9IjAiIGN4PSIwIiBpZD0icGFpbnQxX3JhZGlhbF8yNjIyXzMwMDkiPiYjeGE7PHN0b3Agc3RvcC1jb2xvcj0iIzAxOTVGRiIvPiYjeGE7PHN0b3Agc3RvcC1jb2xvcj0iIzExNDdFOSIgb2Zmc2V0PSIxIi8+JiN4YTs8L3JhZGlhbEdyYWRpZW50PiYjeGE7PHJhZGlhbEdyYWRpZW50IGdyYWRpZW50VHJhbnNmb3JtPSJ0cmFuc2xhdGUoMjUuNzMxNiAyOC44NTkxKSByb3RhdGUoMzIuNDk3Mikgc2NhbGUoMTMuMjcxNSAxMC45NjAyKSIgZ3JhZGllbnRVbml0cz0idXNlclNwYWNlT25Vc2UiIHI9IjEiIGN5PSIwIiBjeD0iMCIgaWQ9InBhaW50Ml9yYWRpYWxfMjYyMl8zMDA5Ij4mI3hhOzxzdG9wIHN0b3AtY29sb3I9IiMxMzQ4RkYiLz4mI3hhOzxzdG9wIHN0b3AtY29sb3I9IiMwNjIzOEQiIG9mZnNldD0iMSIvPiYjeGE7PC9yYWRpYWxHcmFkaWVudD4mI3hhOzwvZGVmcz4mI3hhOzwvc3ZnPg==;points=[[0,0,0,0,0],[0,0.25,0,0,0],[0,0.5,0,0,0],[0,0.75,0,0,0],[0.25,0,0,0,0],[0.5,0,0,0,0],[0.75,0,0,0,0],[1,0,0,0,0],[1,0.25,0,0,0],[1,0.5,0,0,0],[1,0.75,0,0,0]];" parent="6sJW5nIuGnZSfE3EFcpS-1" vertex="1">
          <mxGeometry x="30.5" width="49" height="49" as="geometry" />
        </mxCell>
        <mxCell id="6sJW5nIuGnZSfE3EFcpS-3" value="&lt;font color=&quot;#1d2d3e&quot; size=&quot;1&quot; face=&quot;arial&quot; style=&quot;&quot;&gt;&lt;b style=&quot;font-size: 14px;&quot;&gt;Application Logging&lt;br&gt;&lt;/b&gt;&lt;/font&gt;" style="text;html=1;align=center;verticalAlign=top;resizable=1;points=[[0,0.5,0,0,0],[0.21,1,0,0,0],[0.5,1,0,0,0],[0.85,1,0,0,0],[1,0.5,0,0,0]];autosize=0;strokeColor=none;fillColor=none;fontSize=12;fontColor=default;fontFamily=Helvetica;fixedWidth=1;imageWidth=24;whiteSpace=wrap;labelBackgroundColor=none;" parent="6sJW5nIuGnZSfE3EFcpS-1" vertex="1">
          <mxGeometry y="49" width="110" height="46" as="geometry" />
        </mxCell>
        <mxCell id="6sJW5nIuGnZSfE3EFcpS-4" value="" style="group" parent="IrsivO46pxZ-6Kv6au7V-1" vertex="1" connectable="0">
          <mxGeometry x="-589.9999999999999" y="-610" width="110" height="95" as="geometry" />
        </mxCell>
        <mxCell id="6sJW5nIuGnZSfE3EFcpS-5" value="" style="shape=image;verticalLabelPosition=bottom;verticalAlign=top;imageAspect=0;aspect=fixed;image=data:image/svg+xml,PHN2ZyB4bWxucz0iaHR0cDovL3d3dy53My5vcmcvMjAwMC9zdmciIGZpbGw9Im5vbmUiIHZpZXdCb3g9IjAgMCA0OSA0OSIgaGVpZ2h0PSI0OSIgd2lkdGg9IjQ5Ij4mI3hhOzxjaXJjbGUgc3Ryb2tlLXdpZHRoPSIwLjg1NzE0MyIgc3Ryb2tlPSIjRDVEQUREIiBmaWxsPSJ1cmwoI3BhaW50MF9saW5lYXJfMjYyMl8yOTMwKSIgcj0iMjMuNTcxNCIgY3k9IjI0LjAzNDkiIGN4PSIyNC41Ii8+JiN4YTs8cGF0aCBmaWxsPSJ1cmwoI3BhaW50MV9yYWRpYWxfMjYyMl8yOTMwKSIgZD0iTTM4LjQyIDI5LjYyNkMzOC44MDY2IDI5LjgwMTcgMzkgMzAuMTAwNSAzOSAzMC41MjIzVjMwLjYyNzhMMzguNzM2MyAzMS43MzVDMzguNjMwOSAzMi4xOTIgMzguMzQ5NyAzMi40MjA1IDM3Ljg5MjcgMzIuNDIwNUgzNy43ODczTDM2LjEgMzIuMTU2OEMzNS43ODM3IDMyLjgyNDcgMzUuMjc0IDMzLjQzOTggMzQuNTcxIDM0LjAwMjNMMzUuMjAzNyAzNS43OTQ5QzM1LjIzODggMzUuODY1MyAzNS4yNTY0IDM1Ljk1MzEgMzUuMjU2NCAzNi4wNTg2QzM1LjI1NjQgMzYuNDgwNCAzNS4wOTgyIDM2Ljc2MTYgMzQuNzgxOSAzNi45MDIyTDMzLjc4MDEgMzcuNDI5NUMzMy42Mzk1IDM3LjQ5OTggMzMuNTM0IDM3LjUzNDkgMzMuNDYzNyAzNy41MzQ5QzMzLjE0NzQgMzcuNTM0OSAzMi45MDEzIDM3LjM3NjcgMzIuNzI1NSAzNy4wNjA0TDMxLjcyMzcgMzUuMzIwNEMzMS41NDggMzUuMzU1NiAzMS4zNTQ3IDM1LjM5MDcgMzEuMTQzOCAzNS40MjU5SDMwLjU2MzhIMzAuMDM2NUMyOS44OTU5IDM1LjM5MDcgMjkuNzM3NyAzNS4zNTU2IDI5LjU2MiAzNS4zMjA0TDI4LjUwNzQgMzcuMTEzMUMyOC4zMzE3IDM3LjM5NDMgMjguMTAzMiAzNy41MzQ5IDI3LjgyMiAzNy41MzQ5QzI3LjY0NjIgMzcuNTM0OSAyNy41MjMyIDM3LjQ5OTggMjcuNDUyOSAzNy40Mjk1TDI2LjQ1MTEgMzYuOTU0OUMyNi4xMzQ4IDM2LjgxNDMgMjUuOTc2NiAzNi41NjgzIDI1Ljk3NjYgMzYuMjE2OEMyNS45NzY2IDM2LjA3NjIgMjUuOTk0MiAzNS45NzA3IDI2LjAyOTMgMzUuOTAwNEwyNi42NjIgMzQuMTA3N0MyNi4wMjkzIDMzLjY1MDcgMjUuNTE5NiAzMy4wNTMyIDI1LjEzMyAzMi4zMTVMMjMuMzQwMyAzMi41Nzg2SDIzLjIzNDhDMjIuNzc3OSAzMi41Nzg2IDIyLjQ5NjYgMzIuMzUwMiAyMi4zOTEyIDMxLjg5MzJMMjIuMTI3NiAzMC43ODZWMzAuNjgwNUMyMi4xMjc2IDMwLjI1ODcgMjIuMzIwOSAyOS45NTk5IDIyLjcwNzYgMjkuNzg0MkwyNC4yMzY2IDI5LjMwOTZWMjkuMDk4N0MyNC4yMzY2IDI4LjIxOTkgMjQuMzk0OCAyNy40MTE1IDI0LjcxMTIgMjYuNjczM0wyMy41NTEyIDI1LjYxODhDMjMuNDQ1NyAyNS41MTMzIDIzLjM1NzggMjUuMzIgMjMuMjg3NSAyNS4wMzg4QzIzLjI4NzUgMjQuNzkyNyAyMy4zNTc4IDI0LjU5OTQgMjMuNDk4NCAyNC40NTg4TDI0LjE4MzkgMjMuNTYyNUMyNC4zNTk2IDIzLjM1MTYgMjQuNTcwNSAyMy4yNDYxIDI0LjgxNjYgMjMuMjQ2MUMyNC45OTI0IDIzLjI0NjEgMjUuMTUwNSAyMy4yOTg4IDI1LjI5MTEgMjMuNDA0M0wyNi41MDM4IDI0LjI0NzlDMjcuMjQyIDIzLjY1MDMgMjguMDUwNSAyMy4yMjg1IDI4LjkyOTMgMjIuOTgyNUwyOS4wMzQ3IDIxLjQ1MzRDMjkuMDY5OSAyMS4yNDI1IDI5LjE1NzcgMjEuMDY2OCAyOS4yOTgzIDIwLjkyNjJDMjkuNDc0MSAyMC43NTA0IDI5LjY2NzQgMjAuNjYyNSAyOS44NzgzIDIwLjY2MjVIMzAuOTg1NkMzMS4yMzE2IDIwLjY2MjUgMzEuNDI1IDIwLjc1MDQgMzEuNTY1NiAyMC45MjYyQzMxLjc0MTMgMjEuMDY2OCAzMS44MjkyIDIxLjI0MjUgMzEuODI5MiAyMS40NTM0TDMxLjkzNDYgMjIuOTI5OEMzMi44MTM0IDIzLjE0MDcgMzMuNjU3IDIzLjUyNzMgMzQuNDY1NSAyNC4wODk3TDM1LjY3ODIgMjMuMjQ2MUMzNS44NTQgMjMuMTQwNyAzNi4wMTIxIDIzLjA4NzkgMzYuMTUyOCAyMy4wODc5QzM2LjQzNCAyMy4wODc5IDM2LjY0NDkgMjMuMTkzNCAzNi43ODU1IDIzLjQwNDNMMzcuNDcwOSAyNC4zMDA2QzM3LjYxMTUgMjQuNDQxMiAzNy42ODE4IDI0LjYzNDYgMzcuNjgxOCAyNC44ODA2QzM3LjY4MTggMjUuMDkxNSAzNy41OTM5IDI1LjI4NDkgMzcuNDE4MiAyNS40NjA2TDM2LjM2MzcgMjYuNTE1MUMzNi41Mzk0IDI2LjkwMTggMzYuNjYyNCAyNy4zMDYgMzYuNzMyNyAyNy43Mjc4QzM2LjgzODIgMjguMTQ5NiAzNi44OTA5IDI4LjYwNjYgMzYuODkwOSAyOS4wOTg3VjI5LjE1MTRMMzguNDIgMjkuNjI2Wk0yNy45ODAyIDMxLjY4MjNDMjcuMjc3MiAzMC45NzkzIDI2LjkyNTcgMzAuMTE4MSAyNi45MjU3IDI5LjA5ODdDMjYuOTI1NyAyOC4wNzkzIDI3LjI3NzIgMjcuMjE4MSAyNy45ODAyIDI2LjUxNTFDMjguNjgzMiAyNS44MTIxIDI5LjU0NDQgMjUuNDYwNiAzMC41NjM4IDI1LjQ2MDZDMzEuNTgzMSAyNS40NjA2IDMyLjQ0NDMgMjUuODEyMSAzMy4xNDc0IDI2LjUxNTFDMzMuODUwNCAyNy4yMTgxIDM0LjIwMTkgMjguMDc5MyAzNC4yMDE5IDI5LjA5ODdDMzQuMjAxOSAzMC4xMTgxIDMzLjg1MDQgMzAuOTc5MyAzMy4xNDc0IDMxLjY4MjNDMzIuNDQ0MyAzMi4zODUzIDMxLjU4MzEgMzIuNzM2OCAzMC41NjM4IDMyLjczNjhDMjkuNTQ0NCAzMi43MzY4IDI4LjY4MzIgMzIuMzg1MyAyNy45ODAyIDMxLjY4MjNaIiBjbGlwLXJ1bGU9ImV2ZW5vZGQiIGZpbGwtcnVsZT0iZXZlbm9kZCIvPiYjeGE7PHBhdGggZmlsbD0idXJsKCNwYWludDJfcmFkaWFsXzI2MjJfMjkzMCkiIGQ9Ik0xOC40MTIgMTYuNzY0OEwxOC40MTIgMTUuNTc2SDE2LjA1QzE1LjMwNDQgMTUuNTc2IDE0LjcgMTYuMTgwNCAxNC43IDE2LjkyNlYyMC4zMzQ3SDIxLjQ2NzlDMjIuMjEzNCAyMC4zMzQ3IDIyLjgxNzkgMjAuOTM5MSAyMi44MTc5IDIxLjY4NDdDMjIuODE3OSAyMi40MzAzIDIyLjIxMzQgMjMuMDM0NyAyMS40Njc5IDIzLjAzNDdIMTQuN1YzMC4xMzQ4QzE0LjcgMzAuODgwNCAxNS4zMDQ0IDMxLjQ4NDggMTYuMDUgMzEuNDg0OEgxNy44NzY2QzE4LjYyMjIgMzEuNDg0OCAxOS4yMjY2IDMyLjA4OTIgMTkuMjI2NiAzMi44MzQ4QzE5LjIyNjYgMzMuNTgwNCAxOC42MjIyIDM0LjE4NDggMTcuODc2NiAzNC4xODQ4SDE2LjA1QzEzLjgxMzIgMzQuMTg0OCAxMiAzMi4zNzE2IDEyIDMwLjEzNDhWMTYuOTI2QzEyIDE0LjY4OTMgMTMuODEzMiAxMi44NzYgMTYuMDUgMTIuODc2SDE4LjQxMkwxOC40MTIgMTEuODYxQzE4LjQxMiAxMS4xMTU0IDE5LjAxNjQgMTAuNTExIDE5Ljc2MiAxMC41MTFDMjAuNTA3NiAxMC41MTEgMjEuMTEyIDExLjExNTQgMjEuMTEyIDExLjg2MUwyMS4xMTIgMTIuODc2SDI1LjYwMDlMMjUuNjAwOSAxMS44NjFDMjUuNjAwOSAxMS4xMTU0IDI2LjIwNTMgMTAuNTExIDI2Ljk1MDkgMTAuNTExQzI3LjY5NjUgMTAuNTExIDI4LjMwMDkgMTEuMTE1NCAyOC4zMDA5IDExLjg2MUwyOC4zMDA5IDEyLjg3NkgzMC41MTUxQzMyLjc1MTggMTIuODc2IDM0LjU2NTEgMTQuNjg5MyAzNC41NjUxIDE2LjkyNlYxOC4wNDEyQzM0LjU2NTEgMTguNzg2OCAzMy45NjA3IDE5LjM5MTIgMzMuMjE1MSAxOS4zOTEyQzMyLjQ2OTUgMTkuMzkxMiAzMS44NjUxIDE4Ljc4NjggMzEuODY1MSAxOC4wNDEyVjE2LjkyNkMzMS44NjUxIDE2LjE4MDQgMzEuMjYwNyAxNS41NzYgMzAuNTE1MSAxNS41NzZIMjguMzAwOUwyOC4zMDA5IDE2Ljc2NDhDMjguMzAwOSAxNy41MTA0IDI3LjY5NjUgMTguMTE0OCAyNi45NTA5IDE4LjExNDhDMjYuMjA1MyAxOC4xMTQ4IDI1LjYwMDkgMTcuNTEwNCAyNS42MDA5IDE2Ljc2NDhMMjUuNjAwOSAxNS41NzZIMjEuMTEyTDIxLjExMiAxNi43NjQ4QzIxLjExMiAxNy41MTA0IDIwLjUwNzYgMTguMTE0OCAxOS43NjIgMTguMTE0OEMxOS4wMTY1IDE4LjExNDggMTguNDEyIDE3LjUxMDQgMTguNDEyIDE2Ljc2NDhaIiBjbGlwLXJ1bGU9ImV2ZW5vZGQiIGZpbGwtcnVsZT0iZXZlbm9kZCIvPiYjeGE7PGRlZnM+JiN4YTs8bGluZWFyR3JhZGllbnQgZ3JhZGllbnRVbml0cz0idXNlclNwYWNlT25Vc2UiIHkyPSI0NC4yNzkyIiB4Mj0iNDEuNTY0NSIgeTE9IjYuODQ3NzUiIHgxPSI0Ljg1Mjg3IiBpZD0icGFpbnQwX2xpbmVhcl8yNjIyXzI5MzAiPiYjeGE7PHN0b3Agc3RvcC1jb2xvcj0id2hpdGUiLz4mI3hhOzxzdG9wIHN0b3AtY29sb3I9IiNFQUVDRUUiIG9mZnNldD0iMSIvPiYjeGE7PC9saW5lYXJHcmFkaWVudD4mI3hhOzxyYWRpYWxHcmFkaWVudCBncmFkaWVudFRyYW5zZm9ybT0idHJhbnNsYXRlKDI0LjgxMjcgMjMuMTk0OCkgcm90YXRlKDQ1KSBzY2FsZSgxNi43MTAxIDIwLjI4KSIgZ3JhZGllbnRVbml0cz0idXNlclNwYWNlT25Vc2UiIHI9IjEiIGN5PSIwIiBjeD0iMCIgaWQ9InBhaW50MV9yYWRpYWxfMjYyMl8yOTMwIj4mI3hhOzxzdG9wIHN0b3AtY29sb3I9IiMwMEJCRkYiLz4mI3hhOzxzdG9wIHN0b3AtY29sb3I9IiMwMDhCRkYiIG9mZnNldD0iMSIvPiYjeGE7PC9yYWRpYWxHcmFkaWVudD4mI3hhOzxyYWRpYWxHcmFkaWVudCBncmFkaWVudFRyYW5zZm9ybT0idHJhbnNsYXRlKDE1LjQ5OTMgMTMuOTg3KSByb3RhdGUoNDYuNjkxMikgc2NhbGUoMjIuNzc2MSA0Mi45NjE0KSIgZ3JhZGllbnRVbml0cz0idXNlclNwYWNlT25Vc2UiIHI9IjEiIGN5PSIwIiBjeD0iMCIgaWQ9InBhaW50Ml9yYWRpYWxfMjYyMl8yOTMwIj4mI3hhOzxzdG9wIHN0b3AtY29sb3I9IiMwMTk1RkYiLz4mI3hhOzxzdG9wIHN0b3AtY29sb3I9IiMxMTQ3RTkiIG9mZnNldD0iMSIvPiYjeGE7PC9yYWRpYWxHcmFkaWVudD4mI3hhOzwvZGVmcz4mI3hhOzwvc3ZnPg==;points=[[0,0,0,0,0],[0,0.25,0,0,0],[0,0.5,0,0,0],[0,0.75,0,0,0],[0.25,0,0,0,0],[0.5,0,0,0,0],[0.75,0,0,0,0],[1,0,0,0,0],[1,0.25,0,0,0],[1,0.5,0,0,0],[1,0.75,0,0,0]];" parent="6sJW5nIuGnZSfE3EFcpS-4" vertex="1">
          <mxGeometry x="30.5" width="49" height="49" as="geometry" />
        </mxCell>
        <mxCell id="6sJW5nIuGnZSfE3EFcpS-6" value="&lt;font color=&quot;#1d2d3e&quot; size=&quot;1&quot; face=&quot;arial&quot; style=&quot;&quot;&gt;&lt;b style=&quot;font-size: 14px;&quot;&gt;Job Scheduling Service&lt;br&gt;&lt;/b&gt;&lt;/font&gt;" style="text;html=1;align=center;verticalAlign=top;resizable=1;points=[[0,0.5,0,0,0],[0.21,1,0,0,0],[0.5,1,0,0,0],[0.85,1,0,0,0],[1,0.5,0,0,0]];autosize=0;strokeColor=none;fillColor=none;fontSize=12;fontColor=default;fontFamily=Helvetica;fixedWidth=1;imageWidth=24;whiteSpace=wrap;labelBackgroundColor=none;" parent="6sJW5nIuGnZSfE3EFcpS-4" vertex="1">
          <mxGeometry y="49" width="110" height="46" as="geometry" />
        </mxCell>
        <mxCell id="6sJW5nIuGnZSfE3EFcpS-7" value="" style="group" parent="IrsivO46pxZ-6Kv6au7V-1" vertex="1" connectable="0">
          <mxGeometry x="-459.9999999999999" y="-330" width="110" height="95" as="geometry" />
        </mxCell>
        <mxCell id="6sJW5nIuGnZSfE3EFcpS-8" value="" style="shape=image;verticalLabelPosition=bottom;verticalAlign=top;imageAspect=0;aspect=fixed;image=data:image/svg+xml,PHN2ZyB4bWxucz0iaHR0cDovL3d3dy53My5vcmcvMjAwMC9zdmciIGZpbGw9Im5vbmUiIHZpZXdCb3g9IjAgMCA0OSA0OSIgaGVpZ2h0PSI0OSIgd2lkdGg9IjQ5Ij4mI3hhOzxjaXJjbGUgc3Ryb2tlLXdpZHRoPSIwLjg1NzE0MyIgc3Ryb2tlPSIjRDVEQUREIiBmaWxsPSJ1cmwoI3BhaW50MF9saW5lYXJfMjYyMl8zMTYyKSIgcj0iMjMuNTcxNCIgY3k9IjI0LjAzNDkiIGN4PSIyNC41Ii8+JiN4YTs8ZyBjbGlwLXBhdGg9InVybCgjY2xpcDBfMjYyMl8zMTYyKSI+JiN4YTs8cGF0aCBmaWxsPSJ1cmwoI3BhaW50MV9yYWRpYWxfMjYyMl8zMTYyKSIgZD0iTTE3LjA4MjQgMTkuNjE4NkMxNi43OTA3IDE1Ljc0MzQgMTkuODk2MiAxMS41MzQ5IDI0LjMzMjcgMTEuNTM0OUMyNy43Njk1IDExLjUzNDkgMzAuMjkxNCAxMy42MTgzIDMxLjQ5NSAxNi44NTE2QzM0LjgzMzIgMTYuNjE4NCAzOC4wMDAxIDE5LjQ1ODEgMzguMDAwMSAyMy41MzU0QzM4LjAwMDEgMjYuMTI4NyAzNi43Njc4IDI4LjA5ODMgMzQuOTg2NyAyOS4yMDE0VjI1Ljc1MTNDMzQuOTg2NyAyNS42Mjg4IDM0Ljk3NTMgMjUuNTMxNiAzNC45NzIxIDI1LjUwMzZDMzQuOTY3IDI1LjQ2MDMgMzQuOTYxNCAyNS40MjM3IDM0Ljk1NzQgMjUuMzk5MkMzNC45NDk0IDI1LjM0OTUgMzQuOTQwNiAyNS4zMDM3IDM0LjkzMzMgMjUuMjY4MUMzNC45MTg2IDI1LjE5NTggMzQuOSAyNS4xMTUxIDM0Ljg3OTcgMjUuMDM2NkMzNC44NjMzIDI0Ljk3MzUgMzQuODI5NiAyNC44NDggMzQuNzc5NyAyNC43MTU2TDM0Ljc3ODIgMjQuNzExNkMzNC43Njk0IDI0LjY4ODIgMzQuNzQ1MSAyNC42MjM0IDM0LjcwMzcgMjQuNTM3MkMzNC4xMzAzIDIzLjAzODkgMzIuNzc3NCAyMi4wNjA0IDMxLjQzOTIgMjEuNDc3NEMyOS45NjU5IDIwLjgzNTUgMjguMTQ2OSAyMC41MDA0IDI2LjIwNTcgMjAuNTAwNEMyNC4yNjYzIDIwLjUwMDQgMjIuNDQ3NyAyMC44MzMgMjAuOTczMiAyMS40NzM2QzE5LjU5ODkgMjIuMDcwNiAxOC4yMTM5IDIzLjA4MTkgMTcuNjYxMyAyNC42NDIzQzE3LjU0MDIgMjQuOTIxMyAxNy40MjQ3IDI1LjMwMDMgMTcuNDI0NyAyNS43NTkzVjMwLjE4NTVIMTYuNTExNkMxMi44Nzc2IDMwLjE4NTUgMTEgMjcuOTUzOSAxMSAyNC44MzQzQzExIDIxLjU2MDQgMTMuMzkxMiAxOC45NzY2IDE3LjA4MjQgMTkuNjE4NloiIGNsaXAtcnVsZT0iZXZlbm9kZCIgZmlsbC1ydWxlPSJldmVub2RkIi8+JiN4YTs8cGF0aCBmaWxsPSJ1cmwoI3BhaW50Ml9yYWRpYWxfMjYyMl8zMTYyKSIgZD0iTTI2LjIwNTcgMjIuNTI1N0MyOS42NTU4IDIyLjUyNTcgMzIuMzM3NCAyMy43MjY0IDMyLjg1NzcgMjUuMzkxNEMzMi44ODM3IDI1LjM2NTQgMzIuOTYxNyAyNS43MDc1IDMyLjk2MTcgMjUuNzUxNlYzNS4wNzcyQzMyLjk2MTcgMzcuMDQ2MyAzMC4wNTYgMzguNTM1MiAyNi4yMDU3IDM4LjUzNTJDMjIuMzU1NCAzOC41MzUyIDE5LjQ0OTcgMzcuMDQ2MyAxOS40NDk3IDM1LjA3NzJWMjUuNzU5NkMxOS40NDk3IDI1LjYyMzUgMTkuNDg5NyAyNS41MDM1IDE5LjU0NTggMjUuMzkxNEMyMC4wNzQxIDIzLjcxODQgMjIuNzU1NyAyMi41MjU3IDI2LjIwNTcgMjIuNTI1N1pNMzEuMzYwOCAyNS45ODM4QzMxLjM2MDggMjUuMjQ3MyAyOS4zMDM2IDI0LjEyNjcgMjYuMjA1NyAyNC4xMjY3QzIzLjEwNzkgMjQuMTI2NyAyMS4wNTA2IDI1LjI0NzMgMjEuMDUwNiAyNS45ODM4QzIxLjA1MDYgMjYuNzIwMiAyMy4xMDc5IDI3Ljg0MDkgMjYuMjA1NyAyNy44NDA5QzI5LjMwMzYgMjcuODQwOSAzMS4zNjA4IDI2LjcyMDIgMzEuMzYwOCAyNS45ODM4Wk0zMS41NTU0IDMwLjA5NzdDMzEuNTU1NCAyOS41Mzg1IDMxLjEwMjEgMjkuMDg1MiAzMC41NDI5IDI5LjA4NTJDMjkuOTgzNyAyOS4wODUyIDI5LjUzMDQgMjkuNTM4NSAyOS41MzA0IDMwLjA5NzdWMzQuNzc3QzI5LjUzMDQgMzUuMzM2MiAyOS45ODM3IDM1Ljc4OTUgMzAuNTQyOSAzNS43ODk1QzMxLjEwMjEgMzUuNzg5NSAzMS41NTU0IDM1LjMzNjIgMzEuNTU1NCAzNC43NzdWMzAuMDk3N1oiIGNsaXAtcnVsZT0iZXZlbm9kZCIgZmlsbC1ydWxlPSJldmVub2RkIi8+JiN4YTs8L2c+JiN4YTs8ZGVmcz4mI3hhOzxsaW5lYXJHcmFkaWVudCBncmFkaWVudFVuaXRzPSJ1c2VyU3BhY2VPblVzZSIgeTI9IjQ0LjI3OTIiIHgyPSI0MS41NjQ1IiB5MT0iNi44NDc3NSIgeDE9IjQuODUyODciIGlkPSJwYWludDBfbGluZWFyXzI2MjJfMzE2MiI+JiN4YTs8c3RvcCBzdG9wLWNvbG9yPSJ3aGl0ZSIvPiYjeGE7PHN0b3Agc3RvcC1jb2xvcj0iI0VBRUNFRSIgb2Zmc2V0PSIxIi8+JiN4YTs8L2xpbmVhckdyYWRpZW50PiYjeGE7PHJhZGlhbEdyYWRpZW50IGdyYWRpZW50VHJhbnNmb3JtPSJ0cmFuc2xhdGUoMTUuMTg3IDE1LjQ5OTQpIHJvdGF0ZSg0NS4zMTgzKSBzY2FsZSgyNi41ODQ1IDUwLjIyOTQpIiBncmFkaWVudFVuaXRzPSJ1c2VyU3BhY2VPblVzZSIgcj0iMSIgY3k9IjAiIGN4PSIwIiBpZD0icGFpbnQxX3JhZGlhbF8yNjIyXzMxNjIiPiYjeGE7PHN0b3Agc3RvcC1jb2xvcj0iIzAxOTVGRiIvPiYjeGE7PHN0b3Agc3RvcC1jb2xvcj0iIzExNDdFOSIgb2Zmc2V0PSIxIi8+JiN4YTs8L3JhZGlhbEdyYWRpZW50PiYjeGE7PHJhZGlhbEdyYWRpZW50IGdyYWRpZW50VHJhbnNmb3JtPSJ0cmFuc2xhdGUoMTUuMTgwOSAxNS41OTY3KSByb3RhdGUoNDUuMDAwMykgc2NhbGUoMjYuNTk4IDI0LjIzNzcpIiBncmFkaWVudFVuaXRzPSJ1c2VyU3BhY2VPblVzZSIgcj0iMSIgY3k9IjAiIGN4PSIwIiBpZD0icGFpbnQyX3JhZGlhbF8yNjIyXzMxNjIiPiYjeGE7PHN0b3Agc3RvcC1jb2xvcj0iIzEzNDhGRiIvPiYjeGE7PHN0b3Agc3RvcC1jb2xvcj0iIzA2MjM4RCIgb2Zmc2V0PSIxIi8+JiN4YTs8L3JhZGlhbEdyYWRpZW50PiYjeGE7PGNsaXBQYXRoIGlkPSJjbGlwMF8yNjIyXzMxNjIiPiYjeGE7PHJlY3QgdHJhbnNmb3JtPSJ0cmFuc2xhdGUoMTEgMTEuNTM0OSkiIGZpbGw9IndoaXRlIiBoZWlnaHQ9IjI3IiB3aWR0aD0iMjciLz4mI3hhOzwvY2xpcFBhdGg+JiN4YTs8L2RlZnM+JiN4YTs8L3N2Zz4=;points=[[0,0,0,0,0],[0,0.25,0,0,0],[0,0.5,0,0,0],[0,0.75,0,0,0],[0.25,0,0,0,0],[0.5,0,0,0,0],[0.75,0,0,0,0],[1,0,0,0,0],[1,0.25,0,0,0],[1,0.5,0,0,0],[1,0.75,0,0,0]];" parent="6sJW5nIuGnZSfE3EFcpS-7" vertex="1">
          <mxGeometry x="30.5" width="49" height="49" as="geometry" />
        </mxCell>
        <mxCell id="6sJW5nIuGnZSfE3EFcpS-9" value="&lt;font color=&quot;#1d2d3e&quot; size=&quot;1&quot; face=&quot;arial&quot; style=&quot;&quot;&gt;&lt;b style=&quot;font-size: 14px;&quot;&gt;SAP HANA Cloud&lt;br&gt;&lt;/b&gt;&lt;/font&gt;" style="text;html=1;align=center;verticalAlign=top;resizable=1;points=[[0,0.5,0,0,0],[0.21,1,0,0,0],[0.5,1,0,0,0],[0.85,1,0,0,0],[1,0.5,0,0,0]];autosize=0;strokeColor=none;fillColor=none;fontSize=12;fontColor=default;fontFamily=Helvetica;fixedWidth=1;imageWidth=24;whiteSpace=wrap;labelBackgroundColor=none;" parent="6sJW5nIuGnZSfE3EFcpS-7" vertex="1">
          <mxGeometry y="49" width="110" height="46" as="geometry" />
        </mxCell>
        <mxCell id="6sJW5nIuGnZSfE3EFcpS-10" value="" style="group" parent="IrsivO46pxZ-6Kv6au7V-1" vertex="1" connectable="0">
          <mxGeometry x="-460" y="-470" width="110" height="95" as="geometry" />
        </mxCell>
        <mxCell id="6sJW5nIuGnZSfE3EFcpS-11" value="" style="shape=image;verticalLabelPosition=bottom;verticalAlign=top;imageAspect=0;aspect=fixed;image=data:image/svg+xml,PHN2ZyB4bWxucz0iaHR0cDovL3d3dy53My5vcmcvMjAwMC9zdmciIGZpbGw9Im5vbmUiIHZpZXdCb3g9IjAgMCA0OSA0OSIgaGVpZ2h0PSI0OSIgd2lkdGg9IjQ5Ij4mI3hhOzxnIGNsaXAtcGF0aD0idXJsKCNjbGlwMF8yNjIyXzM1NjgpIj4mI3hhOzxjaXJjbGUgc3Ryb2tlLXdpZHRoPSIwLjg1NzE0MyIgc3Ryb2tlPSIjRDVEQUREIiBmaWxsPSJ1cmwoI3BhaW50MF9saW5lYXJfMjYyMl8zNTY4KSIgcj0iMjMuNTcxNCIgY3k9IjI0LjAzNDkiIGN4PSIyNC41Ii8+JiN4YTs8ZyBjbGlwLXBhdGg9InVybCgjY2xpcDFfMjYyMl8zNTY4KSI+JiN4YTs8cGF0aCBmaWxsPSJ1cmwoI3BhaW50MV9yYWRpYWxfMjYyMl8zNTY4KSIgZD0iTTE3LjE3MTggMTkuODE2M0gxMy43OTY4QzEzLjU3MyAxOS44MTYzIDEzLjM1ODQgMTkuNzI3NCAxMy4yMDAyIDE5LjU2OTJDMTMuMDQyIDE5LjQxMDkgMTIuOTUzMSAxOS4xOTYzIDEyLjk1MzEgMTguOTcyNUMxMi45NTMxIDE4Ljc0ODggMTMuMDQyIDE4LjUzNDEgMTMuMjAwMiAxOC4zNzU5QzEzLjM1ODQgMTguMjE3NyAxMy41NzMgMTguMTI4OCAxMy43OTY4IDE4LjEyODhIMTcuMTcxOEMxNy4zOTU2IDE4LjEyODggMTcuNjEwMiAxOC4yMTc3IDE3Ljc2ODQgMTguMzc1OUMxNy45MjY3IDE4LjUzNDEgMTguMDE1NiAxOC43NDg4IDE4LjAxNTYgMTguOTcyNUMxOC4wMTU2IDE5LjE5NjMgMTcuOTI2NyAxOS40MTA5IDE3Ljc2ODQgMTkuNTY5MkMxNy42MTAyIDE5LjcyNzQgMTcuMzk1NiAxOS44MTYzIDE3LjE3MTggMTkuODE2M1pNMTUuNDg0NCAyNC44Nzg4SDEyLjEwOTRDMTEuODg1NiAyNC44Nzg4IDExLjY3MSAyNC43ODk5IDExLjUxMjggMjQuNjMxN0MxMS4zNTQ1IDI0LjQ3MzQgMTEuMjY1NiAyNC4yNTg4IDExLjI2NTYgMjQuMDM1QzExLjI2NTYgMjMuODExMyAxMS4zNTQ1IDIzLjU5NjYgMTEuNTEyOCAyMy40Mzg0QzExLjY3MSAyMy4yODAyIDExLjg4NTYgMjMuMTkxMyAxMi4xMDk0IDIzLjE5MTNIMTUuNDg0NEMxNS43MDgyIDIzLjE5MTMgMTUuOTIyOCAyMy4yODAyIDE2LjA4MSAyMy40Mzg0QzE2LjIzOTIgMjMuNTk2NiAxNi4zMjgxIDIzLjgxMTMgMTYuMzI4MSAyNC4wMzVDMTYuMzI4MSAyNC4yNTg4IDE2LjIzOTIgMjQuNDczNCAxNi4wODEgMjQuNjMxN0MxNS45MjI4IDI0Ljc4OTkgMTUuNzA4MiAyNC44Nzg4IDE1LjQ4NDQgMjQuODc4OFpNMTUuNDU1NiAyOS45NDEzSDE3LjE3MThDMTcuMzk1NiAyOS45NDEzIDE3LjYxMDIgMjkuODUyNCAxNy43Njg0IDI5LjY5NDJDMTcuOTI2NyAyOS41MzU5IDE4LjAxNTYgMjkuMzIxMyAxOC4wMTU2IDI5LjA5NzVDMTguMDE1NiAyOC44NzM4IDE3LjkyNjcgMjguNjU5MSAxNy43Njg0IDI4LjUwMDlDMTcuNjEwMiAyOC4zNDI3IDE3LjM5NTYgMjguMjUzOCAxNy4xNzE4IDI4LjI1MzhIMTUuNDU1NkMxNS4yMzE5IDI4LjI1MzggMTUuMDE3MyAyOC4zNDI3IDE0Ljg1OSAyOC41MDA5QzE0LjcwMDggMjguNjU5MSAxNC42MTE5IDI4Ljg3MzggMTQuNjExOSAyOS4wOTc1QzE0LjYxMTkgMjkuMzIxMyAxNC43MDA4IDI5LjUzNTkgMTQuODU5IDI5LjY5NDJDMTUuMDE3MyAyOS44NTI0IDE1LjIzMTkgMjkuOTQxMyAxNS40NTU2IDI5Ljk0MTNaIiBjbGlwLXJ1bGU9ImV2ZW5vZGQiIGZpbGwtcnVsZT0iZXZlbm9kZCIvPiYjeGE7PHBhdGggZmlsbD0idXJsKCNwYWludDJfcmFkaWFsXzI2MjJfMzU2OCkiIGQ9Ik0xOS4yODI5IDIxLjUwMzlIMjAuMzg5OUwyMC44NjU4IDIwLjM2MzJMMjAuMDc0NCAxOS41NzE3QzE5Ljg0MzQgMTkuMzI1NCAxOS43MTU5IDE4Ljk5OTggMTkuNzE4MyAxOC42NjIyQzE5LjcxNDggMTguNTAwNCAxOS43NDQ3IDE4LjMzOTYgMTkuODA1OSAxOC4xODk4QzE5Ljg2NzIgMTguMDQgMTkuOTU4NSAxNy45MDQ0IDIwLjA3NDQgMTcuNzkxNEwyMS44ODY3IDE1Ljk2NzJDMjEuOTk5NyAxNS44NTE0IDIyLjEzNTMgMTUuNzYgMjIuMjg1MSAxNS42OTg4QzIyLjQzNDkgMTUuNjM3NSAyMi41OTU3IDE1LjYwNzcgMjIuNzU3NSAxNS42MTEyQzIyLjkyNTQgMTUuNjA1NCAyMy4wOTI2IDE1LjYzNCAyMy4yNDkxIDE1LjY5NTJDMjMuNDA1NSAxNS43NTY0IDIzLjU0NzcgMTUuODQ5IDIzLjY2NyAxNS45NjcyTDI0LjQ1NjggMTYuNzU4N0wyNS42MDQzIDE2LjI4MjhWMTUuMTc1OEMyNS41OTc2IDE1LjAwNzggMjUuNjI1OCAxNC44NDAzIDI1LjY4NzEgMTQuNjgzN0MyNS43NDgzIDE0LjUyNzEgMjUuODQxMyAxNC4zODQ5IDI1Ljk2MDIgMTQuMjY2MUMyNi4wNzkxIDE0LjE0NzIgMjYuMjIxMyAxNC4wNTQyIDI2LjM3NzggMTMuOTkyOUMyNi41MzQ0IDEzLjkzMTcgMjYuNzAxOSAxMy45MDM1IDI2Ljg2OTkgMTMuOTEwMkgyOS40MDEyQzI5LjU2OTIgMTMuOTAzNSAyOS43MzY3IDEzLjkzMTcgMjkuODkzMyAxMy45OTI5QzMwLjA0OTggMTQuMDU0MiAzMC4xOTIgMTQuMTQ3MiAzMC4zMTA5IDE0LjI2NjFDMzAuNDI5OCAxNC4zODQ5IDMwLjUyMjggMTQuNTI3MSAzMC41ODQgMTQuNjgzN0MzMC42NDUzIDE0Ljg0MDMgMzAuNjczNCAxNS4wMDc4IDMwLjY2NjggMTUuMTc1OFYxNi4yODI4TDMxLjgxNDMgMTYuNzU4N0wzMi42MDU3IDE1Ljk2NzJDMzIuNzI0OCAxNS44NDg3IDMyLjg2NyAxNS43NTU5IDMzLjAyMzUgMTUuNjk0NkMzMy4xOCAxNS42MzM0IDMzLjM0NzQgMTUuNjA1IDMzLjUxNTMgMTUuNjExMkMzMy42NzY4IDE1LjYwNzkgMzMuODM3MiAxNS42Mzc5IDMzLjk4NjcgMTUuNjk5MUMzNC4xMzYyIDE1Ljc2MDQgMzQuMjcxNSAxNS44NTE2IDM0LjM4NDQgMTUuOTY3MkwzNi4yMTg3IDE3Ljc4NjRDMzYuMzM0NSAxNy44OTk0IDM2LjQyNTkgMTguMDM1IDM2LjQ4NzEgMTguMTg0OEMzNi41NDg0IDE4LjMzNDUgMzYuNTc4MiAxOC40OTUzIDM2LjU3NDcgMTguNjU3MUMzNi41NzcxIDE4Ljk5NDcgMzYuNDQ5NiAxOS4zMjA0IDM2LjIxODcgMTkuNTY2N0wzNS40Mjg5IDIwLjM1ODFMMzUuOTAzMSAyMS41MDM5SDM3QzM3LjE2OCAyMS40OTczIDM3LjMzNTUgMjEuNTI1NCAzNy40OTIxIDIxLjU4NjdDMzcuNjQ4NiAyMS42NDc5IDM3Ljc5MDggMjEuNzQwOSAzNy45MDk3IDIxLjg1OThDMzguMDI4NiAyMS45Nzg3IDM4LjEyMTYgMjIuMTIwOSAzOC4xODI4IDIyLjI3NzRDMzguMjQ0MSAyMi40MzQgMzguMjcyMyAyMi42MDE2IDM4LjI2NTYgMjIuNzY5NVYyNS4zMDA4QzM4LjI2OTMgMjUuNDY0NyAzOC4yNDA2IDI1LjYyNzggMzguMTgxMyAyNS43ODA3QzM4LjEyMTkgMjUuOTMzNiAzOC4wMzMgMjYuMDczMyAzNy45MTk3IDI2LjE5MThDMzcuODAzMSAyNi4zMTUgMzcuNjYxOCAyNi40MTIgMzcuNTA1IDI2LjQ3NjZDMzcuMzQ4MyAyNi41NDEyIDM3LjE3OTYgMjYuNTcxOCAzNy4wMTAxIDI2LjU2NjRIMzUuOTAzMUwzNS40MjA1IDI3LjcwNzJMMzYuMjEwMiAyOC40OTg2QzM2LjQzODggMjguNzM4NiAzNi41NjYyIDI5LjA1NzMgMzYuNTY2MiAyOS4zODg4QzM2LjU2NjIgMjkuNzIwMiAzNi40Mzg4IDMwLjAzODkgMzYuMjEwMiAzMC4yNzg5TDM0LjM5MTEgMzIuMTExNUMzNC4yNzgzIDMyLjIyNzIgMzQuMTQzIDMyLjMxODQgMzMuOTkzNSAzMi4zNzk3QzMzLjg0NCAzMi40NDA5IDMzLjY4MzUgMzIuNDcwOCAzMy41MjIgMzIuNDY3NkMzMy4zNTQxIDMyLjQ3MzggMzMuMTg2NyAzMi40NDU0IDMzLjAzMDIgMzIuMzg0MUMzMi44NzM4IDMyLjMyMjkgMzIuNzMxNiAzMi4yMzAxIDMyLjYxMjUgMzIuMTExNUwzMS44MjEgMzEuMjgxM0wzMC42NzM1IDMxLjc4NzVWMzIuODk2MkMzMC42NzU2IDMzLjA2MDYgMzAuNjQ1MyAzMy4yMjM4IDMwLjU4NDIgMzMuMzc2NEMzMC41MjMxIDMzLjUyOSAzMC40MzI0IDMzLjY2OCAzMC4zMTc1IDMzLjc4NTVDMzAuMjAwOSAzMy45MDg3IDMwLjA1OTYgMzQuMDA1OCAyOS45MDI5IDM0LjA3MDRDMjkuNzQ2MSAzNC4xMzQ5IDI5LjU3NzQgMzQuMTY1NSAyOS40MDc5IDM0LjE2MDJIMjYuODc2N0MyNi43MDcyIDM0LjE2NDMgMjYuNTM4OSAzNC4xMzI1IDI2LjM4MjcgMzQuMDY2N0MyNi4yMjY0IDM0LjAwMSAyNi4wODYgMzMuOTAyOCAyNS45NzA1IDMzLjc3ODhDMjUuODU1NSAzMy42NjEzIDI1Ljc2NDkgMzMuNTIyMiAyNS43MDM4IDMzLjM2OTZDMjUuNjQyNyAzMy4yMTcgMjUuNjEyMyAzMy4wNTM5IDI1LjYxNDQgMzIuODg5NVYzMS43ODA4TDI0LjQ2NjkgMzEuMjc0NUwyMy42NzcyIDMyLjEwNDhDMjMuNTU3OCAzMi4yMjMgMjMuNDE1NiAzMi4zMTU2IDIzLjI1OTIgMzIuMzc2OEMyMy4xMDI4IDMyLjQzODEgMjIuOTM1NSAzMi40NjY3IDIyLjc2NzYgMzIuNDYwOUMyMi42MDU4IDMyLjQ2NDMgMjIuNDQ1IDMyLjQzNDUgMjIuMjk1MyAzMi4zNzMyQzIyLjE0NTUgMzIuMzEyIDIyLjAwOTkgMzIuMjIwNiAyMS44OTY5IDMyLjEwNDhMMjAuMDcyNyAzMC4yODU3QzE5Ljg0NDEgMzAuMDQ1NiAxOS43MTY3IDI5LjcyNjkgMTkuNzE2NyAyOS4zOTU1QzE5LjcxNjcgMjkuMDY0MSAxOS44NDQxIDI4Ljc0NTQgMjAuMDcyNyAyOC41MDU0TDIwLjg2NDEgMjcuNzEzOUwyMC4zODgyIDI2LjU2NjRIMTkuMjgxMkMxOS4xMTE3IDI2LjU3MTkgMTguOTQzIDI2LjU0MTMgMTguNzg2MiAyNi40NzY4QzE4LjYyOTQgMjYuNDEyMiAxOC40ODgxIDI2LjMxNSAxOC4zNzE3IDI2LjE5MThDMTguMjU2NSAyNi4wNzQxIDE4LjE2NTggMjUuOTM0OCAxOC4xMDQ2IDI1Ljc4MTlDMTguMDQzNSAyNS42Mjg5IDE4LjAxMzMgMjUuNDY1NCAxOC4wMTU2IDI1LjMwMDhWMjIuNzY5NUMxOC4wMDg5IDIyLjYwMTQgMTguMDM3MiAyMi40MzM3IDE4LjA5ODUgMjIuMjc3QzE4LjE1OTkgMjIuMTIwNCAxOC4yNTMgMjEuOTc4MSAxOC4zNzIxIDIxLjg1OTJDMTguNDkxMSAyMS43NDAzIDE4LjYzMzUgMjEuNjQ3MyAxOC43OTAzIDIxLjU4NjJDMTguOTQ3MSAyMS41MjUgMTkuMTE0OCAyMS40OTcgMTkuMjgyOSAyMS41MDM5Wk0yNS42OTcxIDI3LjI3MDJDMjUuNzk4NCAyNy4zNjE1IDI1LjkzMDMgMjcuNDExNSAyNi4wNjY3IDI3LjQxMDNDMjYuMTY0OSAyNy40MDkgMjYuMjYxNCAyNy4zODQ4IDI2LjM0ODUgMjcuMzM5NEwzMi4wMDg0IDI0LjU5NzJDMzIuMDkzMSAyNC41NTA0IDMyLjE2MzggMjQuNDgxNyAzMi4yMTMgMjQuMzk4M0MzMi4yNjIyIDI0LjMxNDkgMzIuMjg4MiAyNC4yMTk5IDMyLjI4ODIgMjQuMTIzQzMyLjI4ODIgMjQuMDI2MiAzMi4yNjIyIDIzLjkzMTEgMzIuMjEzIDIzLjg0NzdDMzIuMTYzOCAyMy43NjQzIDMyLjA5MzEgMjMuNjk1NyAzMi4wMDg0IDIzLjY0ODlMMjYuMzQ4NSAyMC43MzEyQzI2LjI2MTQgMjAuNjg1OCAyNi4xNjQ5IDIwLjY2MTUgMjYuMDY2NyAyMC42NjAzQzI1Ljk5NzUgMjAuNjYwMSAyNS45MjkgMjAuNjc0IDI1Ljg2NTUgMjAuNzAxM0MyNS44MDE5IDIwLjcyODYgMjUuNzQ0NiAyMC43Njg2IDI1LjY5NzEgMjAuODE4OUMyNS42NDQ3IDIwLjg3MTggMjUuNjAzNSAyMC45MzQ5IDI1LjU3NjMgMjEuMDA0MkMyNS41NDkgMjEuMDczNiAyNS41MzYxIDIxLjE0NzggMjUuNTM4NSAyMS4yMjIyVjI2Ljg4MzhDMjUuNTM1MSAyNi45NTU5IDI1LjU0NzYgMjcuMDI3OCAyNS41NzUgMjcuMDk0NkMyNS42MDI0IDI3LjE2MTMgMjUuNjQ0MSAyNy4yMjEzIDI1LjY5NzEgMjcuMjcwMloiIGNsaXAtcnVsZT0iZXZlbm9kZCIgZmlsbC1ydWxlPSJldmVub2RkIi8+JiN4YTs8L2c+JiN4YTs8L2c+JiN4YTs8ZGVmcz4mI3hhOzxsaW5lYXJHcmFkaWVudCBncmFkaWVudFVuaXRzPSJ1c2VyU3BhY2VPblVzZSIgeTI9IjQ0LjI3OTIiIHgyPSI0MS41NjQ1IiB5MT0iNi44NDc3NSIgeDE9IjQuODUyODciIGlkPSJwYWludDBfbGluZWFyXzI2MjJfMzU2OCI+JiN4YTs8c3RvcCBzdG9wLWNvbG9yPSJ3aGl0ZSIvPiYjeGE7PHN0b3Agc3RvcC1jb2xvcj0iI0VBRUNFRSIgb2Zmc2V0PSIxIi8+JiN4YTs8L2xpbmVhckdyYWRpZW50PiYjeGE7PHJhZGlhbEdyYWRpZW50IGdyYWRpZW50VHJhbnNmb3JtPSJ0cmFuc2xhdGUoMTIuMzEwOCAxOS45MDU4KSByb3RhdGUoNjAuMjU1MSkgc2NhbGUoOS40NzY5MyA3LjQ0MDIxKSIgZ3JhZGllbnRVbml0cz0idXNlclNwYWNlT25Vc2UiIHI9IjEiIGN5PSIwIiBjeD0iMCIgaWQ9InBhaW50MV9yYWRpYWxfMjYyMl8zNTY4Ij4mI3hhOzxzdG9wIHN0b3AtY29sb3I9IiMxMzQ4RkYiLz4mI3hhOzxzdG9wIHN0b3AtY29sb3I9IiMwNjIzOEQiIG9mZnNldD0iMSIvPiYjeGE7PC9yYWRpYWxHcmFkaWVudD4mI3hhOzxyYWRpYWxHcmFkaWVudCBncmFkaWVudFRyYW5zZm9ybT0idHJhbnNsYXRlKDIxLjE1NTIgMTYuODgyNykgcm90YXRlKDQ1LjMxNzYpIHNjYWxlKDE5LjkzOTkgMzcuNjc1KSIgZ3JhZGllbnRVbml0cz0idXNlclNwYWNlT25Vc2UiIHI9IjEiIGN5PSIwIiBjeD0iMCIgaWQ9InBhaW50Ml9yYWRpYWxfMjYyMl8zNTY4Ij4mI3hhOzxzdG9wIHN0b3AtY29sb3I9IiMwMTk1RkYiLz4mI3hhOzxzdG9wIHN0b3AtY29sb3I9IiMxMTQ3RTkiIG9mZnNldD0iMSIvPiYjeGE7PC9yYWRpYWxHcmFkaWVudD4mI3hhOzxjbGlwUGF0aCBpZD0iY2xpcDBfMjYyMl8zNTY4Ij4mI3hhOzxyZWN0IHRyYW5zZm9ybT0idHJhbnNsYXRlKDAuNSAwLjAzNDkxMjEpIiBmaWxsPSJ3aGl0ZSIgaGVpZ2h0PSI0OCIgd2lkdGg9IjQ4Ii8+JiN4YTs8L2NsaXBQYXRoPiYjeGE7PGNsaXBQYXRoIGlkPSJjbGlwMV8yNjIyXzM1NjgiPiYjeGE7PHJlY3QgdHJhbnNmb3JtPSJ0cmFuc2xhdGUoMTEuMjY2MSAxMC41MzQ5KSIgZmlsbD0id2hpdGUiIGhlaWdodD0iMjciIHdpZHRoPSIyNyIvPiYjeGE7PC9jbGlwUGF0aD4mI3hhOzwvZGVmcz4mI3hhOzwvc3ZnPg==;points=[[0,0,0,0,0],[0,0.25,0,0,0],[0,0.5,0,0,0],[0,0.75,0,0,0],[0.25,0,0,0,0],[0.5,0,0,0,0],[0.75,0,0,0,0],[1,0,0,0,0],[1,0.25,0,0,0],[1,0.5,0,0,0],[1,0.75,0,0,0]];" parent="6sJW5nIuGnZSfE3EFcpS-10" vertex="1">
          <mxGeometry x="30.5" width="49" height="49" as="geometry" />
        </mxCell>
        <mxCell id="6sJW5nIuGnZSfE3EFcpS-12" value="&lt;font color=&quot;#1d2d3e&quot; size=&quot;1&quot; face=&quot;arial&quot; style=&quot;&quot;&gt;&lt;b style=&quot;font-size: 14px;&quot;&gt;Cloud Foundry Runtime&lt;br&gt;&lt;/b&gt;&lt;/font&gt;" style="text;html=1;align=center;verticalAlign=top;resizable=1;points=[[0,0.5,0,0,0],[0.21,1,0,0,0],[0.5,1,0,0,0],[0.85,1,0,0,0],[1,0.5,0,0,0]];autosize=0;strokeColor=none;fillColor=none;fontSize=12;fontColor=default;fontFamily=Helvetica;fixedWidth=1;imageWidth=24;whiteSpace=wrap;labelBackgroundColor=none;" parent="6sJW5nIuGnZSfE3EFcpS-10" vertex="1">
          <mxGeometry y="49" width="110" height="46" as="geometry" />
        </mxCell>
        <mxCell id="6sJW5nIuGnZSfE3EFcpS-13" value="" style="group" parent="IrsivO46pxZ-6Kv6au7V-1" vertex="1" connectable="0">
          <mxGeometry x="-786.36" y="-330" width="110" height="95.00000000000011" as="geometry" />
        </mxCell>
        <mxCell id="6sJW5nIuGnZSfE3EFcpS-14" value="" style="shape=image;verticalLabelPosition=bottom;verticalAlign=top;imageAspect=0;aspect=fixed;image=data:image/svg+xml,PHN2ZyB4bWxucz0iaHR0cDovL3d3dy53My5vcmcvMjAwMC9zdmciIGZpbGw9Im5vbmUiIHZpZXdCb3g9IjAgMCA0OSA0OSIgaGVpZ2h0PSI0OSIgd2lkdGg9IjQ5Ij4mI3hhOzxnIGNsaXAtcGF0aD0idXJsKCNjbGlwMF8yNjIyXzM2NTQpIj4mI3hhOzxjaXJjbGUgc3Ryb2tlLXdpZHRoPSIwLjg1NzE0MyIgc3Ryb2tlPSIjRDVEQUREIiBmaWxsPSJ1cmwoI3BhaW50MF9saW5lYXJfMjYyMl8zNjU0KSIgcj0iMjMuNTcxNCIgY3k9IjI0LjAzNDkiIGN4PSIyNC41Ii8+JiN4YTs8ZyBjbGlwLXBhdGg9InVybCgjY2xpcDFfMjYyMl8zNjU0KSI+JiN4YTs8cGF0aCBmaWxsPSJ1cmwoI3BhaW50MV9yYWRpYWxfMjYyMl8zNjU0KSIgZD0iTTIzLjU5OTUgMTMuOTg0OUMyMC41MTU1IDEzLjk4NDkgMTguMjA3MSAxNi45NzU4IDE4LjQyMDQgMTkuODA4OUMxOC40NTE2IDIwLjIyNCAxOC4yODk2IDIwLjYzMDMgMTcuOTgxMyAyMC45MUMxNy42NzMgMjEuMTg5NyAxNy4yNTMgMjEuMzExNiAxNi44NDI4IDIxLjI0MDJDMTUuNTU2NyAyMS4wMTY2IDE0LjYyMjQgMjEuMzYxMyAxNC4wMDU2IDIxLjkyOUMxMy4zNjc3IDIyLjUxNjEgMTIuOTUgMjMuNDU0MSAxMi45NSAyNC42MDQ0QzEyLjk1IDI1Ljc0MDUgMTMuMjg4MSAyNi41NzY3IDEzLjgyMDYgMjcuMTIzMUMxNC4zNDU4IDI3LjY2MjEgMTUuMjA3NCAyOC4wNzA0IDE2LjU2MDQgMjguMDcwNEgxOS43NTg0QzIwLjUwNCAyOC4wNzA0IDIxLjEwODQgMjguNjc0OCAyMS4xMDg0IDI5LjQyMDRDMjEuMTA4NCAzMC4xNjYgMjAuNTA0IDMwLjc3MDQgMTkuNzU4NCAzMC43NzA0SDE2LjU2MDRDMTQuNjQyOSAzMC43NzA0IDEzLjAyNDIgMzAuMTc0NSAxMS44ODY5IDI5LjAwNzRDMTAuNzU2OCAyNy44NDc4IDEwLjI1IDI2LjI3NiAxMC4yNSAyNC42MDQ0QzEwLjI1IDIyLjgwODIgMTAuOTA4MyAyMS4xMTAyIDEyLjE3NyAxOS45NDI0QzEzLjEzMTkgMTkuMDYzNiAxNC4zNjc5IDE4LjU0NTMgMTUuNzcxNSAxOC40NzkxQzE2LjI0NDIgMTQuODE1MiAxOS4yOTc4IDExLjI4NDkgMjMuNTk5NSAxMS4yODQ5QzI2Ljk4OSAxMS4yODQ5IDI5LjUzMSAxMy4xNzg2IDMwLjkwODIgMTYuMDA3OEMzMy40MTY0IDE2LjAyODMgMzUuNzU0OSAxNy40OTUgMzYuNTQ2NCAyMC4zMzE0QzM2Ljc0NjggMjEuMDQ5NiAzNi4zMjcxIDIxLjc5NDIgMzUuNjA5IDIxLjk5NDZDMzQuODkwOSAyMi4xOTUxIDM0LjE0NjIgMjEuNzc1NCAzMy45NDU4IDIxLjA1NzJDMzMuNDU1OSAxOS4zMDE3IDMxLjk2MTcgMTguNDkxIDMwLjI1MDggMTguNzU0M0MyOS42MTc5IDE4Ljg1MTcgMjkuMDAzNyAxOC40OTEgMjguNzgwMyAxNy44OTA5QzI3Ljg1OCAxNS40MTM0IDI2LjAzMjYgMTMuOTg0OSAyMy41OTk1IDEzLjk4NDlaIiBjbGlwLXJ1bGU9ImV2ZW5vZGQiIGZpbGwtcnVsZT0iZXZlbm9kZCIvPiYjeGE7PHBhdGggZmlsbD0idXJsKCNwYWludDJfcmFkaWFsXzI2MjJfMzY1NCkiIGQ9Ik0yNS40OTk1IDI0LjA3MjdIMjYuMTUwMlYyNC43ODQ5SDI2Ljg2MDlWMjIuNjU4MkgyNi4xNTAyVjIzLjM2MDVIMjUuNDk5NVYyMi42NTgySDI0Ljc4ODlWMjQuNzg0OUgyNS40OTk1VjI0LjA3MjdaTTI3Ljc5NiAyNC43ODQ5SDI4LjUwNzJWMjMuMzYzNkgyOS4xMzMyVjIyLjY1ODJIMjcuMTdWMjMuMzYzNkgyNy43OTZWMjQuNzg0OVpNMzAuNjI5NiAyNC40ODY5TDMwLjE0MDIgMjMuNzMwNVYyNC43ODQ5SDI5LjQ0NDhWMjIuNjU4MkgzMC4xODZMMzAuNjQyMiAyMy40MDUxTDMxLjA5NzQgMjIuNjU4MkgzMS44MzkxVjI0Ljc4NDlIMzEuMTMxMVYyMy43MzA1TDMwLjY0MjIgMjQuNDg2OUgzMC42Mjk2Wk0zMy44NTg5IDI0LjA4MTZIMzIuODU5MVYyMi42NTgySDMyLjE0NzlWMjQuNzg0OUgzMy44NTg5VjI0LjA4MTZaTTI0Ljc2NTcgMzcuMDE4MUwyMy43NDkxIDI1LjYxNzJIMzQuOTI0TDMzLjkwNTkgMzcuMDE2NkwyOS4zMjk4IDM4LjI4NDlMMjQuNzY1NyAzNy4wMTgxWk0yNi42MDI2IDI5LjAxNjNMMjYuODczMyAzMi4wNTI4SDI5LjMzMjJIMjkuMzM5NUgzMC42ODk0TDMwLjU2MTYgMzMuNDgxNUwyOS4zMzIyIDMzLjgxMzJMMjguMTAzOCAzMy40ODI1TDI4LjAyNDkgMzIuNjAzN0gyNy40Mjg5SDI2LjkxODVMMjcuMDczIDM0LjMzMzVMMjkuMzMxMSAzNC45NjAxTDI5LjMzNTkgMzQuOTU4NUwzMS41OTE5IDM0LjMzMzVMMzEuNjA4MiAzNC4xNDc1TDMxLjg2NzMgMzEuMjQ3TDMxLjg5NDEgMzAuOTUxMUgzMS41OTcxSDI5LjMzOTVIMjkuMzMyMkgyNy44ODE0TDI3Ljc4MDUgMjkuODIyNkgyOS4zMzU5SDI5LjMzOTVIMzEuOTk0NUgzMS45OTgyTDMyLjAyMDMgMjkuNTc1TDMyLjA3MDcgMjkuMDE2M0wzMi4wOTcgMjguNzIwOUgyOS4zMzk1SDI5LjMzNTlIMjYuNTc2M0wyNi42MDI2IDI5LjAxNjNaIiBjbGlwLXJ1bGU9ImV2ZW5vZGQiIGZpbGwtcnVsZT0iZXZlbm9kZCIvPiYjeGE7PC9nPiYjeGE7PC9nPiYjeGE7PGRlZnM+JiN4YTs8bGluZWFyR3JhZGllbnQgZ3JhZGllbnRVbml0cz0idXNlclNwYWNlT25Vc2UiIHkyPSI0NC4yNzkyIiB4Mj0iNDEuNTY0NSIgeTE9IjYuODQ3NzUiIHgxPSI0Ljg1Mjg3IiBpZD0icGFpbnQwX2xpbmVhcl8yNjIyXzM2NTQiPiYjeGE7PHN0b3Agc3RvcC1jb2xvcj0id2hpdGUiLz4mI3hhOzxzdG9wIHN0b3AtY29sb3I9IiNFQUVDRUUiIG9mZnNldD0iMSIvPiYjeGE7PC9saW5lYXJHcmFkaWVudD4mI3hhOzxyYWRpYWxHcmFkaWVudCBncmFkaWVudFRyYW5zZm9ybT0idHJhbnNsYXRlKDE0LjMzNTYgMTQuMTQ2KSByb3RhdGUoMzYuNzkwNykgc2NhbGUoMjIuNzc3NSA0MS4yODQpIiBncmFkaWVudFVuaXRzPSJ1c2VyU3BhY2VPblVzZSIgcj0iMSIgY3k9IjAiIGN4PSIwIiBpZD0icGFpbnQxX3JhZGlhbF8yNjIyXzM2NTQiPiYjeGE7PHN0b3Agc3RvcC1jb2xvcj0iIzAxOTVGRiIvPiYjeGE7PHN0b3Agc3RvcC1jb2xvcj0iIzExNDdFOSIgb2Zmc2V0PSIxIi8+JiN4YTs8L3JhZGlhbEdyYWRpZW50PiYjeGE7PHJhZGlhbEdyYWRpZW50IGdyYWRpZW50VHJhbnNmb3JtPSJ0cmFuc2xhdGUoMjUuNDc5NiAyNS4wMDkpIHJvdGF0ZSg1NC40MzA5KSBzY2FsZSgxMy4zODIxIDExLjUzOTcpIiBncmFkaWVudFVuaXRzPSJ1c2VyU3BhY2VPblVzZSIgcj0iMSIgY3k9IjAiIGN4PSIwIiBpZD0icGFpbnQyX3JhZGlhbF8yNjIyXzM2NTQiPiYjeGE7PHN0b3Agc3RvcC1jb2xvcj0iIzEzNDhGRiIvPiYjeGE7PHN0b3Agc3RvcC1jb2xvcj0iIzA2MjM4RCIgb2Zmc2V0PSIxIi8+JiN4YTs8L3JhZGlhbEdyYWRpZW50PiYjeGE7PGNsaXBQYXRoIGlkPSJjbGlwMF8yNjIyXzM2NTQiPiYjeGE7PHJlY3QgdHJhbnNmb3JtPSJ0cmFuc2xhdGUoMC41IDAuMDM0OTEyMSkiIGZpbGw9IndoaXRlIiBoZWlnaHQ9IjQ4IiB3aWR0aD0iNDgiLz4mI3hhOzwvY2xpcFBhdGg+JiN4YTs8Y2xpcFBhdGggaWQ9ImNsaXAxXzI2MjJfMzY1NCI+JiN4YTs8cmVjdCB0cmFuc2Zvcm09InRyYW5zbGF0ZSgxMC4yNSAxMS4yODQ5KSIgZmlsbD0id2hpdGUiIGhlaWdodD0iMjciIHdpZHRoPSIyNyIvPiYjeGE7PC9jbGlwUGF0aD4mI3hhOzwvZGVmcz4mI3hhOzwvc3ZnPg==;points=[[0,0,0,0,0],[0,0.25,0,0,0],[0,0.5,0,0,0],[0,0.75,0,0,0],[0.25,0,0,0,0],[0.5,0,0,0,0],[0.75,0,0,0,0],[1,0,0,0,0],[1,0.25,0,0,0],[1,0.5,0,0,0],[1,0.75,0,0,0]];" parent="6sJW5nIuGnZSfE3EFcpS-13" vertex="1">
          <mxGeometry x="30.499999999999773" width="49" height="49" as="geometry" />
        </mxCell>
        <mxCell id="6sJW5nIuGnZSfE3EFcpS-15" value="&lt;b style=&quot;border-color: var(--border-color); font-size: 14px;&quot;&gt;&lt;font style=&quot;border-color: var(--border-color);&quot; color=&quot;#1d2d3e&quot;&gt;HTML5 App Repository&lt;/font&gt;&lt;/b&gt;&lt;font color=&quot;#1d2d3e&quot; size=&quot;1&quot; face=&quot;arial&quot; style=&quot;&quot;&gt;&lt;b style=&quot;font-size: 14px;&quot;&gt;&lt;br&gt;&lt;/b&gt;&lt;/font&gt;" style="text;html=1;align=center;verticalAlign=top;resizable=1;points=[[0,0.5,0,0,0],[0.21,1,0,0,0],[0.5,1,0,0,0],[0.85,1,0,0,0],[1,0.5,0,0,0]];autosize=0;strokeColor=none;fillColor=none;fontSize=12;fontColor=default;fontFamily=Helvetica;fixedWidth=1;imageWidth=24;whiteSpace=wrap;labelBackgroundColor=none;" parent="6sJW5nIuGnZSfE3EFcpS-13" vertex="1">
          <mxGeometry y="49.000000000000114" width="110" height="46" as="geometry" />
        </mxCell>
        <mxCell id="6sJW5nIuGnZSfE3EFcpS-16" value="" style="group" parent="IrsivO46pxZ-6Kv6au7V-1" vertex="1" connectable="0">
          <mxGeometry x="-270" y="-610" width="110" height="95" as="geometry" />
        </mxCell>
        <mxCell id="6sJW5nIuGnZSfE3EFcpS-17" value="" style="shape=image;verticalLabelPosition=bottom;verticalAlign=top;imageAspect=0;aspect=fixed;image=data:image/svg+xml,PHN2ZyB4bWxucz0iaHR0cDovL3d3dy53My5vcmcvMjAwMC9zdmciIGZpbGw9Im5vbmUiIHZpZXdCb3g9IjAgMCA0OSA0OSIgaGVpZ2h0PSI0OSIgd2lkdGg9IjQ5Ij4mI3hhOzxnIGNsaXAtcGF0aD0idXJsKCNjbGlwMF8yNjIyXzQxNDkpIj4mI3hhOzxjaXJjbGUgc3Ryb2tlLXdpZHRoPSIwLjg1NzE0MyIgc3Ryb2tlPSIjRDVEQUREIiBmaWxsPSJ1cmwoI3BhaW50MF9saW5lYXJfMjYyMl80MTQ5KSIgcj0iMjMuNTcxNCIgY3k9IjI0LjAzNDkiIGN4PSIyNC41Ii8+JiN4YTs8cGF0aCBmaWxsPSJ1cmwoI3BhaW50MV9yYWRpYWxfMjYyMl80MTQ5KSIgZD0iTTM2LjQ4NjYgMjguMjk3OUMzNi4xMDU1IDI4LjI5NzkgMzUuNzYyNSAyOC40NTAzIDM1LjQ1NzYgMjguNzU1MkwzMC43MTMxIDMzLjQ5OTdMMjguODI2OCAzMS42MTMzQzI4LjU2IDMxLjMwODQgMjguMjM2MSAzMS4xNTYgMjcuODU1IDMxLjE1NkMyNy40NzM5IDMxLjE1NiAyNy4xMzA5IDMxLjMwODQgMjYuODI2MSAzMS42MTMzQzI2LjUyMTIgMzEuOTE4MiAyNi4zNjg4IDMyLjI2MTEgMjYuMzY4OCAzMi42NDIyQzI2LjM2ODggMzMuMDIzMyAyNi41MjEyIDMzLjM2NjMgMjYuODI2MSAzMy42NzExTDI5LjY4NDIgMzYuNTI5M0MyOS45NTEgMzYuNzk2IDMwLjI5MzkgMzYuOTI5NCAzMC43MTMxIDM2LjkyOTRDMzEuMTMyMyAzNi45Mjk0IDMxLjQ3NTMgMzYuNzk2IDMxLjc0MjEgMzYuNTI5M0wzNy41MTU1IDMwLjc1NThDMzcuNzgyMyAzMC40NTEgMzcuOTE1NiAzMC4xMDggMzcuOTE1NiAyOS43MjY5QzM3LjkxNTYgMjkuMzQ1OCAzNy43ODIzIDI5LjAyMTkgMzcuNTE1NSAyOC43NTUyQzM3LjIxMDYgMjguNDUwMyAzNi44Njc3IDI4LjI5NzkgMzYuNDg2NiAyOC4yOTc5WiIvPiYjeGE7PHBhdGggZmlsbD0idXJsKCNwYWludDJfcmFkaWFsXzI2MjJfNDE0OSkiIGQ9Ik0zMS4xODIzIDEyLjQzOTJDMzEuMTgyMyAxMS4xMjU5IDMyLjI0NjkgMTAuMDYxMyAzMy41NjAyIDEwLjA2MTNDMzQuODczNSAxMC4wNjEzIDM1LjkzODIgMTEuMTI1OSAzNS45MzgyIDEyLjQzOTJWMjMuOTAzM0MzNS45MzgyIDI1LjIxNjYgMzQuODczNSAyNi4yODEyIDMzLjU2MDIgMjYuMjgxMkMzMi4yNDY5IDI2LjI4MTIgMzEuMTgyMyAyNS4yMTY2IDMxLjE4MjMgMjMuOTAzM0wzMS4xODIzIDEyLjQzOTJaIi8+JiN4YTs8cGF0aCBmaWxsPSJ1cmwoI3BhaW50M19yYWRpYWxfMjYyMl80MTQ5KSIgZD0iTTE4LjM3NzggMTcuNzcyNUMxOC4zNzc4IDE2LjQ1OTIgMTkuNDQyNSAxNS4zOTQ1IDIwLjc1NTggMTUuMzk0NUMyMi4wNjkxIDE1LjM5NDUgMjMuMTMzNyAxNi40NTkyIDIzLjEzMzcgMTcuNzcyNUwyMy4xMzM3IDMzLjY2NzNDMjMuMTMzNyAzNC45ODA2IDIyLjA2OTEgMzYuMDQ1MyAyMC43NTU4IDM2LjA0NTNDMTkuNDQyNSAzNi4wNDUzIDE4LjM3NzggMzQuOTgwNiAxOC4zNzc4IDMzLjY2NzNMMTguMzc3OCAxNy43NzI1WiIvPiYjeGE7PHBhdGggZmlsbD0idXJsKCNwYWludDRfcmFkaWFsXzI2MjJfNDE0OSkiIGQ9Ik0yNC43OCAyMi42MTMyQzI0Ljc4IDIxLjI5OTkgMjUuODQ0NyAyMC4yMzUyIDI3LjE1OCAyMC4yMzUyQzI4LjQ3MTMgMjAuMjM1MiAyOS41MzYgMjEuMjk5OSAyOS41MzYgMjIuNjEzMkwyOS41MzYgMjYuMjgxMkMyOS41MzYgMjcuNTk0NSAyOC40NzEzIDI4LjY1OTIgMjcuMTU4IDI4LjY1OTJDMjUuODQ0NyAyOC42NTkyIDI0Ljc4IDI3LjU5NDUgMjQuNzggMjYuMjgxMkwyNC43OCAyMi42MTMyWiIvPiYjeGE7PHBhdGggZmlsbD0idXJsKCNwYWludDVfcmFkaWFsXzI2MjJfNDE0OSkiIGQ9Ik0xMS45NzU2IDI3Ljg4NDVDMTEuOTc1NiAyNi41NzExIDEzLjA0MDIgMjUuNTA2NSAxNC4zNTM2IDI1LjUwNjVDMTUuNjY2OSAyNS41MDY1IDE2LjczMTUgMjYuNTcxMSAxNi43MzE1IDI3Ljg4NDVMMTYuNzMxNSAzMy42NjcyQzE2LjczMTUgMzQuOTgwNSAxNS42NjY5IDM2LjA0NTIgMTQuMzUzNiAzNi4wNDUyQzEzLjA0MDIgMzYuMDQ1MiAxMS45NzU2IDM0Ljk4MDUgMTEuOTc1NiAzMy42NjcyVjI3Ljg4NDVaIi8+JiN4YTs8L2c+JiN4YTs8ZGVmcz4mI3hhOzxsaW5lYXJHcmFkaWVudCBncmFkaWVudFVuaXRzPSJ1c2VyU3BhY2VPblVzZSIgeTI9IjQ0LjI3OTIiIHgyPSI0MS41NjQ1IiB5MT0iNi44NDc3NSIgeDE9IjQuODUyODciIGlkPSJwYWludDBfbGluZWFyXzI2MjJfNDE0OSI+JiN4YTs8c3RvcCBzdG9wLWNvbG9yPSJ3aGl0ZSIvPiYjeGE7PHN0b3Agc3RvcC1jb2xvcj0iI0VBRUNFRSIgb2Zmc2V0PSIxIi8+JiN4YTs8L2xpbmVhckdyYWRpZW50PiYjeGE7PHJhZGlhbEdyYWRpZW50IGdyYWRpZW50VHJhbnNmb3JtPSJ0cmFuc2xhdGUoMjguMTU2OCAyOS41OTYzKSByb3RhdGUoMzYuNzc5KSBzY2FsZSgxMC4wNDIxIDguNzc2NzkpIiBncmFkaWVudFVuaXRzPSJ1c2VyU3BhY2VPblVzZSIgcj0iMSIgY3k9IjAiIGN4PSIwIiBpZD0icGFpbnQxX3JhZGlhbF8yNjIyXzQxNDkiPiYjeGE7PHN0b3Agc3RvcC1jb2xvcj0iIzEzNDhGRiIvPiYjeGE7PHN0b3Agc3RvcC1jb2xvcj0iIzA2MjM4RCIgb2Zmc2V0PSIxIi8+JiN4YTs8L3JhZGlhbEdyYWRpZW50PiYjeGE7PHJhZGlhbEdyYWRpZW50IGdyYWRpZW50VHJhbnNmb3JtPSJ0cmFuc2xhdGUoMTUuNjkxNiAxMy44NzY1KSByb3RhdGUoNDcuNjM0NCkgc2NhbGUoMjQuNjIgNDYuMzIzOSkiIGdyYWRpZW50VW5pdHM9InVzZXJTcGFjZU9uVXNlIiByPSIxIiBjeT0iMCIgY3g9IjAiIGlkPSJwYWludDJfcmFkaWFsXzI2MjJfNDE0OSI+JiN4YTs8c3RvcCBzdG9wLWNvbG9yPSIjMDE5NUZGIi8+JiN4YTs8c3RvcCBzdG9wLWNvbG9yPSIjMTE0N0U5IiBvZmZzZXQ9IjEiLz4mI3hhOzwvcmFkaWFsR3JhZGllbnQ+JiN4YTs8cmFkaWFsR3JhZGllbnQgZ3JhZGllbnRUcmFuc2Zvcm09InRyYW5zbGF0ZSgxNS42OTE2IDEzLjg3NjUpIHJvdGF0ZSg0Ny42MzQ0KSBzY2FsZSgyNC42MiA0Ni4zMjM5KSIgZ3JhZGllbnRVbml0cz0idXNlclNwYWNlT25Vc2UiIHI9IjEiIGN5PSIwIiBjeD0iMCIgaWQ9InBhaW50M19yYWRpYWxfMjYyMl80MTQ5Ij4mI3hhOzxzdG9wIHN0b3AtY29sb3I9IiMwMTk1RkYiLz4mI3hhOzxzdG9wIHN0b3AtY29sb3I9IiMxMTQ3RTkiIG9mZnNldD0iMSIvPiYjeGE7PC9yYWRpYWxHcmFkaWVudD4mI3hhOzxyYWRpYWxHcmFkaWVudCBncmFkaWVudFRyYW5zZm9ybT0idHJhbnNsYXRlKDE1LjY5MTYgMTMuODc2NSkgcm90YXRlKDQ3LjYzNDQpIHNjYWxlKDI0LjYyIDQ2LjMyMzkpIiBncmFkaWVudFVuaXRzPSJ1c2VyU3BhY2VPblVzZSIgcj0iMSIgY3k9IjAiIGN4PSIwIiBpZD0icGFpbnQ0X3JhZGlhbF8yNjIyXzQxNDkiPiYjeGE7PHN0b3Agc3RvcC1jb2xvcj0iIzAxOTVGRiIvPiYjeGE7PHN0b3Agc3RvcC1jb2xvcj0iIzExNDdFOSIgb2Zmc2V0PSIxIi8+JiN4YTs8L3JhZGlhbEdyYWRpZW50PiYjeGE7PHJhZGlhbEdyYWRpZW50IGdyYWRpZW50VHJhbnNmb3JtPSJ0cmFuc2xhdGUoMTUuNjkxNiAxMy44NzY1KSByb3RhdGUoNDcuNjM0NCkgc2NhbGUoMjQuNjIgNDYuMzIzOSkiIGdyYWRpZW50VW5pdHM9InVzZXJTcGFjZU9uVXNlIiByPSIxIiBjeT0iMCIgY3g9IjAiIGlkPSJwYWludDVfcmFkaWFsXzI2MjJfNDE0OSI+JiN4YTs8c3RvcCBzdG9wLWNvbG9yPSIjMDE5NUZGIi8+JiN4YTs8c3RvcCBzdG9wLWNvbG9yPSIjMTE0N0U5IiBvZmZzZXQ9IjEiLz4mI3hhOzwvcmFkaWFsR3JhZGllbnQ+JiN4YTs8Y2xpcFBhdGggaWQ9ImNsaXAwXzI2MjJfNDE0OSI+JiN4YTs8cmVjdCB0cmFuc2Zvcm09InRyYW5zbGF0ZSgwLjUgMC4wMzQ5MTIxKSIgZmlsbD0id2hpdGUiIGhlaWdodD0iNDgiIHdpZHRoPSI0OCIvPiYjeGE7PC9jbGlwUGF0aD4mI3hhOzwvZGVmcz4mI3hhOzwvc3ZnPg==;points=[[0,0,0,0,0],[0,0.25,0,0,0],[0,0.5,0,0,0],[0,0.75,0,0,0],[0.25,0,0,0,0],[0.5,0,0,0,0],[0.75,0,0,0,0],[1,0,0,0,0],[1,0.25,0,0,0],[1,0.5,0,0,0],[1,0.75,0,0,0]];" parent="6sJW5nIuGnZSfE3EFcpS-16" vertex="1">
          <mxGeometry x="30.5" width="49" height="49" as="geometry" />
        </mxCell>
        <mxCell id="6sJW5nIuGnZSfE3EFcpS-18" value="&lt;font color=&quot;#1d2d3e&quot; size=&quot;1&quot; face=&quot;arial&quot; style=&quot;&quot;&gt;&lt;b style=&quot;font-size: 14px;&quot;&gt;Usage Data Management&lt;br&gt;&lt;/b&gt;&lt;/font&gt;" style="text;html=1;align=center;verticalAlign=top;resizable=1;points=[[0,0.5,0,0,0],[0.21,1,0,0,0],[0.5,1,0,0,0],[0.85,1,0,0,0],[1,0.5,0,0,0]];autosize=0;strokeColor=none;fillColor=none;fontSize=12;fontColor=default;fontFamily=Helvetica;fixedWidth=1;imageWidth=24;whiteSpace=wrap;labelBackgroundColor=none;" parent="6sJW5nIuGnZSfE3EFcpS-16" vertex="1">
          <mxGeometry y="49" width="110" height="46" as="geometry" />
        </mxCell>
        <mxCell id="6sJW5nIuGnZSfE3EFcpS-19" value="" style="group" parent="IrsivO46pxZ-6Kv6au7V-1" vertex="1" connectable="0">
          <mxGeometry x="-460" y="-609.9999999999999" width="110" height="95" as="geometry" />
        </mxCell>
        <mxCell id="6sJW5nIuGnZSfE3EFcpS-20" value="" style="group" parent="6sJW5nIuGnZSfE3EFcpS-19" vertex="1" connectable="0">
          <mxGeometry y="-1.1368683772161603e-13" width="110" height="95.00000000000011" as="geometry" />
        </mxCell>
        <mxCell id="6sJW5nIuGnZSfE3EFcpS-21" value="" style="shape=image;verticalLabelPosition=bottom;labelBackgroundColor=default;verticalAlign=top;aspect=fixed;imageAspect=0;image=data:image/png,iVBORw0KGgoAAAANSUhEUgAAAMAAAADACAYAAABS3GwHAAAACXBIWXMAACxLAAAsSwGlPZapAAAAAXNSR0IArs4c6QAAAARnQU1BAACxjwv8YQUAAHb7SURBVHgB7b0L0K1ndR72rP3/5350zpFA3AxYBAPmYhtNpm0SJ7XcTh08aWrs2kna1APkYnemiY0TJ53MJAHcxI17iSG1m5k2E3CbxnacNoqT2IlnUgQ4ttvYQYAAAyYSAgwGCZ1zdO7n/N/K937vujzr/fZ/dEESktAr/Wfv/V3e67PWetZ617e34JnymJT3v//9pw4cOHbLtNFbNpvNLQq5RTZyUlRPqeCUqNyyXDi/n/89tU81p6Hz31xU9J5+SO5RnT4l8/Fpmu7ZTHLP1avn77n11ltP45nyZRfBM+URFQc6duW2DnJ8k0Bei/1B/XiV0wq9Uyd8QKCzkODOb3jly+7AM+URlWcE4CHKAvjDx16vsnntRuRb5hl7LZ7MZRaESfU9Ou3dsSfTnbe+8pX34Jmyb3lGAIbSAL97+PhrIfL6GfDfMc/QLXgUZXd3FzubDWY6hAMHdtCm+sDuTpzf2LlWZmoz/806XHVZj6vXrsFf27mr1/aW10dVZoGYm75z79q1f/yNr3rF7XimlPKMAMC0/JHjb8RGvuOR0JkG8sMHD+LggV0cnF93NoJDhw/NQN81MM/MvRWbZZ3mY+OMq53X/kZk9hqWezVO9yoEl65cXgTl8pUruHr1qly+chXt/XwMD7uo3r43Tf94D3t3PGMdvooFwKnNjNo3zOC67aGub9r66OHDOHr0MA7s7OLokUOmwRtoE6eq9nYGsmn0BdkFokpvpEFbmvpvH9tNC9jb/60uOyereyU/N+twaRaEi5cuz3+XHrZQzPXeMe1NP7V36fztX61O9VedAHzoo5+4baE3G3kDrqPpG7ibdj9+/KjOwJfDhw4W7KmG6oYLwaycRaRjWBPlodUd00VgFhx2gIts5vOTWI29jUUW/DJaL165Aevt45UrV/TCpUviQvEQAtHAf3sThq82R/qrQgAGinPbftc10J86cRzHjx3TGfwzHsWVtBe1j105j8hjtdw/L9o7rweKcu+fF4ERw3tWoi5a3QIoCZKkxRiaD96UVmMRnkUQzp47vwjDtdmn2Lco7tmb9t72ja98+bvwVVCe1gLQgH/w6IkfnEf5Zuyj7QP0R4/iyJHDWydE/R/i6nTG6I6bg6Ar6gRnwfs27d3NwVKjAdvqLxXUJr1hq0+zY0tdIBomJl3tkCCu14sXL8vZ8+cWyrSvMMyCMN9xx5W9K297OvsKT0sBeP9HP3rLrhx48/VoTuPzz77p1MzlDzPKDMYqSeWXl4WLLM4paeyF8hj42uWbCubuzDJTKqWfMM6/mImxPjjQt9EdIewb6O1Cszrlgi6YOrQ+nzp//gLOXbyIB89dwHXKu56ugvC0EoAG/AObA2+dwfeGbeebtr/p1In57+QM1o1zk5iDReNunL6nAwvi7kF9TGicpix7t/EeBHo1RV+UexUKQUSNivCsGBWq3KBKiNEil1obQAC/GxQaFQm5XpmjSs0iPHDm7PUo0tNOEJ4WAvBQVKdp+WffOGv7o0fUWEzw7CzisAjKY1zb5MSByYLQKzGN69f6QYsOmeUAWxiK9oD0vfdkC+8fLijMBzSYcp+9J1JltCje51CT6cnZc+dw9uw5XL56FfuUp40gPOUF4MMf++Rb9gW+05yjR66nfo23S/D3LZy7EnKK9GwNxhj4VbfML2t7Fxi/mMG+jTqZ5tcAsvF+TZ4DtxyFYRm4zXplpKq0FI35UGeLoF86fVYuXb68GkbzEXRvesdrXvWyt+MpXJ6yAtDCmTOleee2nVrX+Mdm4JO1lxSCBHuWOGbBx6U4UlERmdzdKU7UInyuVTYJ69cqWzVK5NEdSX/DUY3k9GkhDMionB+ogyaaVOuL/YW4l+8TlyngwsVL0qjRfoKwt3fth56qu8xPOQFodOfQ8RPvnBfp9eO5oDotmiOO90ovMmLjRCDDkswDgPFeEpqM6wMExoj1e0DSNK85EZ1j2QaZ+QsYCZCg8P8V118JQ2vXdphjQy1NhzCuES6zU7NJEH3qguTa35uMm+ZrmiB88f4v4dreVh/hKUmLnlICcNdvfvLNssFbMNCdAwd2F+CfOnGDUQjByIyx8kLttC94B6YfFuXUhIVLk8e6SItdhhrpMbkzWTKAk88RwA+lG1p4q0auZF9Ie6cQ+2f3VWJwIl6JDFbAlfxAuYr4kvNe7daD837C4iyPgvAU3EN4SgjAEt3ZOfDObZtYDfgtsrNj+Te6Dp67Wk5HtERs+J7lco+nGw2RQemqpCiIKdIMj9oJhhNc4y+niOcX2oJgHyWMKsXfkHR0vaSKBkjdA+mDJIjBPR8EDsyZWM5JWLybC7XTB848KKfPPogt5SljDZ70AvDBj3zs9TO434lB6zea8/zn3Lxof4yYHzT9EEkJHSeDu+mHlLR9aMnI7ambTVx/OL4hDFrqYDrB/Qk/gzSyp0VIsKkELFGc0NxJ7zXJu/UtfBslZ99FlJRCyM/KWJIFMCFxi3X16h5+5777cWWMGD1FrMGTVgAWrn/sxFvm6X4zH2+x/JvnyM6NJ08a8MjJXIF/WGBydONq4v7kCxAQxTe8EoAhPNV5rPePguDgYsfVuDiGyA9QHdjq7HLY1ZkR6P5VcMpaF84vynFsSasQpnlA2D62D2xN53/PzJagWYNpVD7A2y+fP/u2J2uy3ZNSABrlObg5+G4MEZ4W1nz+827GwZnueNQkOfY26jJGegZnF0GDkIBVKTFMj4bwhhm9KTw6HQEHoZpUpK7t2t/vjzopbh9d29fh9aZc4pN6heR5P91yhHPdKzKZ0ELZWIDIQIQs+uhyIt0S9HLt2jV84f4H1mHT2Rpcma5865OREm3wJCt3fezuNxzcOfh+Bn/T+s991k342hc+X1sqssLXWFHBh3Q4jXJUfZQ7sskTluviHqMTjoylAWtDvT5BqEDrSweU5/UUrR/Ww4p33n3SoN/kTNcSdYelSRdby0Wk0ZmDDZElv4OpklGwlDnpet8OR/U5aXSb+V6yu7ODFzzn2S0YUUcwr2Vb0w9+9ONvxJOsPKkswIc/dvdbINNb+Vjj+C983nP10MGDkSZvpwjDxLX7Z9d0SQASIQjHLnlxsBlyGClUGUU5Pm+HwBtkSvk8EMnQvd+PAnTHlHSqNYm4Y0IcyoBdHdmB9rhlC+TbuPxQTteww+z9UPeMy/SipH+AtQdZ27wjzjZr8Lkv3LctUvTWV7/ipW/Dk6Q8KQRgv9j+yRuO43k3P8sfPHFHc3gPFN9Nwx8Mp5Ow36+verM4ybz8TJN4wyr4fodeqSPuGaI3Oub21JC+cxmR1QmmdYNG5+p4b6JEbEho3IIM9xcByvlRrJzu2DwmjsVRLVB4VpYHde5/4AzOXRgS7RS3X7lw9k1PBr/gKy4A+/H95z77Jty4JK0FZ3YaUiY7dLylE9vFcW2Nr9sqsmT4lWBBSL3JEkF1FeeWOXUq9wxZsuCA68xCCQuONM1rU8eqibvA/w3b5egcAU+gpbFwxBPAYCm4g075lRLpyKCh7L6tBzafPG0O8jDiJ4Vf8BUVgG3gb9r+hc9/7uLwyupRQ9kS0wa2xO22YIywzvlgcTUrVA0hoQvC2WYaRQhyB1rZ6d2qdUs+WnnvUqs6Rp6Q57wG7rVHi5iujFZqm9zB5ZKZF18djVBQwQMMvKvNGmlSFzyTK5VLV67oF2cHuVCiJ4EQfMUE4K6Pf/y1gp13g+L7je9/7dc8vz1UXqIloT23hjj7JUjSWsKMtibQyrsDFKm9K0+3hP9sjTM7B3SPlIXDlb2nGX7MdAWg0vs1/SkjC9hH40LGzvYNLLRKPkCMCIiwf6lSKm0sjRkvkqjBJoxivdRJuj+VFFPWlmb9+S8OfkFLqru6952vec3L78RXoHxFBGAb+Nsztw38m81OhNi0UBN4eo8Qr1jxdhDNYcPA1mTS2ONPHZikybWaKdUArBQKFEJUU5wRfRmpl8X7SRkr5RD5PX4cC5rCCaZnBIj0uW52AXK/I870tpTvB82HBqlHSoYg64xpXW6cONeJSuzHkL8yPp1mdeLq1RYq/dK8cXaNqzitV/a+9SshBE94GLSFOUfwN2d3Br92Z1cRRrwn6RjQFaHh+sSGtuHVUGTMke2FLsAwNdVr6ahOXt0vmwIkHmqVRac2OPed2W7+PeoTO6idggjSAsFaCVph1/VGY2MqtWZPy8j2+0G7zFO1J6jXAoWQIWQnvINRchqNlpEiwGgUU7i0PUTvfVnGOw396mNd5nLukoE/Nw9z1v0m017tq2Sed/OzZ4p7CFROycGd9390xgae4PKEWoAF/DK9i4818L/guTfHZw3V3T+7djErACB3aEskI+jmlnMSuQC8axw821oW4thQ3k+qkZ+otXNdGgxbHfGmx4gNb9ghBir7PUJZQ5zQgfljSG1IqfP7KafIsy4CqBijrMJhTtV8XmEfP6LQHpr/tZ+G9bp86fRpnB0exdzo5o2vfMVLfgpPUHnCBMBoz/v5WEtpePZNN7a3q1UFUBy6cDKj285rJQlrP5dml0FrdWVD7qQVTpL36La5SYqE5PopISG+xPOjbdTrR8DTuFibRt+QVAcAhT1jSghcSe/yvnE8KWGg+YKObRrLTAGQ0tP0jUDCMCinVcNx7vTZs/PfOT7/hNKhJ4QCEeeP0rI4F/BLzCfcqQvuSTwWgPPKUG/iE21Og3rc3das0xaClzu88Zq455YKWGS4wnmzXUGazjSo0R/1WJHXMIK/8regYr2mbFWWB+YLt+5WBWL+h6rRw16ZrIbEU5kUSOCpJMt8hGWUsCQxvi5MuWNODfTTtC+Q/USZ86H48VMnTizfykGl0aF333XXx5+Q72B93C3AtlBne0zx5q75WzHwamqWEt1gky1LslVhmFKwuN6lpQNhMQbnmTQ/KNxaQepVJBWREq3JejKQk3fEcR3FbewzqVaX9ToKlwsTVHfcAY8UqClsqV2P6p3khLaJefGEwXF+sjvpAHOUgSiTrdPgcI90tVoB3ys482C1BFf2rtz6eIdIH1cLsA38LXe/g1/UcmdkcTw1+Eh3UgPVofkZkR0EG2FFBOc5oeWkLr8BfJUjxI6h063Jwp2aCIwmtIYsO4KiJ+Dd3VoWX0TiLw8vGnjQlOoCrrW33fesfN2iRn2AMXmJcsvtieGiUCyLiHnwQNLyCJk3cPTHzWzY4rBOa7Djep/dwbnx5Ak9fuwIX3aqYadhCI9jedwEYPmmhgH8x48dnXd4n2WfVJQjE2LgVAth2lXOe6uedZPrkRFYDRJ1gHEjab1HVEY7GTzqd/SQogr1YekzwolVGWuTilQk97d+9er6ePr73v+FxhUaAURCGtGIruhji6tejzoAKEgRKHVKuevWQwgi9CwpVH5r0dhljDlhuS72eQv9CevVh51z2Q48+8Yb9fhREoIZO4sQzFjC41QeNwFouT0M/hbnf8FzlmhP6kvzV2POkaedW9dojlmM/iFWRXgxhfQe1MmzY8nOpNbuzYiFOKlEFGihXZINdPpjfzQUGSlOyrBUjQ/uQ/adGJlRmB6mkaoANOP80n0AKRGbfk20EqYkIvw0fjdqVnNKSXB7F1pkPS6w2Vq8d0tgSivXTuM+Hyz5CX5t+7vp1Elt37ZNE3XLwaMzlh6n8rgIQMvqVEpsWzI6n/9c7Owsza0mtBVlA414b0dFN8bdg5WQ8xm3lUV1MZEiXrYUNRXZN6SQPWMaI8N+EUbtL22TqDxgLhapV+L+CRYnL1JoUF6PSPmovDkl2OfALKYOkXcJquaWVUzj2hBs/N5Nn+4IErgvrG2HWVLKUUwOilnI+oP+VWXgESVSbkMVXVvc/Kyb0FKrqZHXL19/8zgUwWNcWs73zs5OSGwD/4vnHd6Du7vBR9txBXhTC7TbG45uO7mpnNKv0RrdIe25Dr8ZEpm3+6Ucw/a63IkMbRWbXSj6zN+w7UpwbEuJ6Jd3quDxcndC8z6YgqxpCcTndBxebFhscV6DCgqfSmc3T9X5ENp/6Gbaq4k+5doBsSp+zcjzEfcW5ZXjHtb52rU9+dwXvlieMHs89ggeUwFYnN72MAvt8rb0hvb8bgTjN5vYba1gE3pGUAdoRbHDI0j7UNaeZ0lHAPwRPqpLinkOilMhV+gU6mWZhmAgSS84xtiPy2ok3u3s7LaISTB+6wULRoCYBIFcKOqsUn8QVsEayMjRWsevBDC1T43Q0TyuRzpeFye37Bd4gOnS5SvL88ZUHvPI0GMmAPb1hOVJrhbrf86zb9KRCzrn9omtO4euqXKziaXBFJKkLCAjGrRJBc6itH88ahfNMKJr2JIEJ1UhiQDonKxAX9+nBQB3ADkV8+2/epfg5/7fDX7lQ4JPfyGXRbbckkXt5NTms3z29136pn5MnUPlMXfCugBMNp12P9cT5+rxE8cFr3npAfyRbzuJb771mL7wuQd8dnsPq/YvAqMaSUo+2E5zKQX+7IPn8cC8WUZDvufKhbO3PlbPEjxmAvCRj3/yx5UeYD85b248/+abk+fkpbotRlzSAxjUrtEIrCLg7acEF8JyuBJJ/bUCfi0KLZpe6CEWft+r6KgdAT8mtm23Y2F/lts+fLfgLX9nRxrw+3xcD/BDPZYXhBH8AfTJhICOjfcM97VrpQhO1pXCMgF03gXm5LENvu+7n6V//g3PcbTbmFZWKAahnm9UR1Zgc98Dp3H+wsU4Px98+6te/tIfwmNQHhMB2Mb7X/Kir1l+JC4AqTwPxL2LJoa/iQnsewKy0KYtOT6Ep7VZTuW+r3lO4BOD2q69kWKlw70xAhJsUPZmR1ZqPvMBPnw38D1/eRdnzj3SZdimrQ2QBFAdBMFBXO4jCyJUd9xD9avWutg6sED8hTc9dxaC5yVPC8cNFFLGdTbIYld8qWNvb/YHvng/9iiNeu/ate98LL6O8csWgG2bXV93y4uWnH4vGsCppm6tjvMz0RabRLok8E70hUKQwtRpawktX9oTkIO6kSIQWWdbzI16bJ/pG6Uvo+6SYmV17v0C8G1v3sXZ849kCVzySCOvALmN/pD23wfES31Q0/7XsRilba4/72kC8d/9ma/B933Pc6Fkzmiu+gxt8XdooKwE2w8Dyu/c9yWu7zHxB77sMGj7Pn4MaQ4JftswIvBL5pxoGDuEjqk46bfJSF+MjiggJC2+y1rv720alD1Tx/pRSAxF0ZfKzDQ7oNUT1yAR8rS27WgxHstbd4CjL9Tmn/tbjxT8QAKOABxABgHQLURSFP8L0DuYDfBOb9SsSLnHrA0DXUACNAhM+/srP/Fp3Pu5yzb/1R1Dgns8QecloqTtuoMHDuDUDTVn6NDOgXfiyyxflgA06iP0YxQt2nPzTTf2mcidwVSz7OwmTbFhAsJ60uZTHLhOmgQU63P+6DurWigQORHelvPzfmmmQqtz+ghPwkx1ATDBO0KO8Z07/T2nD6CEb0MJ/NqHN+qc/+EXJZAN4NcUjNDMgtD2EoLj9WwRBOQxJcD7Rq0LQn8eYQpBqf0wa7GsyoT//R9+LmPWW/KDskPxNSs2We1vkuiflRtuOK6H5g3VnBG57a6PfOLN+DLKoxaARn12NjtviYpmvt++qlB9B1C1SLUUCuQ8bzlN3JiIkoBjlLGRk5MY4b+oS7u6CORrGFIvOedq8+6ebWwKOXDGiKqJsNOhYXc32FSXK0cNkP6xz8NG//mvyUOiv1xh4AvtzvQHCVDV1MAIwDqgaz3M/Ys1YPBbeyhRIqDQo9Ivbl/xs7/wxVB4un8+UOSppEOsJCDCN8mz+jcC5jztbt7y5aRK7OJRlpH6tNz+eQtbXdu6o6s1PwQew9TYGYVpDH+kj4xAwDrTg0oSWj7EEjo9JlZAuZyKshcF8s/cSvlC0RhF8nfAOj8Wp3C9gkX0IkLke/ta+qAhND4qtMjPQ5WwGEwSdFuok7Q+Bod4fv29r9ngdb/vEF79u3Zw9tyEf/6rl/Gzv3RxoUdbeTzYeXanc0IMerAeQufHqNGZc3v49Ocv40XPO1SifZo5XL52NuE8/vSvwneY793d3ZFGhR7Ib5k4ZakS34lHUR6VAHzwY7/1eqY+Lc+n5XCAWIyUWGUv/nmiTRh/o/2EBWRCTvxGgkHwmS4QG9oMqk4n1Uzg9x3RacFkUiKrOy43bW6a3rqhnFUmUndlxXtQzH27X937yIseVjEq4aBfAT0+OwVhTa34c//lQfzw9x51FbxMdhOGP/36I/Jdf+G+RSCg6/uzfoBpUbEKJGi6T596P8RRP2h50LTGcw5Q8q88eKLGJsTW9Ibjx3Dh0uXlB8Ftnl7ffjDl0fzG8aOiQDuQH+fPX/O85yzdyCCPKGvvuNAcV+M8mljy+wbGghrISSiXzLH1q451pLsbnpX0JfJjQdikrMyy5ovT2wFf6u3NeajT4/5Wl2/fxU6tt6iyHwGqx5n2dN7d5W10bAl8roXnYy+cl+SHv/cInDYqLDdo7u+r542r73v9MTjlyT2Afr8MVobDnDrSLmqzOMV2zac/f1Eo/h9LHRMCUOpE9aFsEXLyaGGfdePJct3ya0GPojxiAWg/UoFht9ejPj15KpI1nfdn0lekFAPKu8Oh6NWpaARVXFj6i6fOmnlQ+OJ6uDRLRHw0VP3y2vcUumyaPYhoTfhg6oLg2ZYhROlAZ3uGbJeCpXthLYQXLhrIbhaz72+qNg/NSlEZaAW8TsTn578//fpDsBEKtQynmX/qu47DNTqDf2yz7hcAVbvnPSbccL8io0lK46sxfw3uXxiDbJ0cUMRi/mfed5ITHBWaMfmhj33irXiE5REJQHN85z79oH9uG17tJ0e5zwFIV6xwzpyBNAkF7FhKzS6ZkgAWHIm9g7A0ArpWfQdZ7IGYjBuhypjVJdGIlo0zRekBVhweRK5UXAj9jhRE2rwupap/58GgDgSYxvAjMpxVtL5FejhVoaUoGALB3ejzJHry+AYe+y9aXD0aVqNE4lEeEjQt/c37U2BWg49B+rBN87sttv5LrBZKFJyyBuaDNxw72gQhKt7I5gcfqUP8iARgFfOftf9mZ4McQJbJtD0vaoGj8x1F5IUgdwkD+LlwxKnJlApr2I4B+woPRTIljxIpwbNrHPXMZrdeGb8S1vpaFL71x0Sky6pRIE3z7sOD74eA+kol6GJITAeckiC4ts9NKqA6nURnrCJV2lK1h4IsqmPYc/pTaY0DXotfoaUthNCw5eF7vC+roXr6dkiIJ0XSZf7vMo2bpNRCQYgl0+DksDewe/T4IwqLPmwB6No/Hd+m/U+2r8FWz3HwEGXk7Sfn6w9d98Ei6feWFAXJf8lWwKcktLU1GBoNLgilTQ1dUtSu8kMlcEWmC9enSAUE7pgp3+s1hq1o1fDmmEGmOAwKrQR4ayFub4NbURA/xqDTNSiR6QZ221SphQciisZ2i5PtR51FwKaV8Em5NumPJphj6JH3lcoEvuFj/VvOb+x1KqnV/m+v/9iRIzh0MPcGFivwCB6jfNgCsGh/KvZ0F2IAqd8ZCH2AE4PBtSuEYvpJd0RyU0TCXJqCDMqRlAdOtyLs6p1yul6LDK8kI5Li6VrfrY5fYULlLA/i/RCxeyWlWFmlRzViipkLa/cx1Jkadb2TO+T2bNPSMQPFj0LfMHTaUulUUpmJAE0UrJxro6nWAmTF+uUkwP1znzebFMnwggrtnk/OBrSumxYdojhxwzGezFMHdw6+BQ+zPCwBGLV/2/E9Mv8hwz7OfZVTG8ZB53sM2DTFYB88rt4pkLJ7a4sXakUQs2OEQwulHliXJCLsnTm60Dqt1Fe+RSv9CQnPdnLIbkEQ2liTFlaFQBSnAFczzq4rbp2WQFdxfKcx/rwKQ0jd2xTBaDmS10uxAOknMNfXlYVKgco+uLxJrIOxf59oNS2nOS+5k6/ufpni86WySpd3hw8eKlZgLm98uFbgYQnAqP1bvo8NRH0IGg6qDyy13BIdqivrzMnVdT9E7o5yOoNEHbFxm73hMGekILvrZypYwxLJcGuJTOTUKl2DGv5ECmC9mFLn8rgZk6xjvFOd69doDyzsqaTlCxUZnNRIdTDH2SFOL+pRtnyfaQ0lvWGLUK2shAsJtAinDgJaNrJySkMZaewJxeaY+0w+QXY90L8AOC0HaO1mX6DM7K4ceFi+wEMKwEr7Hz68/OVYSrtI2XZqbSAI2mNwcNHvEXYFPzMLSqKxfzTzeLTYDrMU3jgzHOWgST+oSptZZml6e2KP+CEFxmiNYtA6nj6tVie3MSTFiVuC+uNxrnEHcK2cUXJ+6b1giNKE5t1DOM4+vpwH4UnzfhQrAKZYaV0Uo3BWLa9DRKo47jRRPh/dgCyWSEo/rU8eSVRAMjzqm2Qk9DSf7ReEii+wkTc8nIjQQwrAWvvfCI+WFIoT7ypAq8LNN+SELpLsUQrhevJ6DxtoOHMGvIkfQDEnXCk/KEKeglGPe1qDdcFoFwI8MSwtYVLPdcrMDhP6HjJNSTWN6AtpK+dtCC8kR1uSOmzd5BrBv4U2dWe2FtPEqQrg/ZtWdMdBTP4UvM9pMRLwsrIa9Y/ZD9MfpDO8rHcoLxmGIwCzg76mVbe12k8cr77Aw4kIPaQAzM19i79vmXjHjh4J6eVdu41kcpsntnVUCAcCPKEEFqWJaJHHg43SCO0nQMCx/x4y8+sljMsQSWpvNlI0vn3ZlebCwk2WCGmq8AsmFS01DkULke7VST6L4J+DyPreRGwSufPI0zM4lORw6gj0wscpJSGEKSuOXBwkmLTk/kwF/OHksnXSiaI9WwSXrmNh7sstrvpp/kJ5LV1kfSpkE0rpwmDB0MwqaC+HDx3SVUToIazAdQVg+VU/ivu3b3XrqO1hTY0nnmqoKmSaOHZq0RBpN4f2nTB575IXQvtI5IguN/caiMmEe+Dx9t632FMwUrwJEKy6qorkS9Uv0MJpQk7iUw9xmoFC2a9A3qmaD6+DNLeHHUsuTtCLPbADLKprbo6RoiT4M8UAAGWRp+LyfkwF0EJ61YHs1Io1P/e39qkfE9IwSlbepk6R+zM2ZTGEEibzuU3eHN3sClHzZ2AHX+DUgSPH34jrlOsKAKc7t3SHk8ePm0QrQBs+iGEiYeKdZHZXhKTKd9fWVscUsX6q3YQmKYZXxoC2eHt+6RJ8ouB0xRxlswSaDUAz7FlpHDh0mCRfo1LCdkyESlgXy3uqeS5Kc7nWqCCMugOsFGUJwIN4fIRJJ7Cmt7UojidM+0Q/iPZkuoX/6Zb3SYcS9FUgSHGRlQ+9FfzTSUHsFXnQRCT9NhtEziOpv656lnk+ePBArj0WX+A7cJ2yrwC07DrW/kvkp3DIvvDTAOoYYUcb44svMjsgzDSDp7vjIyQjqSU2Ztgz7s+ApqIYWrVrJelI1D1sGpifG0LUJjd+gqhWbVpWIykO3an3C83BN0D2IIAyv6f4voGqCETh46RliXpsiwr94q/kF82qljTkpWe/cud5YSDvq82VQ6LsJNc+jP5J7llkH2yuiTqLY0qtPoktl36THat7RMwW6Oqou6VI5BVy24Llfcq+AjBr5Dfy56NHjxhLCL1LgPB+JGU2EOdwaDc47pO8Bw5rhQO6/+tOAFyxTsLpy+FjpLJJ1cL/IjerrJNKDUid006nAnh+C9uk2Nke2uoAd8wkveOQrwGsAoeB6BGYEfTpO2Drpplr81kAfvkcPvJvr3hfMZYf/Bv3Rt0ygl+rb+CZqDF8bm+IAI0RKrZC3dFlpanF2msoddKzMBwABL6UA+0MwCrpX55ww7FjVfmJvB77lK0C8P677z4lm02YjvYVJweXH66z7tCAstOh4WwMHdBhn5OKIGpRV8X2xQEAhVRS6THNgufcINilO7biSXDeYJlFZxLQ8E0ifwda9L9p6OW+2ZEKobUxGd8EtZKWApVAc5U+ViDbzCnS0XlVgLU7gcrpzbj7qoUmKd74Vz4r/+BfnAlAtfHOmh/f9eZ/i0//Tsulr5wdrElUjQka4DnsqVuyUuM6fj9Z/D5gIaAIt4iQUglfYQiK5DJOtPKKhKPjLgIjc7UPNyS69YGYnUtXX4+dnbjh+NFjVnmybl3lZ/hhdmB02DIyOQ1sa+/vxt8iE8w0Qpmxd2BTFWJokh9OKGnx4Okes/eZi3Bpa0/id7qW96WbdjuHR7PnqZqCwKZFJPsewuuOuwtTA4cUsBOIOTbvJA+keWvUZq25/e/Tn7+CH/ixz+EHf+yzeOFzd+XMuWs4O/+lFRnqB2t/Bnd93/3O2ue8F/CIlaESzBRUY/ZkmrrW09BtZotIUcZKOI30hbEoogHe+iPwfZo5JCpf/NIVr+HUzrFjzQq8C0PZagE2O7tv8Pct6e2G5XvbzfGwfHrX0CKWfly4GxbvXIj2lLH0N6F1NbkfMttP0gyww0oipQit7FRVrC/Ln0gBfwWv0DGmYtY3IKHUx2nSPe4vzH0/c1X0fZ+F/Lf/aoPf8w928akHhcebVkHsM5aku6Lp98vK1BXtYWEwgViBmEHbBaY9mujg76Dhdmr7q022IqBVOFb7CL5LbBZKUedSInjRI33K881rGIeWF7sll05X1lYQDGA+N4fsy5NHu9i8AVvKygIsO7/Q2/xz7vqGJy6mboWlt+tIewM/H85Ln6vhOWCte0YBdMBy8I21g524mrqQrxJ9GKxOlvQ3UN2IZXQaITXAhVLMoqnQM8W23irv+5zgn9y9wd/7uMjpyybOaYdsQcQTv8iqLUKAAmQT8eWWaUI8/bVYFw+BDhofW57rJf5enVegWhC+J6mOyOBXsKCpArot1On7F8P5qCcLUU8pHEeQ1E7DYlYXS/O9ePiT2Ig9vx1rfOzIYZyzb5RrznCjQeNXKq4EYAc7t/HnJd86wnyU0muBmtDioVkllKoStS7AFHpVsEoPcIsMFFCr8Ng1Xai0fu7RqXCWJflPPMCO1MnRNoD8tmRxOiluwTU21hrw//pv7OC9vz2AXlOyfDw0ZJsSSNXiFVB98tZAcxCOmleKFk/glYfeHeTbNLvRFiENP/arRnS8bdA5LcLVFfG0Ar+bgFxSEwYnmeIwysiPaCpTYwrquNJEXhcGmMaxdPYjh1MAWrE9gbdzl1YCsNls8nv9Z8f3aM/6DAonILBH8y4KWkBsUmzS3gYaQ9TQ/pLvYyU0fOGsxlAr5v8Yb/d7lqsmTDEJtjx2uvfBuT+1BRJK86bLz6V2p6VLgt5zFvJ9d+zifb9tv2cc4DdzZgsitEeRCqBbMrM3AUgRDVBnBCWvKZx/AG+JtkALFemTyHSFuPuopUcga7dAfm34CdxPpBBwnyr4NZ0gAo8iI905e+5jJtOw2TUSoJVxsPdArIDCvTh08EBQ11ZsT+D6AjDfENGfBfzZiijI86ZBEAvyVYf1OyRyOaIBgSpAgQ81Zp2dBkC7TDmlo/ZfAKyeX+FpFgZ8UL6Q+CZQPz+BHTRKr6jONv6XD27kR//NBqcv5QSYwPfuaw4IoYkMJ64cyj5Kcucxh6ZHQhhIa7oUlAME0oH733BM8H3f/Rz8wW8+MW9i7qA5wR/+xAX8T+/6LD69fGtbbmSN4Uts0/JDH3Rb3zwUOlqANqBJc+2I1sZVsVfgDEDpdgSqFEwH2YgrhExMu6Jh+HzSoNeONKgIQPu6E/7ctpVTGbqkOng1oOJWQPhmvzRpUPWGy2U2L9aK8iQ5Z67SBdbyDFjWAJo6PiYWoIfcaT8C0f1Q/cvlp69A/uKvzjz/YzsEeK+c4q4+lBAMY4Jr8MMaFwdM3Gja2v2AEobkOP9AOxycDOIXPXcX7/xrt+A1X3ckW8Wh+fNRed0fOIW/+rfuwc/84heyQ1oBvtqDwPDwjQurtQsMmt+tDiwzcVLfGrLIWo0kgtbbFIMrXLYU1jYZi7Qq8Iges44jhw8JfbP0qd3Dx9vPr97hB0oUaP4QAtCetzxy5DCFnmjhu6++tKnu4HFFcIULjKauA2UQBTUsBc0ZJserJGGnJDuqJgHaz6sBWxL7gETdvc4cHovJ/P5T5yCv+6e7+D8/tql9DsBrUX4OfkXVBTbobBceAq2hzPLIIQa6EkK1jcczT+/nfviNz53BfhgZJdN43PPUDQf0R37gFrzoeQcxAjzrJuEs4B8BvkUgeWdbk/ioy0rs/gIRKcxd9kwYUtcHSgAUlEl3PePrn+u8lAM7uygbgcOmWBGA+cJv8vdtI6HYEiCUvL263lw0tHBqa4S3NHusSI3LSI6ROqLjeVz4wsWFfrFHZuBSlmfD34BFoYSMhs9RpHP7BKfi9loa3/+2f7KDD94nBO4YE5zzh1xWYUwpUjNt4psVDYiZwKZFy7L2rcLgAiOOotGh1RSopv3/6OtuMsOTdJIVy8nj8zXf/hwTrLQ8ZYe6UK4EPAbhA/c3hMAn23X3oEoTS3RoS5EyqTpeJTLcq7FEixVoX9pwgH50b8wNCgGwR8ji17k5n2LoBxJrKj4QKJspJUGRYCkhGUUguwbQRLdzkEXLV+nt7aTZs/+6Z2GJDuK2EDo4w+pCxhbAZQLhXCxx/D/4T3d6PF+rVx+kL5SNxnS4UMBMfAe/kI7y9AkC1dZ4vwNvfYz5r8fk0xfor695affdbO7695hK7l+4Vv7mW9tX2lgboC/aov2AIqxLe3tYpW9AV9ZDB6E2rukL4eRu6R5CmdVpFbHvX5VYcFs30okRSpeoJAIY1vzhQ4dA5RbeFQ4B2NkcKD9Nf+TIoRBM87dtAgOpgQvPzrPeOXBTI4uPVp3iZzEhKuHD1p7liJj0kIB7RUDmHokthi8SUsg0+mqKWFYTl6LUj/2RX9rBvQ9uckt3BLtduHzBFgtEah9fQfvB7cj2NpGrwFbTrOEmRFjTJ5o0sqY1QDmeFuOG4zvZllbaR9TSDEJakP3CrCygMUg/z7TH/kKIlve9zQS7r5jwDqG5BjRJJru83tbr/qmru5x4ukj72bjn8MFDjDjYrvBSwjZsBLfFBTP/bw8X+ITZT2X27lAiE2z5QA5kmWQXaUsQiJwfiuUygTDV7qjGiuQjwC7pYoi6ZfD3Gk+EaVoNJCMQRfpLqH3/a7+xwYfuJ2aYmCs3hbRMmrNu82EKYdm0Y4vY189keghlVqeTuH10wAWialbuoIP505+/hIH2+LpAKCHx9INXpe4XAJlO7Q7ulvbA/Vq/Cp1nU6sDY2HOvkReXZfIwDicyIqNATEmSYcXEb3okHRarnJgd0cKFZw2oew3BKxv8fc9kch2gKQ8XAIw1/cF9X6a00NxRXP2J0H2ffzhaVVyWqJe5HxrLEanSkZ0jFF53zL+75PqusQ6LMUoDILc5vZ9nwN+9Dd2su8WqDEKnwsatMd6Euuv/up8I0UcLtM+faRF7T05jkFvsNpo4ofXHYxTWpH5yIc/cR4Pnp8c6Bjpjx/75+/9IqogEQ2Kz2kFon2Q1SFL5FSMH9oxu6o2/7S8Krm+qMuvPLzMxfL5Nw1iKjAVj99rvt+yGWo3zlaAk+M23xLvs+3k//1nTVkONUGBobcmnUqjgEdg6tJHZZyHgGTiojUm77F+q8Fi66FftHQNLiC52bX4KJqSqvV6p239+AOXddnkWvo9aQgeAtQgrEjMh4O+8wxJZ9nG4E26LKhNhgNGmeMTtdi2WZXnOrhcYFxAnce3eP8P/OgnhbU9apFffO8X5Wd+4bcxpla7QOqWCFON9jhlGwUmhbMdP3nDwVhtBCD6VLSddafHuadkcxW2Weg+psIEejsQ5oUzec0PZUd4vuK17gcsAjA+MHAkv/WhK3FxOkGP5npnjEdKusNufkpH0xHl+D0CQCDg+FwF4DkSBKdKVhfr/KReilQQMRD7T8piGJn6yQ/t4lNnS2UBbG9bWTUx8P16b5asIhtDH4H6txuM/HugRTF7Uz6InhGiBGe1CB3Mv/i++/GGv/Sb0pLghvnR/+0ffBp/9q/dZXOfggeiXFIomWvf2obfv9pEo7GcPHFILe6vNK3s5xXwx1yxpYzZ9VQVt8xu0UCrFO8okxeyu7tL0tKSPI/d0l4XsZDdmRPR6cOHy5cMpeLnXTtf9ymTm0o3lmOTR2aCp9udPStCfQIoRyeSxXI4yd98/yTTmKMz3gei6d5JM5FS0jK8I3Ndn3oQ+Ou/YQQ02hUDGGKzI+XGwK85QSnArh1NxsWfYrLI0JQ0x1MOivPJnJsEQ0iVgMApoigPz5Cp+sX33YdZ0+Obbz2x/EhFO/cLv/wFOXv2KlZPgS3DrVRmW2q0+wyRxjH2mfo+7zfgRc+/AXYRocZw03Krpkk8Uhbncx3E2UNojz6XzifFJaj3M9jEov1NuS6YGL44q31x0G3zv3fuWo23eM+aA9x+7igWNkkWwqPM3HfvmoR/0vsTyWiq/IC/xOCXal0XE+BLfg+8UnEKBER1mhRfM92hd8/qCgx2x1OJbuVMCP76r29SBQ2gLtzBAB7pO3RdzI6S8qddaWoO4WRSHpCCBMEAWfYAikD01xrBSS3cQYq47pf/zQPInKPhWydY2MYQrFmcdGr5mylAAkR1a+4ZvO62F7vj2rc5JRVYAN22h/tkSyhPW78MbGg6vDSVhlADf3+z4I6/q1WMkOzMewJ7e5PD5Jb2akjfxAbYwb4BtoxMcsPI9KDx7CkeThAX7hxEYggWy+/Y9/sR8V1fo1C4MImFz2/wegSFiqE7Fepa3yZKEaG9pEp8V6cnEut874PQv/fxTYBf7A8sEO4XwOyTVl/Im1Drk1ONVcQs0qGxgHBJe0alD+Kd2Mq7E/Qj+It/oBa9Ya6uqclT26TGjwxPcry11LmmOEG/kILpdKjV+Rf/698NaH5R8tLORHlZ4RiHo6421n5L76eEvEW+aDBIj8S6QIVRZhrq5cCBg3FsloUF850CCYICtZ878p8wyhqY3agwyDXMQqtm45o/4rDO46E1Nquc36NDpx0HmR8C5YtNm/RjYQG8q+6K2kQnENXPIhX+z9+9kaLUTMOvp48FQ1IwqP8pzYkzyecYQF6aqbQEmQ5aHB0sAGtuupbvGcGpfEyHqIwyiOv94bQ7spb39Qm1pEIKzxit/eq07i9+/+/G137NCXWh10yD7ItGm6Viz13EiiEVnoyqJlcy553eO1bEt94IOzsbSeUKWYI+m/b879yL2Bk7sDvkTtjlCgqnhUrrkux9Wh5Yl4zFRxi1X84aUXIwfVJG7e8TlXy9t4XSAbi2CLKvOfYQwEpkFLkYoj/5oQRzcKTe2aLwikA4+EMgsFiIQo1g4J+mrvU9yO0VKFMXAr9xcXX/gMKjHcwpDBW8w0YVv2LLZ+3cfZvz6l/OVaM/uWmnFC5N8Pu1ij/2h1++aP8pAx59/6V/oHCojTvmJFZac73VlGhRM6ZrqBoDQdSWEqW+Fvzj7XM51SJBG1y9egsfXZwFh7lkLMDENfJsQgurSpVeuFgzHUA6qFu89m4d/EhweRuNW0locY4ZagRYB7gLv1Ugptc7aewG472fhXjkJ+yC4SHU00ooBvqjPtn9dlFauIx+9OcXbJWUaIcDO0A47eWxMbrjIN2i+bsSnKrAMHgHfm8KpxzzNlVHIUqwb30ijK79/j/+GvzEj9zWB2q7u+JTGe3ZFEYinEcaxUNN4usdRlZRLHUrG49OepEMsVsIMHyGRr1m37ZgpkWCdnd0cwuv6M6OmxAkGG3d+iHiZN67PNI5mfU4+0XxaDNXEbMHSXJ23C5XtghloHBNb1VLMiUJR0vZYKrN+YK85fjM/eO9KlbAFh6HJgVKHwMx7FEwQlHQZZ6b00Vz1OBt4tzJXEdVdABkdIoBjaRHNT6v5dpSz5b9htWDM0S5PNoB0v4vesFxfPvs8H7/H/8GvPgFN+QCqc03SjBMIqIHhJIIsYjIYIqKE2jCQ1cqdtbAgN6kIiKEGkpQugXYAZfNgc0tu5uN3MJCtGSBSv8KCsn7oTrQluwwvIsgL51omfWYYvYSnzW0vzeEahW8djV5hoAEU/3/BL3PMkwDGP8Wy8sR0j7v+0x/LyoF6CCNnmq7DkhYELTMQxF+nqoOUMgadEjwD9GXUeP/0dc9Cz/8phfwoOssd9ANu77UVyFZ17zeOiJcB7+WwZNaPzFvdJ28of8gHyJEbcGLSGz0YMZCB80hhhvYBD0SBPY5FKekUwLYg0+b5nNikjrPEtLFfWiv/Htircx4uGV35qin2veStBLhT5oMmCYusX5GN/kLMuAoNiqQ8X5bpkgKorVLvgiSasR4aFsDQTcgAU7x6/w2DSEKHhkK4wNfTPpTFlbzLTQ0S7xPeuAWIqfe79fgWtb7Yge8rWGzK8DvkzFo7/ncH/v2Z+Edf+l3+XoM4B+HYvlSUocHUha5/xJhbZS1wxbnHWW9rQsaNDXvN5gY99f8Vu8cIhKwinR8U5Ey25iMTpJzu97htqoHjxrZ1hwKFQ6FziEQucVv9O1i/3X0frPESpNVsi1s9fXrA1jRY/W8jPisGRP2yEBnx6EiYTMqZSH8PgSFSmXrcxQmlZVVO75xfpmu7Pt+29aDK9G8ybg8QIB3P8M6XRrxwVd1VPYNCa++2MSrA/wjf+/XtIdbfuTPvBhk5baE+lKVr3rHbTP4e2USFg+u3B1cQnMj4EGqf5LwlFzWGXTRngNpUsrylFx0UijCAQ8am2SXQpqdWqgrOtP4iMBKkOF2fWb/zOzn5BwA33xtHLCTNgHmuISU9RGYZlUt06CSuTUMpkHeu6AguLqku6GmpdNK+L9JekYLk+vRhaRLFhQl/m7KNBL6lgbe+1kKsCmyw4MggK5JYdHYwPWxUmwaZDolzA5rK/LoMpwJVNCnEDTw/z/veCVOHK8mfK0BfeqqcGjqrl7omYCcb4TTGpfZvBuqI2/HoRbcSGOtqF9ho21NEIAU+HdGQexXe5SjfYYGF4LEQ+mbJMCts7GioSTDHTV1rctGb7Qy6Y3libCDiwXI0El/kILHGkBUB5vBTxTxA9i9D5t4+rzLX9jKNe3xAcGvL0tAQuWWR1B4rVKeOcoi2LtIjuqWoI3rrpIIqQlmpCZStgw0+du0f/Bpv5RzXypVmfvvuTT8jQ9TCgZFchr4/9HfeqU28Euhm1V8I/fKUy5cTzp/zkv5xTNpY60iGkPKw+chLXaZaYm991ijznDVNX2fBOGwplJWavQ7eu0gTJ2adBhwMNtbEj1fP4aVqP12xVLnrPXzwo3OYVCdXpJX94orV2fEIjerwQCkpRDE9+ekaoHTD7stN67ilcAWgB4Arr4/Y4si3buiAUcF3t0upSG0/ZrTl6aZ/3uFObAwwazllaw+fY5reHKoz0uV9Ums7NRknSwx/oyjO2i65v963HBsZ+T86uTbm52WXWXYd4dodoOdgHzihhRCqqGuU6ZML+9OlDXRj8EP8c6IKg1faavdapegn4WzsRCZwtS15bJR9qEGzbG59YkOh79fGabJlbOLVLGY88bt1xYLsLO74+DKraRqZDWl07WdaXw3awaSojUTJ+r7AzJU7CB1y1NbHdoLgkNh1L4GOiyMMBjU9iw+dN8mGg3Bi72eGA+8xiIU3p+QUaZDiu43qoyzV7nFtJoo84/gT3+9+qUd/CdvOIBVSWmq1lIctKwtNbRrimBo3Zwn+K3sOEtRJ95Pey8wv6awA5+5jLelRYUprZgTIIA99bUpvh61Gz1H/HZzWBCnUSiTEQPyqV5u2x0iQTPt35zEWFygi5UlTU1HhadGc7ML20xUM/46Fe1fOy7GADIJKlV0ikGXQlfrmmAFv6BzXe9fLA/0A/dZxVNdXiCFgcw+oAUDcM4ryt3Lc7R2qtsiFa7x1eeVv+XNac/Xz5x/t7efwNYYDIGYgVwsRSiSSjNYajRiZgiqnhyna9A+1REWYDSwHpMykYluM6aZBbCovyE4wlaornmoWLf/VZnoqmVoLGtPigutWNZ6KafaDNPXRnfL55o2HI3KPWPsCL6pZCTbPVOQpYjxuwaQCI1CMAZsYNoteTuthQmOFMuzvGx6J+3ayGQKJ5RxPn8+cxkgs5ACbysrGCZLwau+vsYEJearc92+EyZbMkIJ+OE/MOdvDu8NnqibAsj1tPdnL0F/4KcnOXOR+5kzJkZDE2rLDpf83z+wU2Ab8LN72b/y2DY5EhCssWRy6hIkvhLerbzHUtLTmMZW09JlSMLPAClhcimnqM+trTEFPqhzZokYSwO1aAJApXnIQhepLVQO3CkZtxBz381od4pYMwfW4/s2q8cvIa5cb0SKvHoAnFmN6JRPuE1OX2QT5ECD2Bo16/LBL+RspAKpoqhMd1CHW7SJg265Z0LGp10IVEpX55eTN2yw2vAqDu8u3JmNhMBBkGbw4zv/1z2567NDX5nWsKAuh6fl2JmLOzhxuGt8Rw0BSLVaEiWQ2gdThJpfLBbOfniJAWJQUmMCOK/K/kroxQKcnD3UdTeAqGpZHJpwWv+uiDdl82n8YqwNaWTNNk0UHfiEXRRNnKHAClHn6ESHpEs7UR2gmjLuB01URNT6POVwNb9YCW6UTF64w83ZOnuZqIuDI/503RUXFtfG4/XRQB9/q78AP0ONC3/7vd941CavW4E2J6H5j+96EiGYv3N9TePP4MeHPjv2R8trBX/28+wFhfBS61SBGNNQzANJSe+Paft+0sUtLRDPXzotGd/pIHA3g3CpKXIgi2q3S+FdETSgJYhh65B3pkMUCKvvBmUpU8OSlAaUw5TdQGlGaZLawMe46EKfOxejWh9tdvVbNDZ5qTNYAUGdL0HSEihZwQgBuq7oGmihQJPW2bLX3Pzi4zEUYy8mJCopXSYk7c2Hfgf4hucl7y5O8dyLP/3dNy89+tlfvG/53v72/Z3f9z3PXb7OJJukRfXpngXpzEWV7/rb0wL+YPi8INAiyCAg+9+nvwS86FmCyN4d2vC5y0pj3YqD6uSouj0xH3HfIvaLcSwmPBr2No0mxG+VOPaGqOBiKcQpr1sahlSIU9CIpEHDtBYBmFomIngelbS/n8p+h+Pr94C8Ik3Nz9NSYrRwg6FOkUhy4DOs4F1JJJb6SQjx1KgLsdEWfNTdL/uCW5johIOCmCHus2p100EdI5AJCcIv3wP8F98Ym3pKU9rvnvvx/d/zXJ3/ZAV0GsdIe9r7v3z7hLs+q2FA4uRkY3EFUKxSjqmdaxaghxI36kKgFq7M9TRdFpLTKZ04DfIV6YqHQMYjzTs9laajs3J519ZgMhwOuyNc0iqkjKgWB5UaJgoW9AstCFPnu1CgvcnDRhoL5T3y/1yjsRYPWmV+OlmCEtc1bg6biL4sBFjvOFtD6WYv5iXTUgpKu5YpdEEXDRdaop9Z+nXvWcS66kQpx6QlXYuGC9aWb9K81pvV1I9exy/8ZqNBUvpjPRw1u9n1qoX9vknLM9j4gZ+Z8DP/2h87XAusprOcNnhFkXQWAMfY5P6a+ZHptKLs1fS5ExSZ77pBa5/7QvEWkOgAaFXCuVXmPoeHQVno6S0rg35fPEPhfQjQZy6F0ENJuhIAkdO8HoPG4TNhTlYL5mLsO8RuDmwXWJDysjwS13srxSCQEJlkIAYD5UkOjdpjzavtewz+gTtgeSdpQ6HPpRj4mU+bDCWgbI5Uc9OslZmm4G//6iSlS72/vJqEYQNH8fhN4O3jn/0Z1Z/519mXALT11ftke91ZCY9VaYM1LORytnyDXXaYqglrO5zotfdWPT9flZpfgNc3rhzErghT6S0X+g8SlsalzBfcMoYF2m/9OpjNGmaKjdRA0OnNrAHPjHdS4hKC+cYCExdE+devJ/Io4E537S7J2Fh7qIuYL7zwEvdJFhIgFw2NRC4xdHgvxQCUFzslsbEEeCH7JMV1Y1gd5aoCsQJcP/Y/vBu46/M5n6pFuWiJ18et/fOm7h7LHOrEz/7rvU62Sz+kAt/bR/YxrYSmWpS41Qxcyxd0Y1kEMMeaCipLiHBOoS2A5CXCcioi3KvUB+2QP8g+UGevFgU74XGlnRKqVwbZCEpZUm1mAaAPuHbtGhxUEbtUDWUYk1anAJC1DOa9Cqc9xlM6TfKaNCmAaQnUTiq1JbFTbP6Q+hXRkYx5l3q0aNs10OPVwCUELL8+qBgBTuh+3yryRr/3pxWffsCHJmE9VWseDFnVcr69LrTn1ydXrNRf2SqwMWU0pC3XOM0ttCLsN1GYvj60vr5j59Niigs1thFWKseZusfuF452Rj94nsMP8SXo2JnciqDONwlkdqaDd1F+7b69a3vg0rJB7y5HCM0BUnEMY5jcmHDvpFBEqC/sRjQHxsKTOHSBUN+48agQclJYqzlnVdWya+8RHzaKk4Z61m6KXWMbj87Bwjb38jPoHIjq+OwQqDxMqrS7fO8DwH/2d+eoy2mfrrIvoMCqqYgYLXH+v905fxU2nzsXShZCsghwQdUtY4SgTqkphlyruHLopNtSE4SwVsjTpg0kEhf7uJFx/tJ2+gahIEBKU6SuRe2Mhtz5/EfQI3obb2jkVsv0qZYMFxToytUqHTImJglVJ9CyMVagagFKGzxd5zQkeiR5veYnLZOUXDUxoOTnRXZW+gwSAOkNmbOd5jgrQjzQ7vNTzjG/LscNLtMaeHmfLuC/7Scm/Ni/LKbX+puxjGlK/+Znf13lP/qbE37lt1ywqF0gUziGPsqWfup4XRxcLlqoTzQsKCvlHY05ZlBph9/E+y+98t785I6/j7bAWMKnBIXZfeOMY/2qiWOqwRVm+APsm5Lj7JrbfS5/GMZLC4OGEzzFs6U2FALiwFlNUcM1fbyKDo6eJsB7qEvZhGb4M8S4D2bR1puIpHbLQC42AV9zsTTnN4VvqUttDSLaocOEhsOEFe3pNhoofaT7PRRSBMS0dPuvbVz9j/9y5vG/AXzzSwTf/uqNfvNLVObd2KVbZy5BPvzb0H/1Wyo/O9Ode+9P+hma3RbWo1JVq+cYRnqUKOZ19Wmy8CfyZ4l8CiKTpd/bf35tGeqUisdBALPG/rvlRD0l7S8F1DJ5beDkSlwdManZdTuUXVAKkWe40ywHHH9Z/0SUT7C5e3f+NwVgkI4AvgwED0jn0RfKO2DZedF569uUHC+SPQDf9DKLoaGCurae0nuPEUsCvq8UBlo1n9zA+xJ1CVARUACcClIGkG8PLWItDHFOo07w9fPd987+wL1fUvz0r++5XQoLAFMLUua3zjXB2YSyokOoWyEEoH6sroscfctb8iW3ULg328dl8yik8+JxkZhg6UuiGg/o8Z7Vsu8d58vS2Zhccfly2qt6kIPqHu8vy8PIlzw+W4BkObPC/1QLg97jB64uTrDdZJzamK4zR41+ppRaxGYlpqyMOrzFWbY5Jkhmk75yIszUhQz2uGj7BIpp96A5FC/xA85FC2iTQ2ZQO9Uf/20DfwF6DF0K9QjNPLY7HHepzoiO15bWwP2QeJBfa78imhW/W0D12Tg+fb9Z6z7LAbbo2kRfdaMYFtSr1WBFLJo+17lWy32LkivfE2T2vIBYqUVhEPDOLlgpKgu7cH7SMN2REUBjmK8+vZm55z2gsnftWtAOG4dFbUIyF+eUuL2kNNfIy8bCf94DVIpdRu40pWsLjyv3zzSlVFIO3Jq4sobvMcRchhDg3jOlTdiAIDSRTBe2/gEoGSnj+alaiyI8y3vNNh2wtjgrzm6bb+ELbNmMY+EZZ8jUsPW59IOm1b7YXWnFHUGxJt71ukGW/l0cUNVArN8PQXx5PMgCqEZTykE2GIfxTimPJ3WtRpR+WbpgHvni+rB16eoYAZqV/2ZPpnv44KUrV0PyncP7wHM8GSZzba6h7mwCNSTdF0fIYtgCCTwuLJ7NnI5hmlDrgggP3+ZASP+UKIsvpZvuXiIVegVMxUqjAlVLg4FGYEXeX4WC5oTvrSNA8AdFvR/rc1VjagG/suCwZVkEJ8995j5SOG6JbUfepkKwVTPHujmQoaF+oJQ4AAt/q1+iJUsmfIClXhkepDJ6Zbh2AdNoi+6HY6dMqwtELInzbp74eUquTve0n9C7hw+OXrKX3KVUcGSHJqlPTJ+qsMSsLUDzSoMUq1X8MlXPNHQUmxIMW6BIZsYdsMfksqu25hqzvViAArRQJ+V46YAyeAdnWQfNWoSC3neFUumNC9K0RSAX7e8CmK9VSENTre+3/pY1tw9nziv1zKMpSPrQZzka0lifPscEZBplMNWI8hv8kyEo0vlVFaamyxurWwwnUUMRyByQpBfkO83lsjIYbVHOq+By9er5eza3vuQlpzkdYr4ox8UY10H7wKSeaE+sqfkPkju/yMn2kHlqBAp5kZUps4vy3id4FEK4kFBSHKrFuvc0VTTZKKbkoglsLUKhESqVCnpogLPYp0EDM+VJl1yKgBTtHQNi02+BB+qX8OXUbxZOHSjTR+4NdRTg6RR6E/EMxHDrjx6aMBYFaD6KpG9n18H2ghDCYqNOSsWLa8o1r5X4lxSROeJI8QQofOL9FzdCeWJvYiThdPvF+I1N8p1+dBYAyc7Uzg0DXoCvFZ5OUrrkZ+RH/U4fETsyod0oF0U1lXlscMUsZN6obX4EGD060St23KSG+eV7kWBDAqMnxRFgkNd5FKbja0AcgbEAONrIe6LaqfoeCfCcXxYI5XvjPQme8phSkGO9Sv9mJ/iL05IQ56GVoD/5yzUSCogoqXdPeM14fkkQfL4nT0gcwp4lrYHC4rQTLiiulDoLsejT8tYkQXuWp0+b3Rtq1Rq5RkGe2SX/QHtdBGCyD61cuXIVboYEqPBG8j7e4V0VIYiECUx95040fIPKp5UqdG1kGJCIhPQlc+VlSkpCnalizc38rvm+D31BtoQoHXQaYEfRssnrOtgYoCGwGOnUUq+iaGyQMOjI202gNCUXDp3UgFUbgibaJ2AtkH7aJ0jwq785hdLMlINE5BQx9Vy4yGlCMOL1+rvV7+fY9gtzd0UC3IGfJmlTNlkJN9BIpOt1CXvbmp0oxeaGo5yzXC5K374Jq4ZCpz0lyfS3glA9SwXMvwlSUmdDkEKTE2BfhKQc53cuGsFIeNiUj9l0WVKcjZ80ZObXDNCer238P6JApMFc60sBqV+WwBwth4PRaVPR3FFP6Xk5x9SGNX5QrrgJtX0lJwtahEEGQSuhFTr3qx/dc60gBuiFsvo3LjO1RQyZcqtyvlMqransco5dQqXCNbTfoz1EOvlKitoXJ5j423LayDw4xDMjxH4kkjE1hiwePOP+9OjnIgBXde8OULlw6aKYBylgSZQMX8kQfYlqB43Q10mzWVRawjtz0TnfFyZpB8likDsUrLpxLvXbJctmzC/f69GGAdAKZqUg7lSoQxrTwQI4jYrzpPn5fu+mYgxJxnUBZEcURW8wUKv+vqtNF+Dl8LLazmaqI+9L8S9+Y6KjbiC0kPOcwPAv4yAl9kX/7H1BAIEeGcUBwqCbdRfErnSOzcYFU2CpUHKNi5JAYqZOfKM/1QHWHZAFGCJBLV6aGxU5JqXdPV5yG9ACPom5c+2kMVkIVe08sIzV8AvbsJrErYQPAjzYLu6k8cN+qk983tjv+fsf1JWEpjtlL+YY6wC2ovpKnJ/u1fDwseLndm9SORr4IIyFzkDDiiZUqU62AN6GhP8f1sQv9f58ZvYDfu2j9M3KmUQmMSsu4LREuaxOY9UmR6JBjugtlCijgwUjHOhYLs0TkRgX2rAH9cfV6ApU+YjriRjPUueVK9e4KXzDy152R3tdBGCJBCEd4YuXLpEgKjusfYJSlWT4qQp/dskUmXE2tlVDt3uVQsMxnsgS0pV/emhIh1dBCpiUcz9+7xmVX/6UdUmJKtDF3rIEHZIQCt2mfcu9a98BSLyG1l+iSWS+ptp21Lf62n4tbXpdeb3GNYsQTiiav/oG/f2/+I09XzhBpCwj9TDRSG9ZYpPJnVg3zhTBQ+bdm1OcC+17A9ZSxvfVn8ssLpAFQFz7x8QpTb5avSlAXr9PmOiVq1eQRQLr9H3o+h5/f/HSZXitoYV9oiUkzF0CazZ4I01G5r/3SWI+TzdTKRrfXixTVJPW1PH5jh9PjV/nAvo33isDsLQCCG7E0p9Ik4t9QJrnQrPrtl1gxapMKa2Ft0O5+2uLYX2PSIsOgtxeJr6+4yfOaVqTf/ieveX5YDshocXzfTqcRlRi1bU+Ghs0ZhoAHwiNTyZBfRR2r4am5IGAvtVBypAk2kwFnCHw3BF2J7HsAk/TFFinB2KmO+mCeUf4isDBrABtMKVJprWpRtdlgn7ixv6dOERJnDNUAlsG8zOc68VmnAYHjc+ADLKkubs8n2rhz+wZgxwYteyKn5P2VBYK5H3MwWudgSKqs0yKNeGAliIQ4QwbZU86NEazSBjdQgf4R4Ho4z87b4j93HszA9ijc4E5EeqxWVvj2D7/nhMWii8wYj1k1seaf9ixDztis5BKd7Ae/eIYlZIVydqyjtZwAz8rxh3BHf4+BODqgQO3g8pCg2DSKQEZhoVJYgg4JeBo/9jNavbJeB/LeaFXcIquFWjdathMJX0I0NiustdqNMo1FX76g30DTEtLKAAcJDWLVsHhDSbvR79f6v3M4wP8WoSMBSpA7noxhs59knwwf9TyRL+gbKk0++O2l9r/u794rQ47hmFgj2BUFfqtAK3ne229/yaTtDnZRd1UgzpFXvAS9ItDqk5KhfcTPAAk3LSPwK3AzP+vlO7JtLOmQM0PmDvxKf98/sJFl0lmhGFaXJSpeemxXmOQNDlSXE2Jf2PTqkxuN7+b7gD5bc4nsV4quDWJS7269pDJZ86K/vfvRYJ2FOWJAZpA71xdUbU5TTT5CRLgRlER6ygQuebt0KSDtdEAJwubgzeFBkO/EH2N/g/98OQ9jk61yz7zhWkWgr2gEqa1vdu5MN2D0wq2ZDcc5uQ54uv9IQNTqDaUDIkmVVbbSE1LEd9abRm9HF0C9YJ7bTnbuHyFI0By5ytf+ZJ7/FN5Jni+P6xAu2lK7ZFx26X3kxCMYzJSdUUPNIUI6dAgLrX4c8LCc/ht4ILY9Ert5e2RNVFwWNbua5/+rw9A2lNZIYIBMNbstdtRRmBDy30R7UHV/rKNDtmKuoenHEmy1/ytk3ocWmmUcGNe33XA7yHIOo5s/+3/8OpChzQWpSBb/d5JA7T9utyI9AMR8QknuXfMHd/8xCUEw5Ver2ND6RdBuQGfiaJMHPxOtYIfzTfxBth88E5uugiA7mkIQPMDLjfTYRUiMvbCIgy2T1CGZTF5H7Xj29fHB2OcU92kTcVUe5PdKnAEohNL89TKtmQK371nBT/2XtJEoS1B9KOakpUWj+lG0dwBWBKSAKC/xJ865gJ0kpdmu9Enao/ok2r2GYpyXbEkVK8LXA3HGlE1IXxwBv+P/9zValH7m9Qq5OKlvxey2K3/FCkMrvScr4RG9zaMFQhofiU651Oh2W3J6JAPekGHFG8IkddkfW70h/n/fPYfg0r9VojDu3eCEuMWGuT95XRZWNgqxY+2CHszflckxBXp0FBcecwM8OjLgvuuiFwRri0d63LsD/8f5JwyyPr5LVo6tXtq4kAmgVcI4SCAWhsUgnQNAh3q1OUbCXy+4DQn+sJhTW+XhCypV5mI+r60CWqDr+t/7/xnV/H/fXSyKbb0dhGtKyT8Xjny1z1jsFe4vGzieY74Mjdkpepaerlv0uF3gSWTKj06aKARoVXSjByabkXA7eLly+Dyqld8XfF1iwA0P0AoMe7sufM5SSDNQAsnJKnQgiM36EJAUa5PxLV5XKNxUW5pW9sabZVO5XvNkSt+7H2zBTi9ZVOQgKZb6E3Tilp+N0ACfP7j7aOl8DaYXzPQnRKFdlcJCyRb6ujDJ04dgqghgFosQxWequ2xGkutM/v5wz95Wc5e7ADN/CDL+NXcBEVIta2WrZqEoAdWF0UpkWiXI1V+Es2sBn3DRKTIuAHz/qsJTYYKlPSR9S31iVy5yvk/Vfu3shkPzK5GXNRo0LIn4CPOzRJEeGLpnoS68eEx/VGaDLu3T5nv+qaEiFkBBeeI55rxTpppD4NYUDPFP/sY8GPvMXvFwAfKJphUuSvaf5vlCDNDIPJrbV36KAuFSZyxU+tCtgBnH0EECw6kjIUFZ0PA9uvXtEdJIEFAzfF85guKv/CTC+1N5xPl56zyGFuRWPIMg8J5f2+L1j8wTivhXfTnuDXWOA0KomJhOq69Lt8cjegUWr7/VfAzwPNE3Y6hrATg6u7mXfz5/MWL2X7kgftKebxWCZc0N1ofaq9pC0UfIaMPFm9206nsQPsNNp+WFOf7BK3hT80E7r/5eQADCF0TRyGxCqDEjq+QxmbgD4uOFJSkJxnc83aE26MqjCwPILU+Ud9HoCKEAkVYkLfX9oa2O/nOtpl2/tL/v4e3/9xVMK/mMji+cKc3jFX2S7BPDcjJ67gVn4x2aLKpE1eipAHtEjeh0YesTIijjPRnZ2/njrE3KwFYaBAkLmw0SGK2eIA97C8IxevqsMiwm0xxUxcqsUq+hVB75z0j0Z3vPurYLIkZagc3UrJF/8zPC8ovpnid/pl+DdJ3glUxUKUt4NXhvBLlKQBOMArWvD/rTWoFbkOH9ugca/UQyhifxLEyFh/gVC0c/x7aqM3fMQvAr31krzoAMSUUvuz3yuCEZs9MfQc9shr6HoCd7w/gR7eT+vgDNrQXYPjKPmnsVKNr4zLNhf5geg+HP72sBKDPzbWfivczDbpw8ZIE/woTJxlZG18BVgrtSGxTO1gtwiM5Lu6B/2AaXLtrTn5O5FJP3/ZeLM2Zee/O830YlP6YjfqJAqIKpgJI76eu72Ggezu1TlkELDe6KoVJOQYoVJYgj3Zqn3OK8jVCnbyvMESqYowE/OuVj9xDYU62Bt5NLXMU3BvahcMsMqUxQ1mIlBxeD2er39NXWTlVPmaKd/9TJXYlRmzj4pUr5StQ5rPvwpayVQCWXWGKBj1w5qwvone5NRlCHM4sqx4BOJjs97i0Sl5I2xqJq5H724ht+m1rRyTt31zvp8+ggNLBoAaQ/tnWikZSgJndX7HUIqgjGDX731+noQ8pIE5p0ieImSiCtxIyAKMFglKoE3Uchsehj0N9VJgKfeSevW2XKP3bcU2OazUYFrFzJDBNtqtlSIqDzY2mZRK3EuJ61RWpN0PCorHxinH39/TV8w/eji1lqwD0XeHpp/xzc4T7UqgUoCA3RxAOrLv9fUQiK921dJw77DUKX6DpMKm6Eslz9ufgXk69+FTVsroShgSDFrNlrRPgA4Dg+gAZND2G67yd8o3RcIHSAmAfubKFiHp4LNR/ulcJ6OsZxrDTnGPcrzAVelX/BV2xcKeYtmWSvdiWACkLhc0iryHCVzDV4vsCBhWjRQYbv7f7eCZCkhPv0xFWxOhTf3Nt1vwevLFye3v+d9uYtwrAMhm0KdbK6bNnrWk6GHn+EqAKxlEhK5oQX4Ql17870SJlDlk/I5PeIjJEXcgHtk8cUvz+r7XjZPplAJLoqPmBpCW8dzD8Tb6xiXQ8Me7eKkoAV52ixIDLOR8l0yy/LrW6rs73MchKUMof6tjwMKiPl//k39tBDb+wNjAZ5xRoA7L7cyCN3gMcGm4uiMcH0IMmmD41zW7Q7vDpKjUFvwRGfJg67Py2yGYq87HsKwDf8MqX3cHO8Omz56ytwDdFgExu6UF3Z2eemur2T4foAAM/JiVmIbSSN6ChMUkIyJLgJ75jtgQnMa4XX5vHiyb2hqUAlkOhTDPYAqiiOsQL19bShqyErX8Ipza5Uzxwo4qt7WaESgncqEKDFJ5HWv7yGw7ghc/pM6HIrzSJeQJKuoQrvqwhhbL7elp84I5jsU2uTQxgTZn7CnTDIQBlp1qaj1Rp79bn3IUL/Pkef/hlW9lXAFrZsifglL+PJEKVyfPsXHg+sZtoksz102aLTyCfXz5nBEBM3dawKoO/lRefVPz8GxR/7LXANg1/fS2pBey+gLQltfVeEsUyguLFFM0vpa6M8+f9LlRRJx33yRnWvgokhvEB19tlX8p/8KoN/v5bDuFP/qEDCHoDpNJwXNq66apx5EwFfv0ysto0EH/yz6swIAEuOKqSX3FPX3zmtgFiOOhPt124fLl8A/SE6W24TrnujLz/7rtPHbymd8N+TPvI4UN4wXNuBjzUlTH6pAY+Ev/kmtvaM+2tCLvmshGKXVmblIMUIivt5j3KY2pRoTOXDNCS9fG6OfZc41KdZYy5iP3mD38WeNPf6Y7itsS2FCJdH9fUCerfSTQIXt6T93/PN2/wQ991gCrzeQ/7SgOj+ynkUJxNWGBj/ueGY4oTRyWAP841LB2h3Gcy2ntv9+QBAOXrD6keX3K4hQmZtf5q1xLUl+G5gNV62zjvP30mvv6kaf9Xvfx3vQTXKbvXO9mc4Q997JPv2Aje0j43x2KWMBw9dMj6b4PIwRG4Qu20K4rqZ62dT4z5gN2sCWkJLfe5QBgZkGp+s5w83P4GYZNNdI6dcO8OSj8h0cc+7XHJi24Cbpjrf/AisG3jS0cKFpbDMLJNSLSsKEYF+93/4Q5e+Ow+yRFZL+DoBCm4uSLj8jqq5v6eAcjau4DWjkpmZ9b90NCItnYTUv/lE7Mu3EIwobZtzsR7aMFrH5+kMNC6kVCItp3fGfxkrPUOPETZPNQF1w5u3j6GRPta+Vw4YIFV5KQD1PqXO4icvRkxZF7sMq6aE1SsAdEKA9xWQWCfgSIdrLTduOtwJwtoWDJz/PWP/vsOfBpzaHkU8LPjPZ6rtEmLQHhS3IueBfy+V+6YBxXkqIzDViEn1w2LAYd3XdMSOIIl+bpJGG1AlfVxn8BFWf0YiW+8kqDrergxcb56rmwo0teNDtwvqt9+2V+WQcrM/cv6b/Y2b8NDlIcUgDEkemm2ApeWLWYpIBR4Lrg7TynJoI57+NInyTx5IRtil9OcV1hHfUpn2AGnP0SUoQqL90GF28uErxCyYl2SEy/D/fZv3NTW2I/Ie3KjSpkqqQEjZ6k8lRbA6f999x/YAQUd3PryuExphwIv2rEBe3JBzjwfIIEP8dTiYGXqhjhRrQFX0jgUpUoT6HfEK+8TWWA/fUXzXSy1xaVSXd+NtBgsVvPLlZn28M7vXN61bed3LA8pAK3s7O28nT9/qW2M9Z7U5AsbXJi0kAEXglXVxTSLo6KbW0+JEDPlBOi82Ytfr5nDTv7GumGQujINmU6ivVdPwRWrUqoT//teJnjdIgS5ySZcu30/T9CvlebXzDzdKr59jC+ctf/3/IFdnxmvCUUzdI1NMwiQNWYqN85GdDojNrkv1eewrypZiHwNH4E0/jjPgwXxtqxj0SWhegIUa3OBusHWT5w/f6HU/3C0/3Ldw7moSdLc4Z/yz24FKGzl81QnwLQNO1XrYtJsUq8hRa6RM89nrIOjGnOUSjhqscVvUNR6AiKy2RTYjUup8X+NOLULfuQ/3+iJw+6VGfosCMHRoxIiHVCYYU26BojQanN857BkN0+TSRqqAhg+Z2Qldls9Shda3sZQlAgrdx+DKtlzPi6+uQVDY5IvUohGZ8CMNXQUPNKjNAiJHqRznNX5XlOfrwaBOe6vV649cu3fysMSgFZ2pp23si9AViCsm66xM77zr6lAYk3SkpgmVvvMfkPwQfBkeBcUmwQx7B5/49ew5RAw2A0cWnaY3bpF/2I9M/zbuLnIO753ZyTiXudAe+qsJO1RPuxtLgf+xOt2Gv3RKsihdBOuRDW6rGa4UAmRvllFdlclNladb6dgqK/RgGqNzcycX6PAeaMZv+7HFUtMA/Y1ToEhod1qVpgDtnrPnDtfpPPhav/l2od7YZOoadJ3+OdmBc6dv2jdc8WhsXY2Ks3wY9ISgDWNguMCW7i6jFpcB3WUdCVMfRyHDhqO6kZZ2bEkCH0A9mZ52N7iz8vh1712gz/3hzZhzLqKSpLrX2mCUcubZlXF4CT3yfru37+Dv/pftbCnT2NQPF3ZKqXRpGUeNXyfA3HrlBEjcZwXpq6dh6eM5c/e5kTSdIXTalMc+6EhSCxCA65d1Y86Q8On9OdhkEO/cOnykPT28LV/Kw9bAFoZI0LNCvjaIkxgBdkW3r9c1GmH5L02wsGZpdq1WscsJnvsuGqhQV78kbtQOQT+SKkIq+NqmlWrOflOQFwpzq9//j/dxdu+Z4OECwk0Ad8tjv0uo70nPmaV/ok/uIP/+fsPeh8CZmIObQNi8m8MoixFi+esex+qTQqrsDS/fE28mGUoN0f3/G62kqzJwzSQToqW0B15TcsOi6p1k1FZhDvLMYCgr11xnL9Yd30fifZv5REJQIsIsRVoGw5nzlpYlJLiUgODnVBWp1h27lRLnBemNaTq47T3GrLPoBe+lBzalei1Czf206vBQgZ/oXeZFsIjDh0e0pOzJKEGCy/OR/7Uf7yDX/vRXbzwJoT2FwcB9cbhyekRLignj27wV//4btf8pjOVojZqQQGiOFUlBPiC3iDuTQcLbFm9K/DrhezJsno9G5MRTe8sF0YlBawvhat//y/mM6aE1k6VN4FiMJpKQ5qfB0f+XC5cuFh+0ahh85Fo/5ioR1o+8vF/e/fctVv884tf8Hzs7u5giMross29fM9/Om3sgNoxkWFnmUq3C3Xzw+uJV7oWVKcOAuPKF0TLXE9tu5f7Yk2FZhXWnzled9pVfu5fTfibP38Nn70fsVPsVIdpmQP4xBHgT85av3H+U8c2qWjD76ENrjJaKmIdJeozxKU6BRUMMIvTQ+Uud2Rp8lSEWkuEzo5rrcdtpXfSF9YHyS3qNr/Nu4++8bmk5tz3wGka+kPv+m4rj0oAPvTRT9y22dm82z8fPnQQz28pEigmMHqd71VoDuz6usMXr6krisBgAPRSsdKG1fYSgrRoERFajSKI7twKV+3j8gNskUOKEANKh3X++5XfnPBL75/w4U9N+Mx9mP+mGeyyAP6FzwZe/eINvu137+D3fL1AGFWeiBY7vZRSINQ0Utl4pyymb0AkpeRCpHlZBP3H0vTL5BRnkJbrLM51pp8mTn1F3PQaI+pjrQJJ1xrlamvQ6Df/4sueXvvOb3zFK27HIyyPSgBa+cgnPvmP5n683j8/69QpnLjhWK+0CoEXjmTE55jEAuCcKwc3ObpKVgO63ckIRU9WwjQgMnqibtVTi09Kz/U4CKlOKI1PSOn2E8rANBPuvnIEOkJJO9kgAwX4D/pFJmb0QQm49X4qQvOMLQF4MqC9ngXp1VIE7gaForlWDlSpp60LxaTaQUmaZBe7P5OX2cgjqpyTzW2dv3gJnPE5l3e9+uUvfRMeRXlEPgCXy7ubN7FD/MDsC7QHEQJqyDfO4TZpKkPL0vKI0PMFJZIzvxj/g26J9W8rkpVy9AgZTiFtRL2l9UEIaF94455elfaFcQVqYdzJd2olxwSPR/mOZkeIFHDA+D3iwRCJxDTHR++MwC1B6E5Ex6BbMQmh4ETwGfFBmjciIeTidK7Ij/B3+yC4vubc+X6OP+3VgwqU0Su+u2GCqsr9TMXoCiXnp5e9mfq0L2qgcT1ix5fLoxaAJUUCGg03TvbF+7+EWCjkG1ukwum2QFfJMVMGNzmpwy1u9TM2zicMxN5uWARVXxvhL19FLDokb7Da+mePVIya0VQjKMyXjqs52qZ1rWMcz0+z3+corFc8XEeDs6hLh5kpFQ8xD1RFKUMzqI/rd9VMQulUiHYAvEXaFdYYk7qO74fAMQsPkfV15D9EHxcFYcEvUpjUuZwMm87YSNX2JQ2Mg5bu/EgdXy6CL7PMDvG750Hd5p+fdeNMhY4fBQZnxztNzqvaRHAZlfByC98LYAvX73WNfePKtt13Hb9Be7tBl0xFa/Bs9ChH/JgckBatcG0AW82+5knjIqH1QRBMNmIKFqHNXcByPJAy7H0tZKjuiXwFV9xMF3XrxJjyID/AfLDwGfxiUuy6Velxl4LaKl3M+GnfVMjaH18G9fHyqC2AF9mTSoVm58R/jsa1q3QRhvOAVlLbgq9lMJZFLJEG+txLjdjQQdddFqEQrnpVV2dmXavB1FF/nxmpEdY1mmA1DTFXj3PTAz3OEYzShNUKMUn/R41QuQJB+MWWXMFXbi+aIgR+tTHV0G863sVihl7mkv7TcFZJ/pwUkeCPi2vdCkur3XpoD9FSQ9ar9qWNjyX18fJlC0AzPzMvCylsVOh3Zio05UT2wamCoxbL8RJt2aqJyzFejDFMuTptJhegpDglvTLsCvuc2x812PcsXIBSYm1YQ0eZ/XXOP6W2D4pBlMV3GIqYpObDWgtn+BFhDdyCAEE/7FqJypARLWJUQVMhjFIPaYbVBYLyMNUj6wXw5pndwAtjY4qNHkVGhSXGPqS/W19mxVqw8OVSHy9ftgC08o2v+Lrb5wkoG2T3txiteBSNzPRDhyv9dQQ1oCNvz2oRFsPep5YjoJLVUeeVwu0W6C/LUbi6+SlxLcmQ/ZMmJ8e7TMIgGabyNOL1ZgF5qsLzTTUBpS/d6G2lr2Gvcb0wwzaybnWqC0+6s2Z3+o1kuUw3C1iKrT1Op6AABxA3iHiMIK3uPtTK3ekQQZNWffD8hfIVh7M5eMdrXv5178JjUB4TAWjl6oGdtzaz5J/PzZ0+++B5M2cIjTuEQr0UBUrO8FZBYRNtt+Uib7YIh/hr9RXc/DuWQ1FrPmXWeSnC1cubc2hw6GRvXYAynNcBqKNMU3VSIzU9UgLfUZVQmFbVcK2/atwL80Oia6qxvY0VfWKp5YnrlDz3Q2znWzLdIn0gsxqu/F0jKUgwtk5ANu6T2qNlojOOhL/ipGHs6sWdt+IxKoLHsHz0o3ffMu3q+2HPELfyvOc8G0cOHdqq9SWzPAfnOMB3Hcc3+UIGtnNQWtUwQG3sUw28Ta9FhNs1p53a4NZC7/oKeidiS49fEXUJ7/CWAdQ5suNmJbT2njtUTik28078RBtzfjz3CHwroFvESbUwr5wD2TJtMQclxs/d81EPNyObiLpjJG6t2gMuD3jWce/M6c01ufWxoD5eHjML0Mry3MC16Yf42Bfu+1LL15ZB4y9Fk9JgUXLVEQ6tvtb4/XyYDRMS1zhjaZPtUQuvmOiKOKaCcvQX9XNDc6ZxTbFDg1tbXyw3KFVZjMMaXwF+CyOIyIqnFyDpg4hxbSVL6syk2FKyYE6N8nKFc3nrat0EpPmT6v7YtKURiQDD8ldCyFrJHy+uwIMFRcH1Dk9zZ86eOzdMyvRDjyX4W3lMBaCV17xy5maKt/nn5hR//ov3t02yrctNGpcUum6jSqOWXq5d+wOu5TU2wZJ3albktHepjn4wmq9JTmoUSMr3VSa/NdPeHX2hxYxus/bl4Wh5gN1pPWITjBzloDl2PCI6K/0qfjj4i4gfVN+ly+/vnLZE1tzX8ohYHRNv9sXeSO+6WYIx4OEjzziExjRobm4u1LPx/S+dOVO+3mQm/m97rHg/F8HjVMZUiYMHD+J5Nz+r/QiCHwrAd4mfYhG20J24FoQlXacy9OOunuv1AMXnKyOhK3xp1DeBhm+tHqyR5s7ulq7yEcEQs1eN/CONneK8Rys9qnNTLWVP1AtlMjKpokKUaFTt5jZD5H01i7EcI66ZAYX2ZmNj6fO6La+nv0lapLYGyZ1a9PD02bPg3/WdT9/+qpe99DvxOJTH3AJ4aakS7BS3Lyv90un27bVIVdzLkuYwUqRBsw9LZRNpprm/LlmndlaxckvRlZ9p7IAKr3+CH31xdejAFM8T2GN+kLX2ldLJcgqRHA2L5kA5vVmcnYVUFWc3fgC6OsHiHCLb1HA1HPPuyS4AhYIjPjFkhDWzv4jyILS++zdxd1cUPqccSBj3XVx5aJo/ZER06bSeefBcBf+MocvnNm/C41QeNwFYfmdgT751jAzd98ADOb8AaENmfE0N14tHZphKGR1Y+KFvl8s+8XO35f4Wjh1xnqMWNTGzXEN9Bg5T5MIpAlSU7M86Rq9FSVeFHSkWxUR6lIUFoZ9TuiS1qFiP1XowWJ3SUz/a71uR/Bhd//rCpDJsDgAUClOnQmtzpOk7+pFGZv6bw51y5epV7u89DUO33vqSrV9s+1gUweNctkWGTp24ASdvOL41KjMe23aNaSunECix53Ktxdah5BMiNlOZx1gFpn/to19jDUa4D+Gc1musdw5+zdSCqEQJPSu7ZhEXSnWgLiZd8i4TtRknSLIntZS4vdO8boWUOZMFYkyg11GeVdcFFCo1etotwzZdVDrb7jt/4cKS5Un9XMD/WDu9Y3ncBaCVuz5+92vnuXj3PkKQXHjNb5fixn0MkUYpszwuTVU+9Fl1lQqhkivJz8um4GQlqzcAS4TXP45mBYYUjNFPyFq3H081zHkIK9oX50qUx6iHKsUZNE0TP3LpFhARjnX5qikg+4SZQ6lI3OtWvp9uKQ70i6TtmtNz1d/6mpe/5E48zuUJEYBWtgnBjSdP6Injx0a77H7pCJvcL/ArAQoVOmfPuH04lxii8cVUs8wVTgKJduERGlOKFBcPIPXMzOLIFjU9tpZJcfYZ7PgKpTaUeeAsSpon7vkoDMXq+Ak2H6ukuEJWOBnRgwA5R4OGD8u8EfYHwjQMXcGo+Xvdm1ufCPC38rj5AGNpAxr3CFp+h210BB/d5MMvMVEWWjSwg7W9L40tjANzMb3h5tm8y0qJCluLASHa27V31gerR3KX1q+1Pos7nAB0NEalNc2vEWmbVcj0A6k9JP4fuTx1JOmMCMKTRvwAeUWr368dmOErxK54plS4RSaJTrHxZxh0NX/i62QKBDIEBvzz2dnhXYNf3/REgX/pG57gctdHf+uNsiPv5GNHjxxe0qg3awAMK518tIZLjcc6nRo0o5iW69gdLQAw0u16gtOX6X5hUK60OL9SUIfHldzD+VWAtacadGuTVoBcmUJtvK7gGepx/+ggpWc7xRu0sTeAnDSa8vABijL3ESlNIFkEYeqjZRm1BUTarzjmOiy0Z/qhxyPWf73yhAtAK9vo0MGDB3DzTTdid2enfVzNWwFtmOKgOasSKyMj0S0AJs5irkU+h8t1BXUKKwRdeaqruD2IR/vOsmJbIX9jSI0Y0YPgKOqaG6ipDSOCzXlG0CdJYLvC0DWr6oOMuQz+r97mFl2VbgD5C0FdbU7nTS5co1DnE8n5x/KEUSAuCx3SGiK9cuUqfue+Zce4fZTcwe15BxJb7YCDH0OcHPFeSBtFSkGhVX46HtMk7efxdm/f3y97DUGxoxZT0Z0tFIIc15jm9N6JqO4nCT4mw5dQUpxTLx8W0tqF4+4a3/jbvklxMVgMFEbrAJTGAFcCfbz52GO/Mv0jUzB8ovWnPc54/+nTTxrwL83jK1haiFR39N1KX7HSLECjQ+2bJlqx1e1sGJW+hA7yXUcFb6wApA7JA4Yhq19XaFTSmRJVCjbhgpeJMGQ9oM6TtvYgx0GO7/6aP6s1E9QS1SYR74/G8wSjGUKpw95uDJCq/LjDPklxm/btGZkU53O8po5USrg0qZ2X9v2dp88+WBL5nqhQ5/XKV1QAWtkmBK2cOnEcJ44fpxBlADitg107DCKozVY0DGUMOzE1sMqNlS9oG4SvZoj2yzOaA/gjn4lS3XId0ybUynxfoPbZ/o3ITUTHNPjRQPBr9ChOe/tlomS/fRXbXF+sKTjOP2U4WSm7s68VcOHiZX3wfP3+zicD+Fv5ilAgLm0CLh+QW1u+Bx9vP8rXUif8W58d/O1cxqdRnbECHqGdePG/tSRIvNBaO8cN/oMAeicAEZkJjIl9JYoBT0sCngTyZOyDxBnuuzq4PRzKCl3Q8/F1TIqLK6JNRYQ3g39pODGItKhulTp9ibGAxhY12261PXfhFBVGebqF1IwgtdSGFfjntb58/rFNa3605StuAbh8+GOffCvs55i8NEr0nGffZM6x78SiqHfV9ThCG5m67EgKuMa5ov35fpenfZPiUNSscqTHTUlqeQD7RorSuUZ+FYr3Y5uVEN7hDmsV0TFEDHKL4RPEYM0p1zL4bbYyI2diXVIXWwVFxIJezZ+bL9d+WrdkdC4XTW979Ste9lY8SYrgSVbu+vgcJpXNj3OEqJW2a9z+0BmxUaFgMMy+O5FHWooopA3FvsUgqIPXLJKgBjJeD+b9Ax8mAPX7LOqUFgXBogDi3eCbArQb19IyEDAM49HUzi7nwCBfGEFddEc9DGJQVKmm5yKlin6x9VDDwl6Yd3bPXbhY+P5XKsz5UOVJJwCt7OcXHD54EDfdeBI7m531ZpA7XxH2Q+ayDMURQxgdM+8CeEm3OpYo7MrRPbG7CEhKYcbMIQq7kdmfDHL39An7YMFJwQ4Agl2A3AvxdqiW5PssBGSzyIKQGzHOjfthCGfeLOS1Ocrz4Lnz4IQ26/eTgu9vK19xH2Bbcb9A6UH7Vi5dubI8XNO+Fk87HxIPVbLGdS5bKY+di3/68ba44lzWQovLmZUD2v2AeMfg90oCEqa805EW8iB7lqljkvFJfcvd3Q78Cn7xE3xf7F8I8ubsvzE+2z/wS2iuYl/OhCl7J/GQjwT4e4uhDS5curT4bCP42wPsTxa+v608KS0Al0aJNti8ZbQGBw8cwLNvOjVbgy7DrvVL+HIp4fylxspqDFQdM/6r5bolKU4o16gKkWIM+22E8mCYNoXfYdZkS1iR2cXANcrxYSccQerTIkQfBEXNJ83JqYp7vFnd0pu4UXNO29NbZ7do/UZ52tfltG8MwZO4POkFoJVGifY2e2+dV+gN47nmFxw/drT/RJK64uXd4ZJcJgxEFBa1dljzDIU0I01BK/Wx6yJWT1Wu+D6AMQxawUqCR6nXeQXCKXc6lify36RttM7k9IYgeGctamX0i0+rWdt+pfRv2b54qX1J7cXV2ObOvWdnb+eNT1atz+UpIQBe9rMGLUJ0YhaEllO09kyrPi1vqmocDxYNveL6wD7ORSA0OZLIvk4sdXdF+e2ADnpYSAN7RGbwR1aWo8TnQXo8ggnKshTDsENpcdrZy1euaHNyh58m6o7unr7tNV//0rfjKVKeUgLQyvWsQROEm06dWJ4/bkVYMwYBVmctFNpjmhTVETwz74guVV0lxY22w67F/klxvS63ArQz22EaHVSn9GEg3Low2dPQ+h31NSkOZMm2OLvgBkL0iN5du7an7ceoV3Snz8ft7dHFx/PprcejPOUEwMsHf+u3Xr87bX58tAattDSKG+Zd5BY1SsAPO69OgYaNIgKQa9qqp1EsQUaJZHyAZNjdpU/uIBNgUeuTgF+RSOcy6+iRyfRAd9gS5B3QTKse/IaMICnFlVsaw7nz+wB/jvDsyd6bvuFlL7sDT8HylBUAL3d94pNv3qj84DZBODQLQPvRjkUQfKGdQmRGqfH6/r047T4Zszi3hDmDBunqqahKd+h64Ser+Gxu5JHgUO5T3DuQIRCYi8BImouwUrpyCEIAOSuUwskz8BeOvw34je7ME/aOV7/ipW/FU7g85QWglevRolZaxOiGY0d19hEyKa4wBihWSXFIKoKgKf1iLc/tYtTkvhO7T9wezDCAutMrDyspzndc93GyjeW3JsZvetsvKY47dj2N78C/cmHz9qca3dlWnhYC4OWhBGFxlo8fWyzDzg5vgXjEZSmpJAuulHyE6q+uAFy1tqxIlFUxAi8aTOAX51Zqb0oPylGK1rjFUSRNkxrwggnEvIN7aXk+V3UQqCzval9J/lSI7jzc8rQSAC8PJQitHJsjRkcOH178hapoSyZouJ/+vG/xFUoWRfoC2yjQmu+3+iYJb5Z21ZSiPEFjigvANTP/V6kyxYEkAYZ8ptZ++/7N8/vRnH7h6Wlv+qld3Xn70wn4Xp6WAuDFBWEjm2/Z5iO00qxCswgthNqoUg0ELSV5uoDi7yEAhZRTtCbvDlGQFfUIp7t/zn0KSO5n5K704OR6RSEwVldaHY3DeVkDe/uisguXLu+v7Z9mVGe/8rQWAC777SFw6cJwAEeOHGmOs3K8UfdLiitfFYgiPa7Z7QMdr6SlnKk6ux+UeKBn3/2EbUlxHtlpm1btKazLVy5fH/S9z++Z77r96rnNu57OwPfyVSMAXj70iU/cJpO8UTab78CQccqlpTMcmC1Co0jzn+7s7DjF6S5zfulV2TBbCgHYhGBIW7BwTfdSS5QGg83gAywbQXmyUU9m64lpDfCzpp83rZZozvVA7zQHO3r7UzWc+WjLV50AeHn/++8+deDYXvvy3jfOCPyWh7q+Ab9RpPbw/qEDB2fh2AntXtIVgnsv/0fqNbDmL1uFIyUnnGBEuJKoUHnofFqeqb4678xemzl9A/51AZ/tv2cO/r7r6vkDt381aPtt5atWALgsvsLO3m3Svs1a5Dse7n1dKHZxYPcANpsuIO11pz+8swL76n5yeJkWxWcB7cXJ8lB5+/mpaXndmz/vLbuz1/b2Ht469pz8D3w1UZyHKs8IwJbSdpk3e4swvHaeoG/CoyhNOJpP0ZL05pDrMs+euernN/1w+zGI5c/LXvsOo/ljy7VpAjLNn1dPVj3covqpuerbG725dm73zmdAX8szAvAQpVmHqwf2XivXcJts5LZHKxBPVJnl5gOzX3GHbKY7v5qpzcMtzwjAoyiLI43Na3VPb5ENXiuy+abrOdSPSzE6MxuHO2VH7oFu7rh6Hvc8A/hHVp4RgMeodKcat0ybvVs2KrfMscdTM825ZT7V/po3vLzOvOfkvsKyxN6n/isignvme07Pr6dnkJ9uIJ9E79lMO/c8A/THrvw76K7YqxJeIsMAAAAASUVORK5CYII=;points=[[0,0,0,0,0],[0,0.25,0,0,0],[0,0.5,0,0,0],[0,0.75,0,0,0],[0.25,0,0,0,0],[0.5,0,0,0,0],[0.75,0,0,0,0],[1,0,0,0,0],[1,0.25,0,0,0],[1,0.5,0,0,0],[1,0.75,0,0,0]];" parent="6sJW5nIuGnZSfE3EFcpS-20" vertex="1">
          <mxGeometry x="31" width="49" height="49" as="geometry" />
        </mxCell>
        <mxCell id="6sJW5nIuGnZSfE3EFcpS-22" value="&lt;font color=&quot;#1d2d3e&quot; size=&quot;1&quot; face=&quot;arial&quot; style=&quot;&quot;&gt;&lt;b style=&quot;font-size: 14px;&quot;&gt;Alert Notification&lt;br&gt;&lt;/b&gt;&lt;/font&gt;" style="text;html=1;align=center;verticalAlign=top;resizable=1;points=[[0,0.5,0,0,0],[0.21,1,0,0,0],[0.5,1,0,0,0],[0.85,1,0,0,0],[1,0.5,0,0,0]];autosize=0;strokeColor=none;fillColor=none;fontSize=12;fontColor=default;fontFamily=Helvetica;fixedWidth=1;imageWidth=24;whiteSpace=wrap;labelBackgroundColor=none;" parent="6sJW5nIuGnZSfE3EFcpS-20" vertex="1">
          <mxGeometry y="49.000000000000114" width="110" height="46" as="geometry" />
        </mxCell>
        <mxCell id="6sJW5nIuGnZSfE3EFcpS-31" value="" style="endArrow=blockThin;html=1;strokeColor=#475E75;bendable=1;rounded=0;endFill=1;endSize=4;startArrow=blockThin;startFill=1;startSize=4;jumpStyle=none;jumpSize=0;targetPerimeterSpacing=15;strokeWidth=1.5;entryX=1;entryY=0.25;entryDx=0;entryDy=0;entryPerimeter=0;edgeStyle=orthogonalEdgeStyle;exitX=0;exitY=0.5;exitDx=0;exitDy=0;exitPerimeter=0;" parent="IrsivO46pxZ-6Kv6au7V-1" source="6sJW5nIuGnZSfE3EFcpS-17" target="6sJW5nIuGnZSfE3EFcpS-11" edge="1">
          <mxGeometry width="50" height="50" relative="1" as="geometry">
            <mxPoint x="-460" y="-273.26" as="sourcePoint" />
            <mxPoint x="-340" y="-273.26" as="targetPoint" />
          </mxGeometry>
        </mxCell>
        <mxCell id="6sJW5nIuGnZSfE3EFcpS-33" value="" style="endArrow=blockThin;html=1;strokeColor=#475e75;bendable=1;rounded=0;endFill=1;endSize=4;strokeWidth=1.5;startSize=4;startArrow=none;startFill=0;entryX=0;entryY=0.25;entryDx=0;entryDy=0;entryPerimeter=0;exitX=0.5;exitY=1;exitDx=0;exitDy=0;exitPerimeter=0;edgeStyle=orthogonalEdgeStyle;" parent="IrsivO46pxZ-6Kv6au7V-1" source="6sJW5nIuGnZSfE3EFcpS-6" target="6sJW5nIuGnZSfE3EFcpS-11" edge="1">
          <mxGeometry width="50" height="50" relative="1" as="geometry">
            <mxPoint x="-400" y="-100" as="sourcePoint" />
            <mxPoint x="-340" y="-273.26" as="targetPoint" />
          </mxGeometry>
        </mxCell>
        <mxCell id="6sJW5nIuGnZSfE3EFcpS-34" value="" style="endArrow=blockThin;html=1;strokeColor=#475e75;bendable=1;rounded=0;endFill=1;endSize=4;strokeWidth=1.5;startSize=4;startArrow=none;startFill=0;entryX=0.5;entryY=1;entryDx=0;entryDy=0;entryPerimeter=0;edgeStyle=orthogonalEdgeStyle;exitX=0.5;exitY=0;exitDx=0;exitDy=0;exitPerimeter=0;" parent="IrsivO46pxZ-6Kv6au7V-1" source="6sJW5nIuGnZSfE3EFcpS-11" target="6sJW5nIuGnZSfE3EFcpS-22" edge="1">
          <mxGeometry width="50" height="50" relative="1" as="geometry">
            <mxPoint x="-516" y="-505.26" as="sourcePoint" />
            <mxPoint x="-419" y="-456.26" as="targetPoint" />
          </mxGeometry>
        </mxCell>
        <mxCell id="6sJW5nIuGnZSfE3EFcpS-35" value="" style="endArrow=blockThin;html=1;strokeColor=#475E75;bendable=1;rounded=0;endFill=1;endSize=4;startArrow=blockThin;startFill=1;startSize=4;jumpStyle=none;jumpSize=0;targetPerimeterSpacing=15;strokeWidth=1.5;entryX=0.5;entryY=0;entryDx=0;entryDy=0;entryPerimeter=0;exitX=0.5;exitY=1;exitDx=0;exitDy=0;exitPerimeter=0;" parent="IrsivO46pxZ-6Kv6au7V-1" source="6sJW5nIuGnZSfE3EFcpS-12" target="6sJW5nIuGnZSfE3EFcpS-8" edge="1">
          <mxGeometry width="50" height="50" relative="1" as="geometry">
            <mxPoint x="-395" y="-505.26" as="sourcePoint" />
            <mxPoint x="-395" y="-468.26" as="targetPoint" />
          </mxGeometry>
        </mxCell>
        <mxCell id="6sJW5nIuGnZSfE3EFcpS-36" value="" style="endArrow=blockThin;html=1;strokeColor=#475e75;bendable=1;rounded=0;endFill=1;endSize=4;strokeWidth=1.5;startSize=4;startArrow=none;startFill=0;edgeStyle=orthogonalEdgeStyle;exitX=1;exitY=0.75;exitDx=0;exitDy=0;exitPerimeter=0;entryX=0.5;entryY=0;entryDx=0;entryDy=0;entryPerimeter=0;" parent="IrsivO46pxZ-6Kv6au7V-1" source="6sJW5nIuGnZSfE3EFcpS-11" target="6sJW5nIuGnZSfE3EFcpS-2" edge="1">
          <mxGeometry width="50" height="50" relative="1" as="geometry">
            <mxPoint x="-370" y="-456.26" as="sourcePoint" />
            <mxPoint x="-260" y="-363.26" as="targetPoint" />
          </mxGeometry>
        </mxCell>
        <mxCell id="6sJW5nIuGnZSfE3EFcpS-37" value="" style="rounded=1;whiteSpace=wrap;html=1;strokeColor=#0070F2;strokeWidth=1.5;arcSize=16;fillColor=#FFFFFF;perimeterSpacing=0;absoluteArcSize=1;dashed=1;" parent="IrsivO46pxZ-6Kv6au7V-1" vertex="1">
          <mxGeometry x="-60" y="-626.74" width="200" height="296.74" as="geometry" />
        </mxCell>
        <mxCell id="6sJW5nIuGnZSfE3EFcpS-39" value="&lt;font face=&quot;arial&quot;&gt;&lt;span style=&quot;font-size: 12px;&quot;&gt;Optional&lt;/span&gt;&lt;/font&gt;" style="text;html=1;align=left;verticalAlign=middle;resizable=0;points=[];autosize=1;strokeColor=none;fillColor=none;fontSize=14;fontColor=#1D2D3E;fontFamily=Helvetica;fontStyle=0" parent="IrsivO46pxZ-6Kv6au7V-1" vertex="1">
          <mxGeometry x="-45" y="-594" width="70" height="30" as="geometry" />
        </mxCell>
        <mxCell id="6sJW5nIuGnZSfE3EFcpS-40" value="&lt;font face=&quot;arial&quot; style=&quot;font-size: 16px;&quot;&gt;&lt;b style=&quot;font-size: 16px;&quot;&gt;Subaccount&lt;/b&gt;&lt;/font&gt;" style="text;html=1;align=left;verticalAlign=middle;resizable=0;points=[];autosize=1;strokeColor=none;fillColor=none;fontSize=12;fontColor=#1d2d3e;fontFamily=Helvetica;" parent="IrsivO46pxZ-6Kv6au7V-1" vertex="1">
          <mxGeometry x="-45" y="-616.74" width="120" height="30" as="geometry" />
        </mxCell>
        <mxCell id="6sJW5nIuGnZSfE3EFcpS-23" value="" style="group" parent="IrsivO46pxZ-6Kv6au7V-1" vertex="1" connectable="0">
          <mxGeometry x="-270" y="-470" width="110" height="95" as="geometry" />
        </mxCell>
        <mxCell id="6sJW5nIuGnZSfE3EFcpS-24" value="" style="shape=image;verticalLabelPosition=bottom;verticalAlign=top;imageAspect=0;aspect=fixed;image=data:image/svg+xml,PHN2ZyB4bWxucz0iaHR0cDovL3d3dy53My5vcmcvMjAwMC9zdmciIGZpbGw9Im5vbmUiIHZpZXdCb3g9IjAgMCA0OSA0OSIgaGVpZ2h0PSI0OSIgd2lkdGg9IjQ5Ij4mI3hhOzxnIGNsaXAtcGF0aD0idXJsKCNjbGlwMF8yNjIyXzM5NjcpIj4mI3hhOzxjaXJjbGUgc3Ryb2tlLXdpZHRoPSIwLjg1NzE0MyIgc3Ryb2tlPSIjRDVEQUREIiBmaWxsPSJ1cmwoI3BhaW50MF9saW5lYXJfMjYyMl8zOTY3KSIgcj0iMjMuNTcxNCIgY3k9IjI0LjAzNDkiIGN4PSIyNC41Ii8+JiN4YTs8ZyBjbGlwLXBhdGg9InVybCgjY2xpcDFfMjYyMl8zOTY3KSI+JiN4YTs8cGF0aCBmaWxsPSJ1cmwoI3BhaW50MV9yYWRpYWxfMjYyMl8zOTY3KSIgZD0iTTIyLjI0MjkgMzcuNDA4NUMyMS45MTMzIDM3LjMwNDcgMjEuNjAwMyAzNy4xMzQyIDIxLjMwNCAzNi44OTcyQzIwLjgxMTggMzYuNTEwNCAyMC41MTMgMzYuMDAwNyAyMC40MDc1IDM1LjM2NzlMMjAuMDM4NCAzMy42Mjc2TDE3Ljc3MDggMzIuMjU2NUwxNi4xODg4IDMyLjk0MjFDMTUuODM3MiAzMy4wNDc1IDE1LjUwMzIgMzMuMTAwMyAxNS4xODY4IDMzLjEwMDNDMTQuNjk0NiAzMy4xMDAzIDE0LjIyIDMyLjk3NzIgMTMuNzYzIDMyLjczMTFDMTMuMzQxMSAzMi40ODUgMTMuMDA3MSAzMi4xMTU5IDEyLjc2MSAzMS42MjM3TDExLjc1OTEgMjkuNjcyNUMxMS41ODMzIDI5LjI1MDcgMTEuNDk1NCAyOC44NjQgMTEuNDk1NCAyOC41MTI0QzExLjQ5NTQgMjcuNTk4MyAxMS44NjQ2IDI2Ljg2IDEyLjYwMjggMjYuMjk3NUwxMy44MTU3IDI1LjQwMTFWMjIuNjU4OUwxMi41NTAxIDIxLjcwOTdDMTEuODQ3IDIxLjE4MjMgMTEuNDk1NCAyMC40NjE2IDExLjQ5NTQgMTkuNTQ3NUMxMS40OTU0IDE5LjE5NiAxMS41ODMzIDE4LjgwOTMgMTEuNzU5MSAxOC4zODc0TDEyLjc2MSAxNi40MzYyQzEzLjAwNzEgMTUuOTQ0IDEzLjM0MTEgMTUuNTc0OSAxMy43NjMgMTUuMzI4OEMxNC4yMiAxNS4wODI3IDE0LjY5NDYgMTQuOTU5NyAxNS4xODY4IDE0Ljk1OTdDMTUuNTczNSAxNC45NTk3IDE1LjkwNzUgMTUuMDMgMTYuMTg4OCAxNS4xNzA2TDE3Ljc3MDggMTUuODAzNEwyMC4wMzg0IDE0LjQzMjNMMjAuNDA3NSAxMi42OTIxQzIwLjU0ODEgMTIuMDU5MyAyMC44NjQ1IDExLjU0OTUgMjEuMzU2NyAxMS4xNjI4QzIxLjg0ODkgMTAuNzQwOSAyMi40MTE0IDEwLjUzIDIzLjA0NDIgMTAuNTNIMjQuODg5OUMyNS41MjI3IDEwLjUzIDI2LjA4NTIgMTAuNzQwOSAyNi41Nzc0IDExLjE2MjhDMjcuMDY5NiAxMS41NDk1IDI3LjM4NiAxMi4wNTkzIDI3LjUyNjYgMTIuNjkyMUwyNy44NDMgMTQuNDMyM0wzMC4xNjM0IDE1LjgwMzRMMzEuNzQ1NCAxNS4xNzA2QzMyLjAyNjYgMTUuMDMgMzIuMzYwNiAxNC45NTk3IDMyLjc0NzMgMTQuOTU5N0MzMy4yMzk1IDE0Ljk1OTcgMzMuNjk2NiAxNS4wODI3IDM0LjExODQgMTUuMzI4OEMzNC41NzU1IDE1LjU3NDkgMzQuOTI3IDE1Ljk0NCAzNS4xNzMxIDE2LjQzNjJMMzYuMTIyMyAxOC4zODc0QzM2LjMzMzMgMTguNzM5IDM2LjQzODcgMTkuMTQzMiAzNi40Mzg3IDE5LjYwMDNDMzYuNDM4NyAyMC40NzkyIDM2LjA2OTYgMjEuMTgyMyAzNS4zMzEzIDIxLjcwOTdMMzQuNjMyMyAyMi4yMzM5SDI5LjA1NzJDMjkuMDI0MiAyMi4xNDYxIDI4Ljk4ODYgMjIuMDU5MiAyOC45NTA1IDIxLjk3MzNDMjguNjY5MiAyMS4zMDU0IDI4LjI4MjUgMjAuNzI1MyAyNy43OTAzIDIwLjIzMzFDMjcuMjk4MSAxOS43NDA5IDI2LjcxODEgMTkuMzU0MiAyNi4wNTAxIDE5LjA3MjlDMjUuMzgyMSAxOC43OTE3IDI0LjY3OSAxOC42NTExIDIzLjk0MDcgMTguNjUxMUMyMy4yMDI0IDE4LjY1MTEgMjIuNDk5MyAxOC43OTE3IDIxLjgzMTMgMTkuMDcyOUMyMS4xOTg1IDE5LjM1NDIgMjAuNjM2IDE5Ljc0MDkgMjAuMTQzOCAyMC4yMzMxQzE5LjY1MTcgMjAuNzI1MyAxOS4yNjQ5IDIxLjMwNTQgMTguOTgzNyAyMS45NzMzQzE4LjcwMjQgMjIuNjA2MSAxOC41NjE4IDIzLjI5MTcgMTguNTYxOCAyNC4wM0MxOC41NjE4IDI0Ljc2ODIgMTguNzAyNCAyNS40NzE0IDE4Ljk4MzcgMjYuMTM5M0MxOS4yNjQ5IDI2Ljc3MjIgMTkuNjUxNyAyNy4zMzQ3IDIwLjE0MzggMjcuODI2OEMyMC42MzYgMjguMzE5IDIxLjE5ODUgMjguNzA1NyAyMS44MzEzIDI4Ljk4N0MyMS45NjcxIDI5LjA0NDIgMjIuMTA0MyAyOS4wOTU1IDIyLjI0MjkgMjkuMTQxTDIyLjI0MjkgMzcuNDA4NVoiIGNsaXAtcnVsZT0iZXZlbm9kZCIgZmlsbC1ydWxlPSJldmVub2RkIi8+JiN4YTs8cGF0aCBmaWxsPSJ1cmwoI3BhaW50Ml9yYWRpYWxfMjYyMl8zOTY3KSIgZD0iTTI2LjYzMDQgMjQuOTMzOEMyNS42OTg1IDI0LjkzMzggMjQuOTQyOSAyNS42ODk0IDI0Ljk0MjkgMjYuNjIxM1YzNS44MDcyQzI0Ljk0MjkgMzYuNzM5MiAyNS42OTg1IDM3LjQ5NDcgMjYuNjMwNCAzNy40OTQ3SDM2Ljc4MjVDMzcuNzE0NSAzNy40OTQ3IDM4LjQ3IDM2LjczOTIgMzguNDcgMzUuODA3MlYyNi42MjEzQzM4LjQ3IDI1LjY4OTQgMzcuNzE0NSAyNC45MzM4IDM2Ljc4MjUgMjQuOTMzOEgyNi42MzA0Wk0zMS43MDc2IDI3LjQ3MTRDMzEuNzA3NiAyNy44OTg2IDMxLjM2MTMgMjguMjQ1IDMwLjkzNDEgMjguMjQ1QzMwLjUwNjggMjguMjQ1IDMwLjE2MDUgMjcuODk4NiAzMC4xNjA1IDI3LjQ3MTRDMzAuMTYwNSAyNy4wNDQyIDMwLjUwNjggMjYuNjk3OSAzMC45MzQxIDI2LjY5NzlDMzEuMzYxMyAyNi42OTc5IDMxLjcwNzYgMjcuMDQ0MiAzMS43MDc2IDI3LjQ3MTRaTTM0LjAyNjYgMjcuNDcxNEMzNC4wMjY2IDI3Ljg5ODYgMzMuNjgwMiAyOC4yNDUgMzMuMjUzIDI4LjI0NUMzMi44MjU4IDI4LjI0NSAzMi40Nzk1IDI3Ljg5ODYgMzIuNDc5NSAyNy40NzE0QzMyLjQ3OTUgMjcuMDQ0MiAzMi44MjU4IDI2LjY5NzkgMzMuMjUzIDI2LjY5NzlDMzMuNjgwMiAyNi42OTc5IDM0LjAyNjYgMjcuMDQ0MiAzNC4wMjY2IDI3LjQ3MTRaTTM1LjU3MTkgMjguMjQ1QzM1Ljk5OTEgMjguMjQ1IDM2LjM0NTUgMjcuODk4NiAzNi4zNDU1IDI3LjQ3MTRDMzYuMzQ1NSAyNy4wNDQyIDM1Ljk5OTEgMjYuNjk3OSAzNS41NzE5IDI2LjY5NzlDMzUuMTQ0NyAyNi42OTc5IDM0Ljc5ODQgMjcuMDQ0MiAzNC43OTg0IDI3LjQ3MTRDMzQuNzk4NCAyNy44OTg2IDM1LjE0NDcgMjguMjQ1IDM1LjU3MTkgMjguMjQ1Wk0yNi44NzU0IDMxLjEwOTNDMjYuODc1NCAzMC44OTU5IDI3LjA0ODQgMzAuNzIyOCAyNy4yNjE5IDMwLjcyMjhIMzYuMTUxMUMzNi4zNjQ2IDMwLjcyMjggMzYuNTM3NiAzMC44OTU5IDM2LjUzNzYgMzEuMTA5M1YzNC45Nzc3QzM2LjUzNzYgMzUuMTkxMSAzNi4zNjQ2IDM1LjM2NDEgMzYuMTUxMSAzNS4zNjQxSDI3LjI2MTlDMjcuMDQ4NCAzNS4zNjQxIDI2Ljg3NTQgMzUuMTkxMSAyNi44NzU0IDM0Ljk3NzdWMzEuMTA5M1oiIGNsaXAtcnVsZT0iZXZlbm9kZCIgZmlsbC1ydWxlPSJldmVub2RkIi8+JiN4YTs8L2c+JiN4YTs8L2c+JiN4YTs8ZGVmcz4mI3hhOzxsaW5lYXJHcmFkaWVudCBncmFkaWVudFVuaXRzPSJ1c2VyU3BhY2VPblVzZSIgeTI9IjQ0LjI3OTIiIHgyPSI0MS41NjQ1IiB5MT0iNi44NDc3NSIgeDE9IjQuODUyODciIGlkPSJwYWludDBfbGluZWFyXzI2MjJfMzk2NyI+JiN4YTs8c3RvcCBzdG9wLWNvbG9yPSJ3aGl0ZSIvPiYjeGE7PHN0b3Agc3RvcC1jb2xvcj0iI0VBRUNFRSIgb2Zmc2V0PSIxIi8+JiN4YTs8L2xpbmVhckdyYWRpZW50PiYjeGE7PHJhZGlhbEdyYWRpZW50IGdyYWRpZW50VHJhbnNmb3JtPSJ0cmFuc2xhdGUoMTUuMzYzNSAxNC40NzY1KSByb3RhdGUoNDcuNDU1Nykgc2NhbGUoMjUuNTQwNCA0OC4wODI0KSIgZ3JhZGllbnRVbml0cz0idXNlclNwYWNlT25Vc2UiIHI9IjEiIGN5PSIwIiBjeD0iMCIgaWQ9InBhaW50MV9yYWRpYWxfMjYyMl8zOTY3Ij4mI3hhOzxzdG9wIHN0b3AtY29sb3I9IiMwMTk1RkYiLz4mI3hhOzxzdG9wIHN0b3AtY29sb3I9IiMxMTQ3RTkiIG9mZnNldD0iMSIvPiYjeGE7PC9yYWRpYWxHcmFkaWVudD4mI3hhOzxyYWRpYWxHcmFkaWVudCBncmFkaWVudFRyYW5zZm9ybT0idHJhbnNsYXRlKDI3LjA5NTcgMjYuODE5KSByb3RhdGUoNDIuODc4OSkgc2NhbGUoMTIuOTI3NCAxNS42NDYyKSIgZ3JhZGllbnRVbml0cz0idXNlclNwYWNlT25Vc2UiIHI9IjEiIGN5PSIwIiBjeD0iMCIgaWQ9InBhaW50Ml9yYWRpYWxfMjYyMl8zOTY3Ij4mI3hhOzxzdG9wIHN0b3AtY29sb3I9IiMwMEJCRkYiLz4mI3hhOzxzdG9wIHN0b3AtY29sb3I9IiMwMDhCRkYiIG9mZnNldD0iMSIvPiYjeGE7PC9yYWRpYWxHcmFkaWVudD4mI3hhOzxjbGlwUGF0aCBpZD0iY2xpcDBfMjYyMl8zOTY3Ij4mI3hhOzxyZWN0IHRyYW5zZm9ybT0idHJhbnNsYXRlKDAuNSAwLjAzNDkxMjEpIiBmaWxsPSJ3aGl0ZSIgaGVpZ2h0PSI0OCIgd2lkdGg9IjQ4Ii8+JiN4YTs8L2NsaXBQYXRoPiYjeGE7PGNsaXBQYXRoIGlkPSJjbGlwMV8yNjIyXzM5NjciPiYjeGE7PHJlY3QgdHJhbnNmb3JtPSJ0cmFuc2xhdGUoMTEuNSAxMC41MzQ5KSIgZmlsbD0id2hpdGUiIGhlaWdodD0iMjciIHdpZHRoPSIyNyIvPiYjeGE7PC9jbGlwUGF0aD4mI3hhOzwvZGVmcz4mI3hhOzwvc3ZnPg==;points=[[0,0,0,0,0],[0,0.25,0,0,0],[0,0.5,0,0,0],[0,0.75,0,0,0],[0,1,0,-45,66],[0.25,0,0,0,0],[0.5,0,0,0,0],[0.75,0,0,0,0],[1,0,0,0,0],[1,0.25,0,0,0],[1,0.5,0,0,0],[1,0.75,0,0,0],[1,1,0,167,59],[1,1,0,185,119],[1,1,0,227,108],[1,1,0,253,92]];" parent="6sJW5nIuGnZSfE3EFcpS-23" vertex="1">
          <mxGeometry x="30.5" width="49" height="49" as="geometry" />
        </mxCell>
        <mxCell id="6sJW5nIuGnZSfE3EFcpS-25" value="&lt;font color=&quot;#1d2d3e&quot; size=&quot;1&quot; face=&quot;arial&quot; style=&quot;&quot;&gt;&lt;b style=&quot;font-size: 14px;&quot;&gt;User-Provided Service&lt;br&gt;&lt;/b&gt;&lt;/font&gt;" style="text;html=1;align=center;verticalAlign=top;resizable=1;points=[[0,0.5,0,0,0],[0.21,1,0,0,0],[0.5,1,0,0,0],[0.85,1,0,0,0],[1,0.5,0,0,0]];autosize=0;strokeColor=none;fillColor=none;fontSize=12;fontColor=default;fontFamily=Helvetica;fixedWidth=1;imageWidth=24;whiteSpace=wrap;labelBackgroundColor=none;" parent="6sJW5nIuGnZSfE3EFcpS-23" vertex="1">
          <mxGeometry y="49" width="110" height="46" as="geometry" />
        </mxCell>
        <mxCell id="6sJW5nIuGnZSfE3EFcpS-42" value="" style="group" parent="IrsivO46pxZ-6Kv6au7V-1" vertex="1" connectable="0">
          <mxGeometry x="-15" y="-470" width="110" height="95" as="geometry" />
        </mxCell>
        <mxCell id="6sJW5nIuGnZSfE3EFcpS-44" value="&lt;font color=&quot;#1d2d3e&quot; size=&quot;1&quot; face=&quot;arial&quot; style=&quot;&quot;&gt;&lt;b style=&quot;font-size: 14px;&quot;&gt;Usage Data Management&lt;br&gt;(multiple)&lt;/b&gt;&lt;/font&gt;" style="text;html=1;align=center;verticalAlign=top;resizable=1;points=[[0,0.5,0,0,0],[0.21,1,0,0,0],[0.5,1,0,0,0],[0.85,1,0,0,0],[1,0.5,0,0,0]];autosize=0;strokeColor=none;fillColor=none;fontSize=12;fontColor=default;fontFamily=Helvetica;fixedWidth=1;imageWidth=24;whiteSpace=wrap;labelBackgroundColor=none;" parent="6sJW5nIuGnZSfE3EFcpS-42" vertex="1">
          <mxGeometry y="49" width="110" height="46" as="geometry" />
        </mxCell>
        <mxCell id="uiXHpHMs-ONdeq-UeaCV-1" value="" style="shape=image;verticalLabelPosition=bottom;verticalAlign=top;imageAspect=0;aspect=fixed;image=data:image/svg+xml,PHN2ZyB4bWxucz0iaHR0cDovL3d3dy53My5vcmcvMjAwMC9zdmciIGZpbGw9Im5vbmUiIHZpZXdCb3g9IjAgMCA0OSA0OSIgaGVpZ2h0PSI0OSIgd2lkdGg9IjQ5Ij4mI3hhOzxnIGNsaXAtcGF0aD0idXJsKCNjbGlwMF8yNjIyXzQxNDkpIj4mI3hhOzxjaXJjbGUgc3Ryb2tlLXdpZHRoPSIwLjg1NzE0MyIgc3Ryb2tlPSIjRDVEQUREIiBmaWxsPSJ1cmwoI3BhaW50MF9saW5lYXJfMjYyMl80MTQ5KSIgcj0iMjMuNTcxNCIgY3k9IjI0LjAzNDkiIGN4PSIyNC41Ii8+JiN4YTs8cGF0aCBmaWxsPSJ1cmwoI3BhaW50MV9yYWRpYWxfMjYyMl80MTQ5KSIgZD0iTTM2LjQ4NjYgMjguMjk3OUMzNi4xMDU1IDI4LjI5NzkgMzUuNzYyNSAyOC40NTAzIDM1LjQ1NzYgMjguNzU1MkwzMC43MTMxIDMzLjQ5OTdMMjguODI2OCAzMS42MTMzQzI4LjU2IDMxLjMwODQgMjguMjM2MSAzMS4xNTYgMjcuODU1IDMxLjE1NkMyNy40NzM5IDMxLjE1NiAyNy4xMzA5IDMxLjMwODQgMjYuODI2MSAzMS42MTMzQzI2LjUyMTIgMzEuOTE4MiAyNi4zNjg4IDMyLjI2MTEgMjYuMzY4OCAzMi42NDIyQzI2LjM2ODggMzMuMDIzMyAyNi41MjEyIDMzLjM2NjMgMjYuODI2MSAzMy42NzExTDI5LjY4NDIgMzYuNTI5M0MyOS45NTEgMzYuNzk2IDMwLjI5MzkgMzYuOTI5NCAzMC43MTMxIDM2LjkyOTRDMzEuMTMyMyAzNi45Mjk0IDMxLjQ3NTMgMzYuNzk2IDMxLjc0MjEgMzYuNTI5M0wzNy41MTU1IDMwLjc1NThDMzcuNzgyMyAzMC40NTEgMzcuOTE1NiAzMC4xMDggMzcuOTE1NiAyOS43MjY5QzM3LjkxNTYgMjkuMzQ1OCAzNy43ODIzIDI5LjAyMTkgMzcuNTE1NSAyOC43NTUyQzM3LjIxMDYgMjguNDUwMyAzNi44Njc3IDI4LjI5NzkgMzYuNDg2NiAyOC4yOTc5WiIvPiYjeGE7PHBhdGggZmlsbD0idXJsKCNwYWludDJfcmFkaWFsXzI2MjJfNDE0OSkiIGQ9Ik0zMS4xODIzIDEyLjQzOTJDMzEuMTgyMyAxMS4xMjU5IDMyLjI0NjkgMTAuMDYxMyAzMy41NjAyIDEwLjA2MTNDMzQuODczNSAxMC4wNjEzIDM1LjkzODIgMTEuMTI1OSAzNS45MzgyIDEyLjQzOTJWMjMuOTAzM0MzNS45MzgyIDI1LjIxNjYgMzQuODczNSAyNi4yODEyIDMzLjU2MDIgMjYuMjgxMkMzMi4yNDY5IDI2LjI4MTIgMzEuMTgyMyAyNS4yMTY2IDMxLjE4MjMgMjMuOTAzM0wzMS4xODIzIDEyLjQzOTJaIi8+JiN4YTs8cGF0aCBmaWxsPSJ1cmwoI3BhaW50M19yYWRpYWxfMjYyMl80MTQ5KSIgZD0iTTE4LjM3NzggMTcuNzcyNUMxOC4zNzc4IDE2LjQ1OTIgMTkuNDQyNSAxNS4zOTQ1IDIwLjc1NTggMTUuMzk0NUMyMi4wNjkxIDE1LjM5NDUgMjMuMTMzNyAxNi40NTkyIDIzLjEzMzcgMTcuNzcyNUwyMy4xMzM3IDMzLjY2NzNDMjMuMTMzNyAzNC45ODA2IDIyLjA2OTEgMzYuMDQ1MyAyMC43NTU4IDM2LjA0NTNDMTkuNDQyNSAzNi4wNDUzIDE4LjM3NzggMzQuOTgwNiAxOC4zNzc4IDMzLjY2NzNMMTguMzc3OCAxNy43NzI1WiIvPiYjeGE7PHBhdGggZmlsbD0idXJsKCNwYWludDRfcmFkaWFsXzI2MjJfNDE0OSkiIGQ9Ik0yNC43OCAyMi42MTMyQzI0Ljc4IDIxLjI5OTkgMjUuODQ0NyAyMC4yMzUyIDI3LjE1OCAyMC4yMzUyQzI4LjQ3MTMgMjAuMjM1MiAyOS41MzYgMjEuMjk5OSAyOS41MzYgMjIuNjEzMkwyOS41MzYgMjYuMjgxMkMyOS41MzYgMjcuNTk0NSAyOC40NzEzIDI4LjY1OTIgMjcuMTU4IDI4LjY1OTJDMjUuODQ0NyAyOC42NTkyIDI0Ljc4IDI3LjU5NDUgMjQuNzggMjYuMjgxMkwyNC43OCAyMi42MTMyWiIvPiYjeGE7PHBhdGggZmlsbD0idXJsKCNwYWludDVfcmFkaWFsXzI2MjJfNDE0OSkiIGQ9Ik0xMS45NzU2IDI3Ljg4NDVDMTEuOTc1NiAyNi41NzExIDEzLjA0MDIgMjUuNTA2NSAxNC4zNTM2IDI1LjUwNjVDMTUuNjY2OSAyNS41MDY1IDE2LjczMTUgMjYuNTcxMSAxNi43MzE1IDI3Ljg4NDVMMTYuNzMxNSAzMy42NjcyQzE2LjczMTUgMzQuOTgwNSAxNS42NjY5IDM2LjA0NTIgMTQuMzUzNiAzNi4wNDUyQzEzLjA0MDIgMzYuMDQ1MiAxMS45NzU2IDM0Ljk4MDUgMTEuOTc1NiAzMy42NjcyVjI3Ljg4NDVaIi8+JiN4YTs8L2c+JiN4YTs8ZGVmcz4mI3hhOzxsaW5lYXJHcmFkaWVudCBncmFkaWVudFVuaXRzPSJ1c2VyU3BhY2VPblVzZSIgeTI9IjQ0LjI3OTIiIHgyPSI0MS41NjQ1IiB5MT0iNi44NDc3NSIgeDE9IjQuODUyODciIGlkPSJwYWludDBfbGluZWFyXzI2MjJfNDE0OSI+JiN4YTs8c3RvcCBzdG9wLWNvbG9yPSJ3aGl0ZSIvPiYjeGE7PHN0b3Agc3RvcC1jb2xvcj0iI0VBRUNFRSIgb2Zmc2V0PSIxIi8+JiN4YTs8L2xpbmVhckdyYWRpZW50PiYjeGE7PHJhZGlhbEdyYWRpZW50IGdyYWRpZW50VHJhbnNmb3JtPSJ0cmFuc2xhdGUoMjguMTU2OCAyOS41OTYzKSByb3RhdGUoMzYuNzc5KSBzY2FsZSgxMC4wNDIxIDguNzc2NzkpIiBncmFkaWVudFVuaXRzPSJ1c2VyU3BhY2VPblVzZSIgcj0iMSIgY3k9IjAiIGN4PSIwIiBpZD0icGFpbnQxX3JhZGlhbF8yNjIyXzQxNDkiPiYjeGE7PHN0b3Agc3RvcC1jb2xvcj0iIzEzNDhGRiIvPiYjeGE7PHN0b3Agc3RvcC1jb2xvcj0iIzA2MjM4RCIgb2Zmc2V0PSIxIi8+JiN4YTs8L3JhZGlhbEdyYWRpZW50PiYjeGE7PHJhZGlhbEdyYWRpZW50IGdyYWRpZW50VHJhbnNmb3JtPSJ0cmFuc2xhdGUoMTUuNjkxNiAxMy44NzY1KSByb3RhdGUoNDcuNjM0NCkgc2NhbGUoMjQuNjIgNDYuMzIzOSkiIGdyYWRpZW50VW5pdHM9InVzZXJTcGFjZU9uVXNlIiByPSIxIiBjeT0iMCIgY3g9IjAiIGlkPSJwYWludDJfcmFkaWFsXzI2MjJfNDE0OSI+JiN4YTs8c3RvcCBzdG9wLWNvbG9yPSIjMDE5NUZGIi8+JiN4YTs8c3RvcCBzdG9wLWNvbG9yPSIjMTE0N0U5IiBvZmZzZXQ9IjEiLz4mI3hhOzwvcmFkaWFsR3JhZGllbnQ+JiN4YTs8cmFkaWFsR3JhZGllbnQgZ3JhZGllbnRUcmFuc2Zvcm09InRyYW5zbGF0ZSgxNS42OTE2IDEzLjg3NjUpIHJvdGF0ZSg0Ny42MzQ0KSBzY2FsZSgyNC42MiA0Ni4zMjM5KSIgZ3JhZGllbnRVbml0cz0idXNlclNwYWNlT25Vc2UiIHI9IjEiIGN5PSIwIiBjeD0iMCIgaWQ9InBhaW50M19yYWRpYWxfMjYyMl80MTQ5Ij4mI3hhOzxzdG9wIHN0b3AtY29sb3I9IiMwMTk1RkYiLz4mI3hhOzxzdG9wIHN0b3AtY29sb3I9IiMxMTQ3RTkiIG9mZnNldD0iMSIvPiYjeGE7PC9yYWRpYWxHcmFkaWVudD4mI3hhOzxyYWRpYWxHcmFkaWVudCBncmFkaWVudFRyYW5zZm9ybT0idHJhbnNsYXRlKDE1LjY5MTYgMTMuODc2NSkgcm90YXRlKDQ3LjYzNDQpIHNjYWxlKDI0LjYyIDQ2LjMyMzkpIiBncmFkaWVudFVuaXRzPSJ1c2VyU3BhY2VPblVzZSIgcj0iMSIgY3k9IjAiIGN4PSIwIiBpZD0icGFpbnQ0X3JhZGlhbF8yNjIyXzQxNDkiPiYjeGE7PHN0b3Agc3RvcC1jb2xvcj0iIzAxOTVGRiIvPiYjeGE7PHN0b3Agc3RvcC1jb2xvcj0iIzExNDdFOSIgb2Zmc2V0PSIxIi8+JiN4YTs8L3JhZGlhbEdyYWRpZW50PiYjeGE7PHJhZGlhbEdyYWRpZW50IGdyYWRpZW50VHJhbnNmb3JtPSJ0cmFuc2xhdGUoMTUuNjkxNiAxMy44NzY1KSByb3RhdGUoNDcuNjM0NCkgc2NhbGUoMjQuNjIgNDYuMzIzOSkiIGdyYWRpZW50VW5pdHM9InVzZXJTcGFjZU9uVXNlIiByPSIxIiBjeT0iMCIgY3g9IjAiIGlkPSJwYWludDVfcmFkaWFsXzI2MjJfNDE0OSI+JiN4YTs8c3RvcCBzdG9wLWNvbG9yPSIjMDE5NUZGIi8+JiN4YTs8c3RvcCBzdG9wLWNvbG9yPSIjMTE0N0U5IiBvZmZzZXQ9IjEiLz4mI3hhOzwvcmFkaWFsR3JhZGllbnQ+JiN4YTs8Y2xpcFBhdGggaWQ9ImNsaXAwXzI2MjJfNDE0OSI+JiN4YTs8cmVjdCB0cmFuc2Zvcm09InRyYW5zbGF0ZSgwLjUgMC4wMzQ5MTIxKSIgZmlsbD0id2hpdGUiIGhlaWdodD0iNDgiIHdpZHRoPSI0OCIvPiYjeGE7PC9jbGlwUGF0aD4mI3hhOzwvZGVmcz4mI3hhOzwvc3ZnPg==;points=[[0,0,0,0,0],[0,0.25,0,0,0],[0,0.5,0,0,0],[0,0.75,0,0,0],[0.25,0,0,0,0],[0.5,0,0,0,0],[0.75,0,0,0,0],[1,0,0,0,0],[1,0.25,0,0,0],[1,0.5,0,0,0],[1,0.75,0,0,0]];" vertex="1" parent="6sJW5nIuGnZSfE3EFcpS-42">
          <mxGeometry x="50.5" y="-14" width="49" height="49" as="geometry" />
        </mxCell>
        <mxCell id="uiXHpHMs-ONdeq-UeaCV-0" value="" style="shape=image;verticalLabelPosition=bottom;verticalAlign=top;imageAspect=0;aspect=fixed;image=data:image/svg+xml,PHN2ZyB4bWxucz0iaHR0cDovL3d3dy53My5vcmcvMjAwMC9zdmciIGZpbGw9Im5vbmUiIHZpZXdCb3g9IjAgMCA0OSA0OSIgaGVpZ2h0PSI0OSIgd2lkdGg9IjQ5Ij4mI3hhOzxnIGNsaXAtcGF0aD0idXJsKCNjbGlwMF8yNjIyXzQxNDkpIj4mI3hhOzxjaXJjbGUgc3Ryb2tlLXdpZHRoPSIwLjg1NzE0MyIgc3Ryb2tlPSIjRDVEQUREIiBmaWxsPSJ1cmwoI3BhaW50MF9saW5lYXJfMjYyMl80MTQ5KSIgcj0iMjMuNTcxNCIgY3k9IjI0LjAzNDkiIGN4PSIyNC41Ii8+JiN4YTs8cGF0aCBmaWxsPSJ1cmwoI3BhaW50MV9yYWRpYWxfMjYyMl80MTQ5KSIgZD0iTTM2LjQ4NjYgMjguMjk3OUMzNi4xMDU1IDI4LjI5NzkgMzUuNzYyNSAyOC40NTAzIDM1LjQ1NzYgMjguNzU1MkwzMC43MTMxIDMzLjQ5OTdMMjguODI2OCAzMS42MTMzQzI4LjU2IDMxLjMwODQgMjguMjM2MSAzMS4xNTYgMjcuODU1IDMxLjE1NkMyNy40NzM5IDMxLjE1NiAyNy4xMzA5IDMxLjMwODQgMjYuODI2MSAzMS42MTMzQzI2LjUyMTIgMzEuOTE4MiAyNi4zNjg4IDMyLjI2MTEgMjYuMzY4OCAzMi42NDIyQzI2LjM2ODggMzMuMDIzMyAyNi41MjEyIDMzLjM2NjMgMjYuODI2MSAzMy42NzExTDI5LjY4NDIgMzYuNTI5M0MyOS45NTEgMzYuNzk2IDMwLjI5MzkgMzYuOTI5NCAzMC43MTMxIDM2LjkyOTRDMzEuMTMyMyAzNi45Mjk0IDMxLjQ3NTMgMzYuNzk2IDMxLjc0MjEgMzYuNTI5M0wzNy41MTU1IDMwLjc1NThDMzcuNzgyMyAzMC40NTEgMzcuOTE1NiAzMC4xMDggMzcuOTE1NiAyOS43MjY5QzM3LjkxNTYgMjkuMzQ1OCAzNy43ODIzIDI5LjAyMTkgMzcuNTE1NSAyOC43NTUyQzM3LjIxMDYgMjguNDUwMyAzNi44Njc3IDI4LjI5NzkgMzYuNDg2NiAyOC4yOTc5WiIvPiYjeGE7PHBhdGggZmlsbD0idXJsKCNwYWludDJfcmFkaWFsXzI2MjJfNDE0OSkiIGQ9Ik0zMS4xODIzIDEyLjQzOTJDMzEuMTgyMyAxMS4xMjU5IDMyLjI0NjkgMTAuMDYxMyAzMy41NjAyIDEwLjA2MTNDMzQuODczNSAxMC4wNjEzIDM1LjkzODIgMTEuMTI1OSAzNS45MzgyIDEyLjQzOTJWMjMuOTAzM0MzNS45MzgyIDI1LjIxNjYgMzQuODczNSAyNi4yODEyIDMzLjU2MDIgMjYuMjgxMkMzMi4yNDY5IDI2LjI4MTIgMzEuMTgyMyAyNS4yMTY2IDMxLjE4MjMgMjMuOTAzM0wzMS4xODIzIDEyLjQzOTJaIi8+JiN4YTs8cGF0aCBmaWxsPSJ1cmwoI3BhaW50M19yYWRpYWxfMjYyMl80MTQ5KSIgZD0iTTE4LjM3NzggMTcuNzcyNUMxOC4zNzc4IDE2LjQ1OTIgMTkuNDQyNSAxNS4zOTQ1IDIwLjc1NTggMTUuMzk0NUMyMi4wNjkxIDE1LjM5NDUgMjMuMTMzNyAxNi40NTkyIDIzLjEzMzcgMTcuNzcyNUwyMy4xMzM3IDMzLjY2NzNDMjMuMTMzNyAzNC45ODA2IDIyLjA2OTEgMzYuMDQ1MyAyMC43NTU4IDM2LjA0NTNDMTkuNDQyNSAzNi4wNDUzIDE4LjM3NzggMzQuOTgwNiAxOC4zNzc4IDMzLjY2NzNMMTguMzc3OCAxNy43NzI1WiIvPiYjeGE7PHBhdGggZmlsbD0idXJsKCNwYWludDRfcmFkaWFsXzI2MjJfNDE0OSkiIGQ9Ik0yNC43OCAyMi42MTMyQzI0Ljc4IDIxLjI5OTkgMjUuODQ0NyAyMC4yMzUyIDI3LjE1OCAyMC4yMzUyQzI4LjQ3MTMgMjAuMjM1MiAyOS41MzYgMjEuMjk5OSAyOS41MzYgMjIuNjEzMkwyOS41MzYgMjYuMjgxMkMyOS41MzYgMjcuNTk0NSAyOC40NzEzIDI4LjY1OTIgMjcuMTU4IDI4LjY1OTJDMjUuODQ0NyAyOC42NTkyIDI0Ljc4IDI3LjU5NDUgMjQuNzggMjYuMjgxMkwyNC43OCAyMi42MTMyWiIvPiYjeGE7PHBhdGggZmlsbD0idXJsKCNwYWludDVfcmFkaWFsXzI2MjJfNDE0OSkiIGQ9Ik0xMS45NzU2IDI3Ljg4NDVDMTEuOTc1NiAyNi41NzExIDEzLjA0MDIgMjUuNTA2NSAxNC4zNTM2IDI1LjUwNjVDMTUuNjY2OSAyNS41MDY1IDE2LjczMTUgMjYuNTcxMSAxNi43MzE1IDI3Ljg4NDVMMTYuNzMxNSAzMy42NjcyQzE2LjczMTUgMzQuOTgwNSAxNS42NjY5IDM2LjA0NTIgMTQuMzUzNiAzNi4wNDUyQzEzLjA0MDIgMzYuMDQ1MiAxMS45NzU2IDM0Ljk4MDUgMTEuOTc1NiAzMy42NjcyVjI3Ljg4NDVaIi8+JiN4YTs8L2c+JiN4YTs8ZGVmcz4mI3hhOzxsaW5lYXJHcmFkaWVudCBncmFkaWVudFVuaXRzPSJ1c2VyU3BhY2VPblVzZSIgeTI9IjQ0LjI3OTIiIHgyPSI0MS41NjQ1IiB5MT0iNi44NDc3NSIgeDE9IjQuODUyODciIGlkPSJwYWludDBfbGluZWFyXzI2MjJfNDE0OSI+JiN4YTs8c3RvcCBzdG9wLWNvbG9yPSJ3aGl0ZSIvPiYjeGE7PHN0b3Agc3RvcC1jb2xvcj0iI0VBRUNFRSIgb2Zmc2V0PSIxIi8+JiN4YTs8L2xpbmVhckdyYWRpZW50PiYjeGE7PHJhZGlhbEdyYWRpZW50IGdyYWRpZW50VHJhbnNmb3JtPSJ0cmFuc2xhdGUoMjguMTU2OCAyOS41OTYzKSByb3RhdGUoMzYuNzc5KSBzY2FsZSgxMC4wNDIxIDguNzc2NzkpIiBncmFkaWVudFVuaXRzPSJ1c2VyU3BhY2VPblVzZSIgcj0iMSIgY3k9IjAiIGN4PSIwIiBpZD0icGFpbnQxX3JhZGlhbF8yNjIyXzQxNDkiPiYjeGE7PHN0b3Agc3RvcC1jb2xvcj0iIzEzNDhGRiIvPiYjeGE7PHN0b3Agc3RvcC1jb2xvcj0iIzA2MjM4RCIgb2Zmc2V0PSIxIi8+JiN4YTs8L3JhZGlhbEdyYWRpZW50PiYjeGE7PHJhZGlhbEdyYWRpZW50IGdyYWRpZW50VHJhbnNmb3JtPSJ0cmFuc2xhdGUoMTUuNjkxNiAxMy44NzY1KSByb3RhdGUoNDcuNjM0NCkgc2NhbGUoMjQuNjIgNDYuMzIzOSkiIGdyYWRpZW50VW5pdHM9InVzZXJTcGFjZU9uVXNlIiByPSIxIiBjeT0iMCIgY3g9IjAiIGlkPSJwYWludDJfcmFkaWFsXzI2MjJfNDE0OSI+JiN4YTs8c3RvcCBzdG9wLWNvbG9yPSIjMDE5NUZGIi8+JiN4YTs8c3RvcCBzdG9wLWNvbG9yPSIjMTE0N0U5IiBvZmZzZXQ9IjEiLz4mI3hhOzwvcmFkaWFsR3JhZGllbnQ+JiN4YTs8cmFkaWFsR3JhZGllbnQgZ3JhZGllbnRUcmFuc2Zvcm09InRyYW5zbGF0ZSgxNS42OTE2IDEzLjg3NjUpIHJvdGF0ZSg0Ny42MzQ0KSBzY2FsZSgyNC42MiA0Ni4zMjM5KSIgZ3JhZGllbnRVbml0cz0idXNlclNwYWNlT25Vc2UiIHI9IjEiIGN5PSIwIiBjeD0iMCIgaWQ9InBhaW50M19yYWRpYWxfMjYyMl80MTQ5Ij4mI3hhOzxzdG9wIHN0b3AtY29sb3I9IiMwMTk1RkYiLz4mI3hhOzxzdG9wIHN0b3AtY29sb3I9IiMxMTQ3RTkiIG9mZnNldD0iMSIvPiYjeGE7PC9yYWRpYWxHcmFkaWVudD4mI3hhOzxyYWRpYWxHcmFkaWVudCBncmFkaWVudFRyYW5zZm9ybT0idHJhbnNsYXRlKDE1LjY5MTYgMTMuODc2NSkgcm90YXRlKDQ3LjYzNDQpIHNjYWxlKDI0LjYyIDQ2LjMyMzkpIiBncmFkaWVudFVuaXRzPSJ1c2VyU3BhY2VPblVzZSIgcj0iMSIgY3k9IjAiIGN4PSIwIiBpZD0icGFpbnQ0X3JhZGlhbF8yNjIyXzQxNDkiPiYjeGE7PHN0b3Agc3RvcC1jb2xvcj0iIzAxOTVGRiIvPiYjeGE7PHN0b3Agc3RvcC1jb2xvcj0iIzExNDdFOSIgb2Zmc2V0PSIxIi8+JiN4YTs8L3JhZGlhbEdyYWRpZW50PiYjeGE7PHJhZGlhbEdyYWRpZW50IGdyYWRpZW50VHJhbnNmb3JtPSJ0cmFuc2xhdGUoMTUuNjkxNiAxMy44NzY1KSByb3RhdGUoNDcuNjM0NCkgc2NhbGUoMjQuNjIgNDYuMzIzOSkiIGdyYWRpZW50VW5pdHM9InVzZXJTcGFjZU9uVXNlIiByPSIxIiBjeT0iMCIgY3g9IjAiIGlkPSJwYWludDVfcmFkaWFsXzI2MjJfNDE0OSI+JiN4YTs8c3RvcCBzdG9wLWNvbG9yPSIjMDE5NUZGIi8+JiN4YTs8c3RvcCBzdG9wLWNvbG9yPSIjMTE0N0U5IiBvZmZzZXQ9IjEiLz4mI3hhOzwvcmFkaWFsR3JhZGllbnQ+JiN4YTs8Y2xpcFBhdGggaWQ9ImNsaXAwXzI2MjJfNDE0OSI+JiN4YTs8cmVjdCB0cmFuc2Zvcm09InRyYW5zbGF0ZSgwLjUgMC4wMzQ5MTIxKSIgZmlsbD0id2hpdGUiIGhlaWdodD0iNDgiIHdpZHRoPSI0OCIvPiYjeGE7PC9jbGlwUGF0aD4mI3hhOzwvZGVmcz4mI3hhOzwvc3ZnPg==;points=[[0,0,0,0,0],[0,0.25,0,0,0],[0,0.5,0,0,0],[0,0.75,0,0,0],[0.25,0,0,0,0],[0.5,0,0,0,0],[0.75,0,0,0,0],[1,0,0,0,0],[1,0.25,0,0,0],[1,0.5,0,0,0],[1,0.75,0,0,0]];" vertex="1" parent="6sJW5nIuGnZSfE3EFcpS-42">
          <mxGeometry x="40.5" y="-7" width="49" height="49" as="geometry" />
        </mxCell>
        <mxCell id="6sJW5nIuGnZSfE3EFcpS-43" value="" style="shape=image;verticalLabelPosition=bottom;verticalAlign=top;imageAspect=0;aspect=fixed;image=data:image/svg+xml,PHN2ZyB4bWxucz0iaHR0cDovL3d3dy53My5vcmcvMjAwMC9zdmciIGZpbGw9Im5vbmUiIHZpZXdCb3g9IjAgMCA0OSA0OSIgaGVpZ2h0PSI0OSIgd2lkdGg9IjQ5Ij4mI3hhOzxnIGNsaXAtcGF0aD0idXJsKCNjbGlwMF8yNjIyXzQxNDkpIj4mI3hhOzxjaXJjbGUgc3Ryb2tlLXdpZHRoPSIwLjg1NzE0MyIgc3Ryb2tlPSIjRDVEQUREIiBmaWxsPSJ1cmwoI3BhaW50MF9saW5lYXJfMjYyMl80MTQ5KSIgcj0iMjMuNTcxNCIgY3k9IjI0LjAzNDkiIGN4PSIyNC41Ii8+JiN4YTs8cGF0aCBmaWxsPSJ1cmwoI3BhaW50MV9yYWRpYWxfMjYyMl80MTQ5KSIgZD0iTTM2LjQ4NjYgMjguMjk3OUMzNi4xMDU1IDI4LjI5NzkgMzUuNzYyNSAyOC40NTAzIDM1LjQ1NzYgMjguNzU1MkwzMC43MTMxIDMzLjQ5OTdMMjguODI2OCAzMS42MTMzQzI4LjU2IDMxLjMwODQgMjguMjM2MSAzMS4xNTYgMjcuODU1IDMxLjE1NkMyNy40NzM5IDMxLjE1NiAyNy4xMzA5IDMxLjMwODQgMjYuODI2MSAzMS42MTMzQzI2LjUyMTIgMzEuOTE4MiAyNi4zNjg4IDMyLjI2MTEgMjYuMzY4OCAzMi42NDIyQzI2LjM2ODggMzMuMDIzMyAyNi41MjEyIDMzLjM2NjMgMjYuODI2MSAzMy42NzExTDI5LjY4NDIgMzYuNTI5M0MyOS45NTEgMzYuNzk2IDMwLjI5MzkgMzYuOTI5NCAzMC43MTMxIDM2LjkyOTRDMzEuMTMyMyAzNi45Mjk0IDMxLjQ3NTMgMzYuNzk2IDMxLjc0MjEgMzYuNTI5M0wzNy41MTU1IDMwLjc1NThDMzcuNzgyMyAzMC40NTEgMzcuOTE1NiAzMC4xMDggMzcuOTE1NiAyOS43MjY5QzM3LjkxNTYgMjkuMzQ1OCAzNy43ODIzIDI5LjAyMTkgMzcuNTE1NSAyOC43NTUyQzM3LjIxMDYgMjguNDUwMyAzNi44Njc3IDI4LjI5NzkgMzYuNDg2NiAyOC4yOTc5WiIvPiYjeGE7PHBhdGggZmlsbD0idXJsKCNwYWludDJfcmFkaWFsXzI2MjJfNDE0OSkiIGQ9Ik0zMS4xODIzIDEyLjQzOTJDMzEuMTgyMyAxMS4xMjU5IDMyLjI0NjkgMTAuMDYxMyAzMy41NjAyIDEwLjA2MTNDMzQuODczNSAxMC4wNjEzIDM1LjkzODIgMTEuMTI1OSAzNS45MzgyIDEyLjQzOTJWMjMuOTAzM0MzNS45MzgyIDI1LjIxNjYgMzQuODczNSAyNi4yODEyIDMzLjU2MDIgMjYuMjgxMkMzMi4yNDY5IDI2LjI4MTIgMzEuMTgyMyAyNS4yMTY2IDMxLjE4MjMgMjMuOTAzM0wzMS4xODIzIDEyLjQzOTJaIi8+JiN4YTs8cGF0aCBmaWxsPSJ1cmwoI3BhaW50M19yYWRpYWxfMjYyMl80MTQ5KSIgZD0iTTE4LjM3NzggMTcuNzcyNUMxOC4zNzc4IDE2LjQ1OTIgMTkuNDQyNSAxNS4zOTQ1IDIwLjc1NTggMTUuMzk0NUMyMi4wNjkxIDE1LjM5NDUgMjMuMTMzNyAxNi40NTkyIDIzLjEzMzcgMTcuNzcyNUwyMy4xMzM3IDMzLjY2NzNDMjMuMTMzNyAzNC45ODA2IDIyLjA2OTEgMzYuMDQ1MyAyMC43NTU4IDM2LjA0NTNDMTkuNDQyNSAzNi4wNDUzIDE4LjM3NzggMzQuOTgwNiAxOC4zNzc4IDMzLjY2NzNMMTguMzc3OCAxNy43NzI1WiIvPiYjeGE7PHBhdGggZmlsbD0idXJsKCNwYWludDRfcmFkaWFsXzI2MjJfNDE0OSkiIGQ9Ik0yNC43OCAyMi42MTMyQzI0Ljc4IDIxLjI5OTkgMjUuODQ0NyAyMC4yMzUyIDI3LjE1OCAyMC4yMzUyQzI4LjQ3MTMgMjAuMjM1MiAyOS41MzYgMjEuMjk5OSAyOS41MzYgMjIuNjEzMkwyOS41MzYgMjYuMjgxMkMyOS41MzYgMjcuNTk0NSAyOC40NzEzIDI4LjY1OTIgMjcuMTU4IDI4LjY1OTJDMjUuODQ0NyAyOC42NTkyIDI0Ljc4IDI3LjU5NDUgMjQuNzggMjYuMjgxMkwyNC43OCAyMi42MTMyWiIvPiYjeGE7PHBhdGggZmlsbD0idXJsKCNwYWludDVfcmFkaWFsXzI2MjJfNDE0OSkiIGQ9Ik0xMS45NzU2IDI3Ljg4NDVDMTEuOTc1NiAyNi41NzExIDEzLjA0MDIgMjUuNTA2NSAxNC4zNTM2IDI1LjUwNjVDMTUuNjY2OSAyNS41MDY1IDE2LjczMTUgMjYuNTcxMSAxNi43MzE1IDI3Ljg4NDVMMTYuNzMxNSAzMy42NjcyQzE2LjczMTUgMzQuOTgwNSAxNS42NjY5IDM2LjA0NTIgMTQuMzUzNiAzNi4wNDUyQzEzLjA0MDIgMzYuMDQ1MiAxMS45NzU2IDM0Ljk4MDUgMTEuOTc1NiAzMy42NjcyVjI3Ljg4NDVaIi8+JiN4YTs8L2c+JiN4YTs8ZGVmcz4mI3hhOzxsaW5lYXJHcmFkaWVudCBncmFkaWVudFVuaXRzPSJ1c2VyU3BhY2VPblVzZSIgeTI9IjQ0LjI3OTIiIHgyPSI0MS41NjQ1IiB5MT0iNi44NDc3NSIgeDE9IjQuODUyODciIGlkPSJwYWludDBfbGluZWFyXzI2MjJfNDE0OSI+JiN4YTs8c3RvcCBzdG9wLWNvbG9yPSJ3aGl0ZSIvPiYjeGE7PHN0b3Agc3RvcC1jb2xvcj0iI0VBRUNFRSIgb2Zmc2V0PSIxIi8+JiN4YTs8L2xpbmVhckdyYWRpZW50PiYjeGE7PHJhZGlhbEdyYWRpZW50IGdyYWRpZW50VHJhbnNmb3JtPSJ0cmFuc2xhdGUoMjguMTU2OCAyOS41OTYzKSByb3RhdGUoMzYuNzc5KSBzY2FsZSgxMC4wNDIxIDguNzc2NzkpIiBncmFkaWVudFVuaXRzPSJ1c2VyU3BhY2VPblVzZSIgcj0iMSIgY3k9IjAiIGN4PSIwIiBpZD0icGFpbnQxX3JhZGlhbF8yNjIyXzQxNDkiPiYjeGE7PHN0b3Agc3RvcC1jb2xvcj0iIzEzNDhGRiIvPiYjeGE7PHN0b3Agc3RvcC1jb2xvcj0iIzA2MjM4RCIgb2Zmc2V0PSIxIi8+JiN4YTs8L3JhZGlhbEdyYWRpZW50PiYjeGE7PHJhZGlhbEdyYWRpZW50IGdyYWRpZW50VHJhbnNmb3JtPSJ0cmFuc2xhdGUoMTUuNjkxNiAxMy44NzY1KSByb3RhdGUoNDcuNjM0NCkgc2NhbGUoMjQuNjIgNDYuMzIzOSkiIGdyYWRpZW50VW5pdHM9InVzZXJTcGFjZU9uVXNlIiByPSIxIiBjeT0iMCIgY3g9IjAiIGlkPSJwYWludDJfcmFkaWFsXzI2MjJfNDE0OSI+JiN4YTs8c3RvcCBzdG9wLWNvbG9yPSIjMDE5NUZGIi8+JiN4YTs8c3RvcCBzdG9wLWNvbG9yPSIjMTE0N0U5IiBvZmZzZXQ9IjEiLz4mI3hhOzwvcmFkaWFsR3JhZGllbnQ+JiN4YTs8cmFkaWFsR3JhZGllbnQgZ3JhZGllbnRUcmFuc2Zvcm09InRyYW5zbGF0ZSgxNS42OTE2IDEzLjg3NjUpIHJvdGF0ZSg0Ny42MzQ0KSBzY2FsZSgyNC42MiA0Ni4zMjM5KSIgZ3JhZGllbnRVbml0cz0idXNlclNwYWNlT25Vc2UiIHI9IjEiIGN5PSIwIiBjeD0iMCIgaWQ9InBhaW50M19yYWRpYWxfMjYyMl80MTQ5Ij4mI3hhOzxzdG9wIHN0b3AtY29sb3I9IiMwMTk1RkYiLz4mI3hhOzxzdG9wIHN0b3AtY29sb3I9IiMxMTQ3RTkiIG9mZnNldD0iMSIvPiYjeGE7PC9yYWRpYWxHcmFkaWVudD4mI3hhOzxyYWRpYWxHcmFkaWVudCBncmFkaWVudFRyYW5zZm9ybT0idHJhbnNsYXRlKDE1LjY5MTYgMTMuODc2NSkgcm90YXRlKDQ3LjYzNDQpIHNjYWxlKDI0LjYyIDQ2LjMyMzkpIiBncmFkaWVudFVuaXRzPSJ1c2VyU3BhY2VPblVzZSIgcj0iMSIgY3k9IjAiIGN4PSIwIiBpZD0icGFpbnQ0X3JhZGlhbF8yNjIyXzQxNDkiPiYjeGE7PHN0b3Agc3RvcC1jb2xvcj0iIzAxOTVGRiIvPiYjeGE7PHN0b3Agc3RvcC1jb2xvcj0iIzExNDdFOSIgb2Zmc2V0PSIxIi8+JiN4YTs8L3JhZGlhbEdyYWRpZW50PiYjeGE7PHJhZGlhbEdyYWRpZW50IGdyYWRpZW50VHJhbnNmb3JtPSJ0cmFuc2xhdGUoMTUuNjkxNiAxMy44NzY1KSByb3RhdGUoNDcuNjM0NCkgc2NhbGUoMjQuNjIgNDYuMzIzOSkiIGdyYWRpZW50VW5pdHM9InVzZXJTcGFjZU9uVXNlIiByPSIxIiBjeT0iMCIgY3g9IjAiIGlkPSJwYWludDVfcmFkaWFsXzI2MjJfNDE0OSI+JiN4YTs8c3RvcCBzdG9wLWNvbG9yPSIjMDE5NUZGIi8+JiN4YTs8c3RvcCBzdG9wLWNvbG9yPSIjMTE0N0U5IiBvZmZzZXQ9IjEiLz4mI3hhOzwvcmFkaWFsR3JhZGllbnQ+JiN4YTs8Y2xpcFBhdGggaWQ9ImNsaXAwXzI2MjJfNDE0OSI+JiN4YTs8cmVjdCB0cmFuc2Zvcm09InRyYW5zbGF0ZSgwLjUgMC4wMzQ5MTIxKSIgZmlsbD0id2hpdGUiIGhlaWdodD0iNDgiIHdpZHRoPSI0OCIvPiYjeGE7PC9jbGlwUGF0aD4mI3hhOzwvZGVmcz4mI3hhOzwvc3ZnPg==;points=[[0,0,0,0,0],[0,0.25,0,0,0],[0,0.5,0,0,0],[0,0.75,0,0,0],[0.25,0,0,0,0],[0.5,0,0,0,0],[0.75,0,0,0,0],[1,0,0,0,0],[1,0.25,0,0,0],[1,0.5,0,0,0],[1,0.75,0,0,0]];" parent="6sJW5nIuGnZSfE3EFcpS-42" vertex="1">
          <mxGeometry x="30.5" width="49" height="49" as="geometry" />
        </mxCell>
        <mxCell id="6sJW5nIuGnZSfE3EFcpS-47" value="" style="endArrow=blockThin;html=1;strokeColor=#475e75;bendable=1;rounded=0;endFill=1;endSize=4;edgeStyle=entityRelationEdgeStyle;startArrow=blockThin;startFill=1;startSize=4;jumpStyle=none;jumpSize=0;targetPerimeterSpacing=15;dashed=1;strokeWidth=1.5;dashPattern=1 4;entryX=0;entryY=0.5;entryDx=0;entryDy=0;entryPerimeter=0;exitX=1;exitY=0.5;exitDx=0;exitDy=0;exitPerimeter=0;" parent="IrsivO46pxZ-6Kv6au7V-1" source="6sJW5nIuGnZSfE3EFcpS-24" target="6sJW5nIuGnZSfE3EFcpS-43" edge="1">
          <mxGeometry width="50" height="50" relative="1" as="geometry">
            <mxPoint x="-370" y="-419.9999999999999" as="sourcePoint" />
            <mxPoint x="-250" y="-419.9999999999999" as="targetPoint" />
          </mxGeometry>
        </mxCell>
        <mxCell id="6sJW5nIuGnZSfE3EFcpS-48" value="" style="endArrow=blockThin;html=1;strokeColor=#475e75;bendable=1;rounded=0;endFill=1;endSize=4;edgeStyle=entityRelationEdgeStyle;startArrow=blockThin;startFill=1;startSize=4;jumpStyle=none;jumpSize=0;targetPerimeterSpacing=15;dashed=1;strokeWidth=1.5;dashPattern=1 4;entryX=0;entryY=0.5;entryDx=0;entryDy=0;entryPerimeter=0;exitX=1;exitY=0.5;exitDx=0;exitDy=0;exitPerimeter=0;" parent="IrsivO46pxZ-6Kv6au7V-1" source="6sJW5nIuGnZSfE3EFcpS-11" target="6sJW5nIuGnZSfE3EFcpS-24" edge="1">
          <mxGeometry width="50" height="50" relative="1" as="geometry">
            <mxPoint x="-120" y="-445" as="sourcePoint" />
            <mxPoint x="48" y="-495" as="targetPoint" />
          </mxGeometry>
        </mxCell>
        <mxCell id="iYj1pvSdTLcZ1Zkn5zu0-1" value="" style="group" parent="IrsivO46pxZ-6Kv6au7V-1" vertex="1" connectable="0">
          <mxGeometry x="-910" y="-469.99999999999943" width="50" height="78" as="geometry" />
        </mxCell>
        <mxCell id="iYj1pvSdTLcZ1Zkn5zu0-2" value="" style="shape=image;verticalLabelPosition=bottom;verticalAlign=top;imageAspect=0;aspect=fixed;image=data:image/svg+xml,PHN2ZyB4bWxucz0iaHR0cDovL3d3dy53My5vcmcvMjAwMC9zdmciIGZpbGw9Im5vbmUiIHZpZXdCb3g9IjAgMCAxNyAxNyIgaGVpZ2h0PSIxNyIgd2lkdGg9IjE3Ij4mI3hhOzxwYXRoIGZpbGw9InVybCgjcGFpbnQwX2xpbmVhcl8yXzI4Nzk4KSIgZD0iTTAuMjEzODY3IDguNTUyNzNDMC4yMTM4NjcgNy40Njk0IDAuNDIyMjAxIDYuNDU4OTggMC44Mzg4NjcgNS41MjE0OEMxLjI1NTUzIDQuNTYzMTUgMS44MTgwMyAzLjcyOTgyIDIuNTI2MzcgMy4wMjE0OEMzLjIzNDcgMi4zMTMxNSA0LjA2ODAzIDEuNzUwNjUgNS4wMjYzNyAxLjMzMzk4QzUuOTg0NyAwLjkxNzMxOCA3LjAwNTUzIDAuNzA4OTg0IDguMDg4ODcgMC43MDg5ODRDOS4xNzIyIDAuNzA4OTg0IDEwLjE4MjYgMC45MTczMTggMTEuMTIwMSAxLjMzMzk4QzEyLjA3ODUgMS43NTA2NSAxMi45MTE4IDIuMzEzMTUgMTMuNjIwMSAzLjAyMTQ4QzE0LjMyODUgMy43Mjk4MiAxNC44OTEgNC41NjMxNSAxNS4zMDc2IDUuNTIxNDhDMTUuNzI0MyA2LjQ1ODk4IDE1LjkzMjYgNy40Njk0IDE1LjkzMjYgOC41NTI3M0MxNS45MzI2IDkuNjM2MDcgMTUuNzI0MyAxMC42NTY5IDE1LjMwNzYgMTEuNjE1MkMxNC44OTEgMTIuNTczNiAxNC4zMjg1IDEzLjQwNjkgMTMuNjIwMSAxNC4xMTUyQzEyLjkxMTggMTQuODIzNiAxMi4wNzg1IDE1LjM4NjEgMTEuMTIwMSAxNS44MDI3QzEwLjE4MjYgMTYuMjE5NCA5LjE3MjIgMTYuNDI3NyA4LjA4ODg3IDE2LjQyNzdDNy4wMDU1MyAxNi40Mjc3IDUuOTg0NyAxNi4yMTk0IDUuMDI2MzcgMTUuODAyN0M0LjA2ODAzIDE1LjM4NjEgMy4yMzQ3IDE0LjgyMzYgMi41MjYzNyAxNC4xMTUyQzEuODE4MDMgMTMuNDA2OSAxLjI1NTUzIDEyLjU3MzYgMC44Mzg4NjcgMTEuNjE1MkMwLjQyMjIwMSAxMC42NTY5IDAuMjEzODY3IDkuNjM2MDcgMC4yMTM4NjcgOC41NTI3M1pNOS42NTEzNyAxMC45Mjc3QzEwLjMxOCAxMC45Mjc3IDEwLjkzMjYgMTEuMDg0IDExLjQ5NTEgMTEuMzk2NUMxMi4wNTc2IDExLjY4ODIgMTIuNTE2IDEyLjA5NDQgMTIuODcwMSAxMi42MTUyQzEzLjM0OTMgMTIuMDczNiAxMy43MTM5IDExLjQ1OSAxMy45NjM5IDEwLjc3MTVDMTQuMjM0NyAxMC4wODQgMTQuMzcwMSA5LjM0NDQgMTQuMzcwMSA4LjU1MjczQzE0LjM3MDEgNy42Nzc3MyAxNC4yMDM1IDYuODY1MjMgMTMuODcwMSA2LjExNTIzQzEzLjUzNjggNS4zNDQ0IDEzLjA4ODkgNC42Nzc3MyAxMi41MjY0IDQuMTE1MjNDMTEuOTYzOSAzLjU1MjczIDExLjI5NzIgMy4xMDQ4MiAxMC41MjY0IDIuNzcxNDhDOS43NzYzNyAyLjQzODE1IDguOTYzODcgMi4yNzE0OCA4LjA4ODg3IDIuMjcxNDhDNy4yMTM4NyAyLjI3MTQ4IDYuMzkwOTUgMi40MzgxNSA1LjYyMDEyIDIuNzcxNDhDNC44NzAxMiAzLjEwNDgyIDQuMjAzNDUgMy41NTI3MyAzLjYyMDEyIDQuMTE1MjNDMy4wNTc2MiA0LjY3NzczIDIuNjA5NyA1LjM0NDQgMi4yNzYzNyA2LjExNTIzQzEuOTQzMDMgNi44NjUyMyAxLjc3NjM3IDcuNjc3NzMgMS43NzYzNyA4LjU1MjczQzEuNzc2MzcgOS4zNDQ0IDEuOTAxMzcgMTAuMDg0IDIuMTUxMzcgMTAuNzcxNUMyLjQyMjIgMTEuNDU5IDIuNzk3MiAxMi4wNzM2IDMuMjc2MzcgMTIuNjE1MkMzLjYzMDUzIDEyLjA5NDQgNC4wODg4NyAxMS42ODgyIDQuNjUxMzcgMTEuMzk2NUM1LjIxMzg3IDExLjA4NCA1LjgyODQ1IDEwLjkyNzcgNi40OTUxMiAxMC45Mjc3SDkuNjUxMzdaTTExLjIxMzkgNi45OTAyM0MxMS4yMTM5IDcuNDI3NzMgMTEuMTMwNSA3Ljg0NDQgMTAuOTYzOSA4LjI0MDIzQzEwLjc5NzIgOC42MTUyMyAxMC41NjggOC45NDg1NyAxMC4yNzY0IDkuMjQwMjNDMTAuMDA1NSA5LjUxMTA3IDkuNjgyNjIgOS43Mjk4MiA5LjMwNzYyIDkuODk2NDhDOC45MzI2MiAxMC4wNjMyIDguNTI2MzcgMTAuMTQ2NSA4LjA4ODg3IDEwLjE0NjVDNy42NTEzNyAxMC4xNDY1IDcuMjM0NyAxMC4wNjMyIDYuODM4ODcgOS44OTY0OEM2LjQ2Mzg3IDkuNzI5ODIgNi4xMzA1MyA5LjUxMTA3IDUuODM4ODcgOS4yNDAyM0M1LjU2ODAzIDguOTQ4NTcgNS4zNDkyOCA4LjYxNTIzIDUuMTgyNjIgOC4yNDAyM0M1LjAxNTk1IDcuODQ0NCA0LjkzMjYyIDcuNDI3NzMgNC45MzI2MiA2Ljk5MDIzQzQuOTMyNjIgNi41NTI3MyA1LjAxNTk1IDYuMTQ2NDggNS4xODI2MiA1Ljc3MTQ4QzUuMzQ5MjggNS4zOTY0OCA1LjU2ODAzIDUuMDYzMTUgNS44Mzg4NyA0Ljc3MTQ4QzYuMTMwNTMgNC40Nzk4MiA2LjQ2Mzg3IDQuMjUwNjUgNi44Mzg4NyA0LjA4Mzk4QzcuMjM0NyAzLjkxNzMyIDcuNjUxMzcgMy44MzM5OCA4LjA4ODg3IDMuODMzOThDOC41MjYzNyAzLjgzMzk4IDguOTMyNjIgMy45MTczMiA5LjMwNzYyIDQuMDgzOThDOS42ODI2MiA0LjI1MDY1IDEwLjAwNTUgNC40Nzk4MiAxMC4yNzY0IDQuNzcxNDhDMTAuNTY4IDUuMDYzMTUgMTAuNzk3MiA1LjM5NjQ4IDEwLjk2MzkgNS43NzE0OEMxMS4xMzA1IDYuMTQ2NDggMTEuMjEzOSA2LjU1MjczIDExLjIxMzkgNi45OTAyM1pNOS42NTEzNyA2Ljk5MDIzQzkuNjUxMzcgNi41NTI3MyA5LjQ5NTEyIDYuMTg4MTUgOS4xODI2MiA1Ljg5NjQ4QzguODcwMTIgNS41ODM5OCA4LjUwNTUzIDUuNDI3NzMgOC4wODg4NyA1LjQyNzczQzcuNjUxMzcgNS40Mjc3MyA3LjI3NjM3IDUuNTgzOTggNi45NjM4NyA1Ljg5NjQ4QzYuNjUxMzcgNi4xODgxNSA2LjQ5NTEyIDYuNTUyNzMgNi40OTUxMiA2Ljk5MDIzQzYuNDk1MTIgNy40Mjc3MyA2LjY1MTM3IDcuODAyNzMgNi45NjM4NyA4LjExNTIzQzcuMjc2MzcgOC40MDY5IDcuNjUxMzcgOC41NTI3MyA4LjA4ODg3IDguNTUyNzNDOC41MDU1MyA4LjU1MjczIDguODcwMTIgOC40MDY5IDkuMTgyNjIgOC4xMTUyM0M5LjQ5NTEyIDcuODAyNzMgOS42NTEzNyA3LjQyNzczIDkuNjUxMzcgNi45OTAyM1pNNC40NjM4NyAxMy43MDlDNC45NjM4NyAxNC4wNjMyIDUuNTE1OTUgMTQuMzQ0NCA2LjEyMDEyIDE0LjU1MjdDNi43NDUxMiAxNC43NjExIDcuNDAxMzcgMTQuODY1MiA4LjA4ODg3IDE0Ljg2NTJDOC43NTU1MyAxNC44NjUyIDkuMzkwOTUgMTQuNzYxMSA5Ljk5NTEyIDE0LjU1MjdDMTAuNjIwMSAxNC4zNDQ0IDExLjE4MjYgMTQuMDYzMiAxMS42ODI2IDEzLjcwOUMxMS40NzQzIDEzLjMzNCAxMS4xODI2IDEzLjA0MjMgMTAuODA3NiAxMi44MzRDMTAuNDUzNSAxMi42MDQ4IDEwLjA2OCAxMi40OTAyIDkuNjUxMzcgMTIuNDkwMkg2LjQ5NTEyQzYuMDc4NDUgMTIuNDkwMiA1LjY4MjYyIDEyLjYwNDggNS4zMDc2MiAxMi44MzRDNC45NTM0NSAxMy4wNDIzIDQuNjcyMiAxMy4zMzQgNC40NjM4NyAxMy43MDlaIi8+JiN4YTs8ZGVmcz4mI3hhOzxsaW5lYXJHcmFkaWVudCBncmFkaWVudFVuaXRzPSJ1c2VyU3BhY2VPblVzZSIgeTI9IjE2LjQyNzciIHgyPSI4LjA3MzI0IiB5MT0iMC43MDg5ODQiIHgxPSI4LjA3MzI0IiBpZD0icGFpbnQwX2xpbmVhcl8yXzI4Nzk4Ij4mI3hhOzxzdG9wIHN0b3AtY29sb3I9IiM1QjczOEIiLz4mI3hhOzxzdG9wIHN0b3AtY29sb3I9IiMyMjM1NDgiIG9mZnNldD0iMSIvPiYjeGE7PC9saW5lYXJHcmFkaWVudD4mI3hhOzwvZGVmcz4mI3hhOzwvc3ZnPg==;strokeWidth=1.5;container=0;" parent="iYj1pvSdTLcZ1Zkn5zu0-1" vertex="1">
          <mxGeometry x="2" width="48" height="48" as="geometry" />
        </mxCell>
        <mxCell id="iYj1pvSdTLcZ1Zkn5zu0-3" value="&lt;font color=&quot;#1d2d3e&quot; size=&quot;1&quot; face=&quot;arial&quot; style=&quot;&quot;&gt;&lt;b style=&quot;font-size: 14px;&quot;&gt;User&lt;/b&gt;&lt;/font&gt;" style="text;html=1;align=center;verticalAlign=middle;resizable=0;points=[];autosize=1;strokeColor=none;fillColor=none;fontSize=12;fontColor=default;fontFamily=Helvetica;container=0;" parent="iYj1pvSdTLcZ1Zkn5zu0-1" vertex="1">
          <mxGeometry y="48" width="50" height="30" as="geometry" />
        </mxCell>
        <mxCell id="iYj1pvSdTLcZ1Zkn5zu0-5" value="" style="group" parent="IrsivO46pxZ-6Kv6au7V-1" vertex="1" connectable="0">
          <mxGeometry x="-680" y="-330" width="110" height="95.00000000000011" as="geometry" />
        </mxCell>
        <mxCell id="iYj1pvSdTLcZ1Zkn5zu0-6" value="" style="shape=image;verticalLabelPosition=bottom;verticalAlign=top;imageAspect=0;aspect=fixed;image=data:image/svg+xml,PHN2ZyB4bWxucz0iaHR0cDovL3d3dy53My5vcmcvMjAwMC9zdmciIGZpbGw9Im5vbmUiIHZpZXdCb3g9IjAgMCA0OSA0OSIgaGVpZ2h0PSI0OSIgd2lkdGg9IjQ5Ij4mI3hhOzxnIGNsaXAtcGF0aD0idXJsKCNjbGlwMF8yNjIyXzM2NTQpIj4mI3hhOzxjaXJjbGUgc3Ryb2tlLXdpZHRoPSIwLjg1NzE0MyIgc3Ryb2tlPSIjRDVEQUREIiBmaWxsPSJ1cmwoI3BhaW50MF9saW5lYXJfMjYyMl8zNjU0KSIgcj0iMjMuNTcxNCIgY3k9IjI0LjAzNDkiIGN4PSIyNC41Ii8+JiN4YTs8ZyBjbGlwLXBhdGg9InVybCgjY2xpcDFfMjYyMl8zNjU0KSI+JiN4YTs8cGF0aCBmaWxsPSJ1cmwoI3BhaW50MV9yYWRpYWxfMjYyMl8zNjU0KSIgZD0iTTIzLjU5OTUgMTMuOTg0OUMyMC41MTU1IDEzLjk4NDkgMTguMjA3MSAxNi45NzU4IDE4LjQyMDQgMTkuODA4OUMxOC40NTE2IDIwLjIyNCAxOC4yODk2IDIwLjYzMDMgMTcuOTgxMyAyMC45MUMxNy42NzMgMjEuMTg5NyAxNy4yNTMgMjEuMzExNiAxNi44NDI4IDIxLjI0MDJDMTUuNTU2NyAyMS4wMTY2IDE0LjYyMjQgMjEuMzYxMyAxNC4wMDU2IDIxLjkyOUMxMy4zNjc3IDIyLjUxNjEgMTIuOTUgMjMuNDU0MSAxMi45NSAyNC42MDQ0QzEyLjk1IDI1Ljc0MDUgMTMuMjg4MSAyNi41NzY3IDEzLjgyMDYgMjcuMTIzMUMxNC4zNDU4IDI3LjY2MjEgMTUuMjA3NCAyOC4wNzA0IDE2LjU2MDQgMjguMDcwNEgxOS43NTg0QzIwLjUwNCAyOC4wNzA0IDIxLjEwODQgMjguNjc0OCAyMS4xMDg0IDI5LjQyMDRDMjEuMTA4NCAzMC4xNjYgMjAuNTA0IDMwLjc3MDQgMTkuNzU4NCAzMC43NzA0SDE2LjU2MDRDMTQuNjQyOSAzMC43NzA0IDEzLjAyNDIgMzAuMTc0NSAxMS44ODY5IDI5LjAwNzRDMTAuNzU2OCAyNy44NDc4IDEwLjI1IDI2LjI3NiAxMC4yNSAyNC42MDQ0QzEwLjI1IDIyLjgwODIgMTAuOTA4MyAyMS4xMTAyIDEyLjE3NyAxOS45NDI0QzEzLjEzMTkgMTkuMDYzNiAxNC4zNjc5IDE4LjU0NTMgMTUuNzcxNSAxOC40NzkxQzE2LjI0NDIgMTQuODE1MiAxOS4yOTc4IDExLjI4NDkgMjMuNTk5NSAxMS4yODQ5QzI2Ljk4OSAxMS4yODQ5IDI5LjUzMSAxMy4xNzg2IDMwLjkwODIgMTYuMDA3OEMzMy40MTY0IDE2LjAyODMgMzUuNzU0OSAxNy40OTUgMzYuNTQ2NCAyMC4zMzE0QzM2Ljc0NjggMjEuMDQ5NiAzNi4zMjcxIDIxLjc5NDIgMzUuNjA5IDIxLjk5NDZDMzQuODkwOSAyMi4xOTUxIDM0LjE0NjIgMjEuNzc1NCAzMy45NDU4IDIxLjA1NzJDMzMuNDU1OSAxOS4zMDE3IDMxLjk2MTcgMTguNDkxIDMwLjI1MDggMTguNzU0M0MyOS42MTc5IDE4Ljg1MTcgMjkuMDAzNyAxOC40OTEgMjguNzgwMyAxNy44OTA5QzI3Ljg1OCAxNS40MTM0IDI2LjAzMjYgMTMuOTg0OSAyMy41OTk1IDEzLjk4NDlaIiBjbGlwLXJ1bGU9ImV2ZW5vZGQiIGZpbGwtcnVsZT0iZXZlbm9kZCIvPiYjeGE7PHBhdGggZmlsbD0idXJsKCNwYWludDJfcmFkaWFsXzI2MjJfMzY1NCkiIGQ9Ik0yNS40OTk1IDI0LjA3MjdIMjYuMTUwMlYyNC43ODQ5SDI2Ljg2MDlWMjIuNjU4MkgyNi4xNTAyVjIzLjM2MDVIMjUuNDk5NVYyMi42NTgySDI0Ljc4ODlWMjQuNzg0OUgyNS40OTk1VjI0LjA3MjdaTTI3Ljc5NiAyNC43ODQ5SDI4LjUwNzJWMjMuMzYzNkgyOS4xMzMyVjIyLjY1ODJIMjcuMTdWMjMuMzYzNkgyNy43OTZWMjQuNzg0OVpNMzAuNjI5NiAyNC40ODY5TDMwLjE0MDIgMjMuNzMwNVYyNC43ODQ5SDI5LjQ0NDhWMjIuNjU4MkgzMC4xODZMMzAuNjQyMiAyMy40MDUxTDMxLjA5NzQgMjIuNjU4MkgzMS44MzkxVjI0Ljc4NDlIMzEuMTMxMVYyMy43MzA1TDMwLjY0MjIgMjQuNDg2OUgzMC42Mjk2Wk0zMy44NTg5IDI0LjA4MTZIMzIuODU5MVYyMi42NTgySDMyLjE0NzlWMjQuNzg0OUgzMy44NTg5VjI0LjA4MTZaTTI0Ljc2NTcgMzcuMDE4MUwyMy43NDkxIDI1LjYxNzJIMzQuOTI0TDMzLjkwNTkgMzcuMDE2NkwyOS4zMjk4IDM4LjI4NDlMMjQuNzY1NyAzNy4wMTgxWk0yNi42MDI2IDI5LjAxNjNMMjYuODczMyAzMi4wNTI4SDI5LjMzMjJIMjkuMzM5NUgzMC42ODk0TDMwLjU2MTYgMzMuNDgxNUwyOS4zMzIyIDMzLjgxMzJMMjguMTAzOCAzMy40ODI1TDI4LjAyNDkgMzIuNjAzN0gyNy40Mjg5SDI2LjkxODVMMjcuMDczIDM0LjMzMzVMMjkuMzMxMSAzNC45NjAxTDI5LjMzNTkgMzQuOTU4NUwzMS41OTE5IDM0LjMzMzVMMzEuNjA4MiAzNC4xNDc1TDMxLjg2NzMgMzEuMjQ3TDMxLjg5NDEgMzAuOTUxMUgzMS41OTcxSDI5LjMzOTVIMjkuMzMyMkgyNy44ODE0TDI3Ljc4MDUgMjkuODIyNkgyOS4zMzU5SDI5LjMzOTVIMzEuOTk0NUgzMS45OTgyTDMyLjAyMDMgMjkuNTc1TDMyLjA3MDcgMjkuMDE2M0wzMi4wOTcgMjguNzIwOUgyOS4zMzk1SDI5LjMzNTlIMjYuNTc2M0wyNi42MDI2IDI5LjAxNjNaIiBjbGlwLXJ1bGU9ImV2ZW5vZGQiIGZpbGwtcnVsZT0iZXZlbm9kZCIvPiYjeGE7PC9nPiYjeGE7PC9nPiYjeGE7PGRlZnM+JiN4YTs8bGluZWFyR3JhZGllbnQgZ3JhZGllbnRVbml0cz0idXNlclNwYWNlT25Vc2UiIHkyPSI0NC4yNzkyIiB4Mj0iNDEuNTY0NSIgeTE9IjYuODQ3NzUiIHgxPSI0Ljg1Mjg3IiBpZD0icGFpbnQwX2xpbmVhcl8yNjIyXzM2NTQiPiYjeGE7PHN0b3Agc3RvcC1jb2xvcj0id2hpdGUiLz4mI3hhOzxzdG9wIHN0b3AtY29sb3I9IiNFQUVDRUUiIG9mZnNldD0iMSIvPiYjeGE7PC9saW5lYXJHcmFkaWVudD4mI3hhOzxyYWRpYWxHcmFkaWVudCBncmFkaWVudFRyYW5zZm9ybT0idHJhbnNsYXRlKDE0LjMzNTYgMTQuMTQ2KSByb3RhdGUoMzYuNzkwNykgc2NhbGUoMjIuNzc3NSA0MS4yODQpIiBncmFkaWVudFVuaXRzPSJ1c2VyU3BhY2VPblVzZSIgcj0iMSIgY3k9IjAiIGN4PSIwIiBpZD0icGFpbnQxX3JhZGlhbF8yNjIyXzM2NTQiPiYjeGE7PHN0b3Agc3RvcC1jb2xvcj0iIzAxOTVGRiIvPiYjeGE7PHN0b3Agc3RvcC1jb2xvcj0iIzExNDdFOSIgb2Zmc2V0PSIxIi8+JiN4YTs8L3JhZGlhbEdyYWRpZW50PiYjeGE7PHJhZGlhbEdyYWRpZW50IGdyYWRpZW50VHJhbnNmb3JtPSJ0cmFuc2xhdGUoMjUuNDc5NiAyNS4wMDkpIHJvdGF0ZSg1NC40MzA5KSBzY2FsZSgxMy4zODIxIDExLjUzOTcpIiBncmFkaWVudFVuaXRzPSJ1c2VyU3BhY2VPblVzZSIgcj0iMSIgY3k9IjAiIGN4PSIwIiBpZD0icGFpbnQyX3JhZGlhbF8yNjIyXzM2NTQiPiYjeGE7PHN0b3Agc3RvcC1jb2xvcj0iIzEzNDhGRiIvPiYjeGE7PHN0b3Agc3RvcC1jb2xvcj0iIzA2MjM4RCIgb2Zmc2V0PSIxIi8+JiN4YTs8L3JhZGlhbEdyYWRpZW50PiYjeGE7PGNsaXBQYXRoIGlkPSJjbGlwMF8yNjIyXzM2NTQiPiYjeGE7PHJlY3QgdHJhbnNmb3JtPSJ0cmFuc2xhdGUoMC41IDAuMDM0OTEyMSkiIGZpbGw9IndoaXRlIiBoZWlnaHQ9IjQ4IiB3aWR0aD0iNDgiLz4mI3hhOzwvY2xpcFBhdGg+JiN4YTs8Y2xpcFBhdGggaWQ9ImNsaXAxXzI2MjJfMzY1NCI+JiN4YTs8cmVjdCB0cmFuc2Zvcm09InRyYW5zbGF0ZSgxMC4yNSAxMS4yODQ5KSIgZmlsbD0id2hpdGUiIGhlaWdodD0iMjciIHdpZHRoPSIyNyIvPiYjeGE7PC9jbGlwUGF0aD4mI3hhOzwvZGVmcz4mI3hhOzwvc3ZnPg==;points=[[0,0,0,0,0],[0,0.25,0,0,0],[0,0.5,0,0,0],[0,0.75,0,0,0],[0.25,0,0,0,0],[0.5,0,0,0,0],[0.75,0,0,0,0],[1,0,0,0,0],[1,0.25,0,0,0],[1,0.5,0,0,0],[1,0.75,0,0,0]];" parent="iYj1pvSdTLcZ1Zkn5zu0-5" vertex="1">
          <mxGeometry x="30.499999999999773" width="49" height="49" as="geometry" />
        </mxCell>
        <mxCell id="iYj1pvSdTLcZ1Zkn5zu0-7" value="&lt;b style=&quot;border-color: var(--border-color); font-size: 14px;&quot;&gt;&lt;font style=&quot;border-color: var(--border-color);&quot; color=&quot;#1d2d3e&quot;&gt;Content Package&lt;/font&gt;&lt;/b&gt;&lt;font color=&quot;#1d2d3e&quot; size=&quot;1&quot; face=&quot;arial&quot; style=&quot;&quot;&gt;&lt;b style=&quot;font-size: 14px;&quot;&gt;&lt;br&gt;&lt;/b&gt;&lt;/font&gt;" style="text;html=1;align=center;verticalAlign=top;resizable=1;points=[[0,0.5,0,0,0],[0.21,1,0,0,0],[0.5,1,0,0,0],[0.85,1,0,0,0],[1,0.5,0,0,0]];autosize=0;strokeColor=none;fillColor=none;fontSize=12;fontColor=default;fontFamily=Helvetica;fixedWidth=1;imageWidth=24;whiteSpace=wrap;labelBackgroundColor=none;" parent="iYj1pvSdTLcZ1Zkn5zu0-5" vertex="1">
          <mxGeometry y="49.000000000000114" width="110" height="46" as="geometry" />
        </mxCell>
        <mxCell id="iYj1pvSdTLcZ1Zkn5zu0-10" value="" style="endArrow=blockThin;html=1;strokeColor=#475e75;bendable=1;rounded=0;endFill=1;endSize=4;strokeWidth=1.5;startSize=4;startArrow=none;startFill=0;exitX=0.5;exitY=0;exitDx=0;exitDy=0;exitPerimeter=0;edgeStyle=orthogonalEdgeStyle;entryX=0.5;entryY=1;entryDx=0;entryDy=0;entryPerimeter=0;" parent="IrsivO46pxZ-6Kv6au7V-1" source="iYj1pvSdTLcZ1Zkn5zu0-6" target="IrsivO46pxZ-6Kv6au7V-27" edge="1">
          <mxGeometry width="50" height="50" relative="1" as="geometry">
            <mxPoint x="-443" y="-430" as="sourcePoint" />
            <mxPoint x="-323" y="-430" as="targetPoint" />
            <Array as="points" />
          </mxGeometry>
        </mxCell>
        <mxCell id="iYj1pvSdTLcZ1Zkn5zu0-11" value="" style="endArrow=blockThin;html=1;strokeColor=#475e75;bendable=1;rounded=0;endFill=1;endSize=4;strokeWidth=1.5;startSize=4;startArrow=none;startFill=0;entryX=0.5;entryY=1;entryDx=0;entryDy=0;entryPerimeter=0;edgeStyle=orthogonalEdgeStyle;exitX=0.5;exitY=0;exitDx=0;exitDy=0;exitPerimeter=0;" parent="IrsivO46pxZ-6Kv6au7V-1" source="6sJW5nIuGnZSfE3EFcpS-14" target="IrsivO46pxZ-6Kv6au7V-27" edge="1">
          <mxGeometry width="50" height="50" relative="1" as="geometry">
            <mxPoint x="-993" y="-310" as="sourcePoint" />
            <mxPoint x="-720" y="-407" as="targetPoint" />
          </mxGeometry>
        </mxCell>
        <mxCell id="iYj1pvSdTLcZ1Zkn5zu0-13" value="" style="endArrow=blockThin;html=1;strokeColor=#475E75;bendable=1;rounded=0;endFill=1;endSize=4;startArrow=blockThin;startFill=1;startSize=4;jumpStyle=none;jumpSize=0;targetPerimeterSpacing=15;strokeWidth=1.5;edgeStyle=orthogonalEdgeStyle;exitX=0;exitY=0.5;exitDx=0;exitDy=0;exitPerimeter=0;entryX=1;entryY=0.5;entryDx=0;entryDy=0;entryPerimeter=0;" parent="IrsivO46pxZ-6Kv6au7V-1" source="6sJW5nIuGnZSfE3EFcpS-11" target="IrsivO46pxZ-6Kv6au7V-26" edge="1">
          <mxGeometry width="50" height="50" relative="1" as="geometry">
            <mxPoint x="-229" y="-575" as="sourcePoint" />
            <mxPoint x="-530" y="-760" as="targetPoint" />
          </mxGeometry>
        </mxCell>
        <mxCell id="iYj1pvSdTLcZ1Zkn5zu0-21" style="edgeStyle=orthogonalEdgeStyle;rounded=0;orthogonalLoop=1;jettySize=auto;html=1;endArrow=block;endFill=1;strokeColor=#5d36ff;strokeWidth=1.5;entryX=0.5;entryY=0;entryDx=0;entryDy=0;" parent="IrsivO46pxZ-6Kv6au7V-1" source="iYj1pvSdTLcZ1Zkn5zu0-23" target="iYj1pvSdTLcZ1Zkn5zu0-2" edge="1">
          <mxGeometry relative="1" as="geometry">
            <mxPoint x="-199.8666666666668" y="-802" as="targetPoint" />
          </mxGeometry>
        </mxCell>
        <mxCell id="iYj1pvSdTLcZ1Zkn5zu0-22" style="edgeStyle=orthogonalEdgeStyle;rounded=0;orthogonalLoop=1;jettySize=auto;html=1;endArrow=none;endFill=0;strokeColor=#5d36ff;strokeWidth=1.5;entryX=0.5;entryY=0;entryDx=0;entryDy=0;entryPerimeter=0;" parent="IrsivO46pxZ-6Kv6au7V-1" source="iYj1pvSdTLcZ1Zkn5zu0-23" target="6sJW5nIuGnZSfE3EFcpS-21" edge="1">
          <mxGeometry relative="1" as="geometry">
            <mxPoint x="-450" y="-801.9333333333334" as="targetPoint" />
          </mxGeometry>
        </mxCell>
        <mxCell id="iYj1pvSdTLcZ1Zkn5zu0-23" value="&lt;font size=&quot;1&quot; color=&quot;#f5f6f7&quot;&gt;&lt;b style=&quot;&quot;&gt;Notification&lt;/b&gt;&lt;/font&gt;" style="rounded=1;whiteSpace=wrap;html=1;arcSize=50;strokeColor=none;fillColor=#5d36ff;strokeWidth=1.5;" parent="IrsivO46pxZ-6Kv6au7V-1" vertex="1">
          <mxGeometry x="-676.36" y="-720" width="62.73" height="16" as="geometry" />
        </mxCell>
        <mxCell id="Jg9ay4V2BTXNYw3k0cHm-1" value="" style="shape=image;verticalLabelPosition=bottom;labelBackgroundColor=default;verticalAlign=top;aspect=fixed;imageAspect=0;image=data:image/svg+xml,PHN2ZyB4bWxuczp4bGluaz0iaHR0cDovL3d3dy53My5vcmcvMTk5OS94bGluayIgeG1sbnM9Imh0dHA6Ly93d3cudzMub3JnLzIwMDAvc3ZnIiB2aWV3Qm94PSIwIDAgMTQ0Ljc0NyAzOS44MzIiIGlkPSJhIj48ZGVmcz48bGluZWFyR3JhZGllbnQgZ3JhZGllbnRVbml0cz0idXNlclNwYWNlT25Vc2UiIHkyPSIzOS44MzIiIHgyPSI0MC4yNTgiIHkxPSIwIiB4MT0iNDAuMjU4IiBpZD0iYiI+PHN0b3Agc3RvcC1jb2xvcj0iIzAwYjhmMSIgb2Zmc2V0PSIwIi8+PHN0b3Agc3RvcC1jb2xvcj0iIzAwYjVlZiIgb2Zmc2V0PSIuMDE2Ii8+PHN0b3Agc3RvcC1jb2xvcj0iIzBkOTBkOCIgb2Zmc2V0PSIuMzA4Ii8+PHN0b3Agc3RvcC1jb2xvcj0iIzE2NzVjOCIgb2Zmc2V0PSIuNTc4Ii8+PHN0b3Agc3RvcC1jb2xvcj0iIzFjNjRiZSIgb2Zmc2V0PSIuODE3Ii8+PHN0b3Agc3RvcC1jb2xvcj0iIzFlNWZiYiIgb2Zmc2V0PSIxIi8+PC9saW5lYXJHcmFkaWVudD48L2RlZnM+PHBvbHlsaW5lIGZpbGwtcnVsZT0iZXZlbm9kZCIgZmlsbD0idXJsKCNiKSIgcG9pbnRzPSIwIDM5LjgzMiA0MC42OTIgMzkuODMyIDgwLjUxNyAwIDAgMCAwIDM5LjgzMiIvPjxwYXRoIGZpbGwtcnVsZT0iZXZlbm9kZCIgZmlsbD0iI2ZmZiIgZD0ibTQ3Ljc4Miw3LjQ4OWwtNy45MjUtLjAwNXYxOC44NDVsLTYuOTI0LTE4Ljg0NWgtNi44NjVsLTUuOTEyLDE1Ljc1OWMtLjYzLTMuOTczLTQuNzQtNS4zNDUtNy45NzQtNi4zNzQtMi4xMzUtLjY4Ni00LjQwMS0xLjY5NC00LjM4LTIuODA5LjAxNy0uOTE1LDEuMjE1LTEuNzY1LDMuNTg5LTEuNjM3LDEuNTk1LjA4NCwzLjAwMS4yMTMsNS44LDEuNTYzbDIuNzUzLTQuNzk1Yy0yLjU1NS0xLjMtNi4wODYtMi4xMjEtOC45NzgtMi4xMjRoLS4wMTdjLTMuMzc0LDAtNi4xODUsMS4wOTMtNy45MjgsMi44OTQtMS4yMTQsMS4yNTgtMS44NjksMi44NTYtMS44OTYsNC42MjMtLjA0NCwyLjQzMi44NDgsNC4xNTcsMi43MjEsNS41MzMsMS41ODMsMS4xNiwzLjYwNiwxLjkxMiw1LjM5LDIuNDY1LDIuMjAxLjY4MSwzLjk5NiwxLjI3NCwzLjk3NSwyLjUzOS0uMDE2LjQ1OS0uMTkxLjg4OC0uNTIxLDEuMjM2LS41NDguNTY2LTEuMzkxLjc3OS0yLjU1NS43OTktMi4yNDQuMDQ4LTMuOTEtLjMwMy02LjU2Mi0xLjg3bC0yLjQ0OCw0Ljg2MWMyLjY0NCwxLjUwNiw1Ljc3NiwyLjM4OCw4Ljk3MiwyLjM4OGwuNDExLS4wMDZjMi43ODItLjA1LDUuMDI2LS44NDIsNi44Mi0yLjI4Ni4xMDMtLjA4MS4xOTYtLjE2Ni4yOTEtLjI1bC0uNzk1LDIuMTIzaDcuMmwxLjIwOC0zLjY3NGMxLjI2NS40MzMsMi43MDQuNjcxLDQuMjMyLjY3MSwxLjQ4NywwLDIuODg5LS4yMjksNC4xMzEtLjYzNWwxLjE2NCwzLjYzN2gxMS43NDJ2LTcuNjA3aDIuNTYxYzYuMTg4LDAsOS44NTEtMy4xNTQsOS44NTEtOC40MzYsMC01Ljg4NS0zLjU1Ny04LjU4NS0xMS4xMzItOC41ODVabS0xOC4zMTcsMTYuMTI0Yy0uOTI1LDAtMS43OTItLjE2LTIuNTM5LS40NDNsMi41MTItNy45MjZoLjA0OGwyLjQ2OCw3Ljk0OGMtLjc0Mi4yNjMtMS41ODkuNDIxLTIuNDg4LjQyMVptMTguNzgzLTQuNTUzaC0xLjc0NnYtNi4zODZoMS43NDZjMi4zMjgsMCw0LjE4NS43NzMsNC4xODUsMy4xNTEsMCwyLjQ2MS0xLjg1NywzLjIzNi00LjE4NSwzLjIzNiIvPjxwYXRoIGZpbGw9IiMwMDJhODYiIGQ9Im04MC4yMTcsNy40MDFoMTAuMDYzYzUuNTk1LDAsOC42NzQsMS45MTcsOC42NzQsNi4xNTgsMCwyLjkwMy0xLjUxMyw1LjAxNC00LjMxMSw1LjcsMy4yOS40NTgsNS4yNzgsMi41ODYsNS4yNzgsNS44OTQsMCw1LjAxNC00LjA2NCw3LjAzNy05LjE4NCw3LjAzN2gtMTAuNTIxVjcuNDAxWm0xMy45NjksNi44MjZjMC0yLjE2NC0xLjQ5Ni0yLjk3My00LjI0LTIuOTczaC01LjA0OXY2LjI5OGg0Ljg5MWMzLjIwMiwwLDQuMzk4LTEuMTYxLDQuMzk4LTMuMzI1Wm0xLjAyMSwxMC41MjFjMC0yLjM1Ny0xLjc3Ny0zLjQ2Ni00LjgzOS0zLjQ2NmgtNS40NzF2Ny4wNTVoNS41MDZjMi44MTUsMCw0LjgwNC0uNzc0LDQuODA0LTMuNTg5WiIvPjxwYXRoIGZpbGw9IiMwMDJhODYiIGQ9Im0xMDkuMDUxLDExLjVoLTcuNTgzdi00LjA5OWgxOS44NDZ2NC4wOTloLTcuNTY1djIwLjY5aC00LjY5N1YxMS41WiIvPjxwYXRoIGZpbGw9IiMwMDJhODYiIGQ9Im0xMjUuMTQ4LDcuNDAxaDEwLjUwNGM2LjE5MiwwLDkuMDk2LDMuMTg1LDkuMDk2LDcuODk5LDAsNC4zOTgtMi44MzMsOC4xNDYtOC44NSw4LjE0NmgtNi4wN3Y4Ljc0NGgtNC42OFY3LjQwMVptMTQuOTAyLDcuOTUyYzAtMi41NTEtMS42ODktMy45MjMtNC45NDQtMy45MjNoLTUuMjc4djguMDRoNS40MTljMy4yNzIsMCw0LjgwNC0xLjU4Myw0LjgwNC00LjExN1oiLz48L3N2Zz4=;strokeWidth=1.5;" parent="IrsivO46pxZ-6Kv6au7V-1" vertex="1">
          <mxGeometry x="-60" y="-662.3299999999999" width="67.25" height="18.55" as="geometry" />
        </mxCell>
        <mxCell id="Jg9ay4V2BTXNYw3k0cHm-2" value="&lt;font face=&quot;arial&quot; style=&quot;font-size: 16px;&quot;&gt;&lt;b style=&quot;font-size: 16px;&quot;&gt;Global Account&lt;/b&gt;&lt;/font&gt;" style="text;html=1;align=left;verticalAlign=middle;resizable=0;points=[];autosize=1;strokeColor=none;fillColor=none;fontSize=12;fontColor=#1d2d3e;fontFamily=Helvetica;" parent="IrsivO46pxZ-6Kv6au7V-1" vertex="1">
          <mxGeometry x="-720" y="-668.05" width="140" height="30" as="geometry" />
        </mxCell>
        <mxCell id="Jg9ay4V2BTXNYw3k0cHm-3" value="&lt;font face=&quot;arial&quot; style=&quot;font-size: 16px;&quot;&gt;&lt;b style=&quot;font-size: 16px;&quot;&gt;Global Account&lt;/b&gt;&lt;/font&gt;" style="text;html=1;align=left;verticalAlign=middle;resizable=0;points=[];autosize=1;strokeColor=none;fillColor=none;fontSize=12;fontColor=#1d2d3e;fontFamily=Helvetica;" parent="IrsivO46pxZ-6Kv6au7V-1" vertex="1">
          <mxGeometry x="20" y="-668.05" width="140" height="30" as="geometry" />
        </mxCell>
        <mxCell id="9YrzyXmVeyNu0k5GYYTk-0" value="" style="group;fontColor=#6600CC;" vertex="1" connectable="0" parent="IrsivO46pxZ-6Kv6au7V-1">
          <mxGeometry x="-570" y="-330" width="110" height="95" as="geometry" />
        </mxCell>
        <mxCell id="9YrzyXmVeyNu0k5GYYTk-1" value="" style="shape=image;verticalLabelPosition=bottom;verticalAlign=top;imageAspect=0;aspect=fixed;image=data:image/svg+xml,PHN2ZyB4bWxucz0iaHR0cDovL3d3dy53My5vcmcvMjAwMC9zdmciIGZpbGw9Im5vbmUiIHZpZXdCb3g9IjAgMCA0OSA0OSIgaGVpZ2h0PSI0OSIgd2lkdGg9IjQ5Ij4mI3hhOzxjaXJjbGUgc3Ryb2tlLXdpZHRoPSIwLjg1NzE0MyIgc3Ryb2tlPSIjRDVEQUREIiBmaWxsPSJ1cmwoI3BhaW50MF9saW5lYXJfMjYyMl8zMTQ5KSIgcj0iMjMuNTcxNCIgY3k9IjI0LjAzNDkiIGN4PSIyNC41Ii8+JiN4YTs8ZyBjbGlwLXBhdGg9InVybCgjY2xpcDBfMjYyMl8zMTQ5KSI+JiN4YTs8cGF0aCBzdHJva2Utd2lkdGg9IjIuNyIgc3Ryb2tlPSJ1cmwoI3BhaW50MV9yYWRpYWxfMjYyMl8zMTQ5KSIgZD0iTTE5LjgxMjEgMTIuODI1N0MyMS40NjI2IDEyLjEzNTUgMjMuMjM5MSAxMS44MjA2IDI1LjAxNDIgMTEuODk1OEMyNS4wMzcgMTEuODk2OCAyNS4wNDc2IDExLjkwMTYgMjUuMDUzOSAxMS45MDUxQzI1LjA2MjEgMTEuOTA5NiAyNS4wNzYzIDExLjkxOTcgMjUuMDkxOSAxMS45NDA5QzI1LjEyNTMgMTEuOTg1OSAyNS4xNTI4IDEyLjA2NDggMjUuMTM2MyAxMi4xNjI2TDIzLjM5NzYgMjIuNDU2M0MyMy4xNTc4IDIzLjg3NTYgMjMuOTQ3MiAyNS4yNjgzIDI1LjI4ODEgMjUuNzkxOEwzNS4wMTMxIDI5LjU4NzhDMzUuMTA1NSAyOS42MjM4IDM1LjE1OSAyOS42ODggMzUuMTgwNSAyOS43Mzk3QzM1LjE5MDYgMjkuNzY0MSAzNS4xOTIgMjkuNzgxNCAzNS4xOTE2IDI5Ljc5MDhDMzUuMTkxNCAyOS43OTc5IDM1LjE5MDEgMjkuODA5NSAzNS4xNzkyIDI5LjgyOTVDMzQuMzMxOSAzMS4zOTEyIDMzLjE0OTEgMzIuNzUzNiAzMS43MDkxIDMzLjgxNTFDMjkuODYgMzUuMTc4MSAyNy42NjIzIDM1Ljk4OSAyNS4zNzExIDM2LjE1MzdDMjMuMDc5OCAzNi4zMTgzIDIwLjc4ODggMzUuODMwMSAxOC43NjM4IDM0Ljc0NTZDMTYuNzM4NyAzMy42NjEgMTUuMDYyNiAzMi4wMjQ2IDEzLjkyOTkgMzAuMDI2MUMxMi43OTcxIDI4LjAyNzcgMTIuMjU0MSAyNS43NDkgMTIuMzYzOSAyMy40NTQ1QzEyLjQ3MzYgMjEuMTU5OSAxMy4yMzE2IDE4Ljk0MzUgMTQuNTQ5OSAxNy4wNjIzQzE1Ljg2ODIgMTUuMTgxIDE3LjY5MjggMTMuNzEyIDE5LjgxMjEgMTIuODI1N1oiLz4mI3hhOzxwYXRoIGZpbGw9InVybCgjcGFpbnQyX3JhZGlhbF8yNjIyXzMxNDkpIiBkPSJNMzUuODg3NyAyNS40MTY3QzM2Ljg3NzcgMjUuNzk4MyAzNy45NzYzIDI1LjE3ODcgMzcuOTk3NSAyNC4xMTc5QzM4LjAwNTUgMjMuNzE0NiAzNy45OTQ5IDIzLjMxMDIgMzcuOTY1NSAyMi45MDYyQzM3LjgyMTkgMjAuOTMyOCAzNy4yMzMxIDE5LjAxNTkgMzYuMjQyIDE3LjI5NTFDMzUuMjUwOSAxNS41NzQzIDMzLjg4MjYgMTQuMDkzMSAzMi4yMzY2IDEyLjk1OTNDMzEuODk2NSAxMi43MjQ5IDMxLjU0NjIgMTIuNTA2NyAzMS4xODcxIDEyLjMwNUMzMC4yNjE0IDExLjc4NSAyOS4xNjY3IDEyLjQxMyAyOC45ODg5IDEzLjQ1OThMMjcuNzM3NyAyMC44MjYxQzI3LjYwMzIgMjEuNjE3OCAyOC4wNDUzIDIyLjM5NDUgMjguNzk0NiAyMi42ODMzTDM1Ljg4NzcgMjUuNDE2N1oiIGNsaXAtcnVsZT0iZXZlbm9kZCIgZmlsbC1ydWxlPSJldmVub2RkIi8+JiN4YTs8L2c+JiN4YTs8ZGVmcz4mI3hhOzxsaW5lYXJHcmFkaWVudCBncmFkaWVudFVuaXRzPSJ1c2VyU3BhY2VPblVzZSIgeTI9IjQ0LjI3OTIiIHgyPSI0MS41NjQ1IiB5MT0iNi44NDc3NSIgeDE9IjQuODUyODciIGlkPSJwYWludDBfbGluZWFyXzI2MjJfMzE0OSI+JiN4YTs8c3RvcCBzdG9wLWNvbG9yPSJ3aGl0ZSIvPiYjeGE7PHN0b3Agc3RvcC1jb2xvcj0iI0VBRUNFRSIgb2Zmc2V0PSIxIi8+JiN4YTs8L2xpbmVhckdyYWRpZW50PiYjeGE7PHJhZGlhbEdyYWRpZW50IGdyYWRpZW50VHJhbnNmb3JtPSJ0cmFuc2xhdGUoMTQuOTYwOCAxNC40OTkzKSByb3RhdGUoNDYuOTA3Mykgc2NhbGUoMjUuODg0MyA0OC44MDExKSIgZ3JhZGllbnRVbml0cz0idXNlclNwYWNlT25Vc2UiIHI9IjEiIGN5PSIwIiBjeD0iMCIgaWQ9InBhaW50MV9yYWRpYWxfMjYyMl8zMTQ5Ij4mI3hhOzxzdG9wIHN0b3AtY29sb3I9IiMwMTk1RkYiLz4mI3hhOzxzdG9wIHN0b3AtY29sb3I9IiMxMTQ3RTkiIG9mZnNldD0iMSIvPiYjeGE7PC9yYWRpYWxHcmFkaWVudD4mI3hhOzxyYWRpYWxHcmFkaWVudCBncmFkaWVudFRyYW5zZm9ybT0idHJhbnNsYXRlKDI5LjMwNjYgMTQuMTM2Mykgcm90YXRlKDUyLjUxMjEpIHNjYWxlKDExLjc3MzMgMTAuMzYxOCkiIGdyYWRpZW50VW5pdHM9InVzZXJTcGFjZU9uVXNlIiByPSIxIiBjeT0iMCIgY3g9IjAiIGlkPSJwYWludDJfcmFkaWFsXzI2MjJfMzE0OSI+JiN4YTs8c3RvcCBzdG9wLWNvbG9yPSIjMTM0OEZGIi8+JiN4YTs8c3RvcCBzdG9wLWNvbG9yPSIjMDYyMzhEIiBvZmZzZXQ9IjEiLz4mI3hhOzwvcmFkaWFsR3JhZGllbnQ+JiN4YTs8Y2xpcFBhdGggaWQ9ImNsaXAwXzI2MjJfMzE0OSI+JiN4YTs8cmVjdCB0cmFuc2Zvcm09InRyYW5zbGF0ZSgxMSAxMC41MzQ5KSIgZmlsbD0id2hpdGUiIGhlaWdodD0iMjciIHdpZHRoPSIyNyIvPiYjeGE7PC9jbGlwUGF0aD4mI3hhOzwvZGVmcz4mI3hhOzwvc3ZnPg==;points=[[0,0,0,0,0],[0,0.25,0,0,0],[0,0.5,0,0,0],[0,0.75,0,0,0],[0.25,0,0,0,0],[0.5,0,0,0,0],[0.75,0,0,0,0],[1,0,0,0,0],[1,0.25,0,0,0],[1,0.5,0,0,0],[1,0.75,0,0,0]];" vertex="1" parent="9YrzyXmVeyNu0k5GYYTk-0">
          <mxGeometry x="30.5" width="49" height="49" as="geometry" />
        </mxCell>
        <mxCell id="9YrzyXmVeyNu0k5GYYTk-2" value="&lt;font size=&quot;1&quot; face=&quot;arial&quot; style=&quot;&quot;&gt;&lt;b style=&quot;font-size: 14px;&quot;&gt;SAP Analytics Cloud (optional)&lt;br&gt;&lt;/b&gt;&lt;/font&gt;" style="text;html=1;align=center;verticalAlign=top;resizable=1;points=[[0,0.5,0,0,0],[0.21,1,0,0,0],[0.5,1,0,0,0],[0.85,1,0,0,0],[1,0.5,0,0,0]];autosize=0;strokeColor=none;fillColor=none;fontSize=12;fontColor=#009900;fontFamily=Helvetica;fixedWidth=1;imageWidth=24;whiteSpace=wrap;labelBackgroundColor=none;" vertex="1" parent="9YrzyXmVeyNu0k5GYYTk-0">
          <mxGeometry y="49" width="110" height="46" as="geometry" />
        </mxCell>
        <mxCell id="9YrzyXmVeyNu0k5GYYTk-14" value="" style="endArrow=blockThin;html=1;strokeColor=#009900;bendable=1;rounded=0;endFill=1;endSize=4;startArrow=blockThin;startFill=1;startSize=4;jumpStyle=none;jumpSize=0;targetPerimeterSpacing=15;strokeWidth=1.5;entryX=0;entryY=0.5;entryDx=0;entryDy=0;entryPerimeter=0;exitX=1;exitY=0.5;exitDx=0;exitDy=0;exitPerimeter=0;dashed=1;" edge="1" parent="IrsivO46pxZ-6Kv6au7V-1" source="9YrzyXmVeyNu0k5GYYTk-1" target="6sJW5nIuGnZSfE3EFcpS-8">
          <mxGeometry width="50" height="50" relative="1" as="geometry">
            <mxPoint x="-395" y="-365" as="sourcePoint" />
            <mxPoint x="-395" y="-320" as="targetPoint" />
          </mxGeometry>
        </mxCell>
        <mxCell id="uiXHpHMs-ONdeq-UeaCV-2" style="edgeStyle=orthogonalEdgeStyle;rounded=0;orthogonalLoop=1;jettySize=auto;html=1;endArrow=blockThin;endFill=1;strokeColor=#009900;strokeWidth=1.5;entryX=0.5;entryY=0;entryDx=0;entryDy=0;entryPerimeter=0;dashed=1;exitX=1;exitY=0.75;exitDx=0;exitDy=0;exitPerimeter=0;startArrow=blockThin;startFill=1;" edge="1" parent="IrsivO46pxZ-6Kv6au7V-1" source="IrsivO46pxZ-6Kv6au7V-26" target="9YrzyXmVeyNu0k5GYYTk-1">
          <mxGeometry relative="1" as="geometry">
            <mxPoint x="-505" y="-225" as="targetPoint" />
            <mxPoint x="-662" y="-162" as="sourcePoint" />
          </mxGeometry>
        </mxCell>
      </root>
    </mxGraphModel>
  </diagram>
</mxfile>
